<svg width="1028" height="1028" viewBox="0 0 1028 1028" fill="none" xmlns="http://www.w3.org/2000/svg">
<path fill-rule="evenodd" clip-rule="evenodd" d="M470.194 6.56483C460.392 12.5005 451.079 23.6279 443.22 38.8021L438.357 48.1889L426.723 37.9318C410.808 23.8997 398.936 18.2929 385.139 18.2929C374.842 18.2929 372.486 19.3929 364.256 28.0455C355.779 36.9552 344.632 60.258 344.632 69.0663C344.632 74.0873 343.181 73.7313 323.94 63.981C284.408 43.949 260.685 57.9095 256.405 103.724L254.962 119.195L244.791 115.538C239.197 113.529 226.833 111.328 217.315 110.653C186.102 108.436 175.405 121.267 176.915 159.111L177.761 180.327L154.275 180.275C134.238 180.228 129.491 181.029 121.944 185.721C117.079 188.747 111.793 194.084 110.201 197.58C105.852 207.122 106.708 228.393 112.062 243.955L116.819 257.782L110.208 259.043C106.572 259.735 98.5891 261.051 92.4705 261.965C54.0677 267.713 43.5387 290.835 62.3149 328.192L71.7141 346.895L55.6993 352.548C45.7488 356.061 35.4003 362.081 28.3768 368.439C18.189 377.663 17.0791 379.745 17.1631 389.46C17.2818 403.213 23.5686 416.051 37.346 430.679L48.263 442.271L37.3089 428.348C24.5401 412.12 17.0543 394.444 19.2447 385.708C22.6785 372.029 33.9566 363.629 65.7636 351.065L74.9032 347.453L65.1456 328.598C57.7488 314.304 55.3879 306.865 55.3879 297.849C55.3879 277.347 67.143 268.467 101.556 262.969C110.757 261.498 118.599 259.983 118.982 259.602C119.365 259.219 117.449 252.43 114.727 244.517C107.566 223.704 108.062 203.649 115.971 194.25C123.711 185.054 140.401 180.685 163.365 181.847L180.04 182.693L179.306 162.359C178.438 138.24 181.62 126.989 191.711 118.497C200.613 111.007 215.169 110.196 235.936 116.038C257.37 122.065 256.568 122.367 258.437 107.585C261.182 85.855 265.824 72.7599 273.503 65.0813C284.269 54.315 300.927 54.8663 324.739 66.7797C334.558 71.6919 343.379 74.75 344.341 73.5782C345.302 72.4039 348.257 64.7871 350.904 56.6487C357.535 36.2755 372.306 20.765 385.08 20.765C397.651 20.765 407.661 25.4349 424.385 39.106L438.625 50.745L442.926 42.8613C451.074 27.9294 466.073 10.6513 474.291 6.73292C479.767 4.1223 485.42 3.34849 491.171 4.42883C501.054 6.28297 519.712 21.6428 527.618 34.4338C530.535 39.1532 534.063 43.0146 535.459 43.0146C536.856 43.0146 543.806 37.1134 550.906 29.8996C581.2 -0.883922 604.631 2.58957 623.669 40.6858C634.282 61.9267 633.224 61.2468 643.33 53.2938C667.301 34.4361 690.139 29.5611 702.121 40.7477C710.396 48.4707 717.152 61.7882 720.411 76.7943C724.611 96.1465 723.716 95.5953 739.486 88.5594C756.655 80.8982 776.759 78.2653 786.689 82.379C798.207 87.1478 804.825 101.946 806.346 126.327L807.659 147.375L816.566 145.756C849.018 139.852 867.535 142.023 874.968 152.599C881.878 162.428 883.876 175.217 881.099 191.852C876.578 218.947 875.235 216.445 894.691 217.179C916.276 217.993 931.161 222.43 938.484 230.235C946.788 239.083 946.214 263.901 937.257 283.53L930.723 297.841L936.973 300.217C940.409 301.525 944.775 302.593 946.676 302.593C954.461 302.593 977.03 312.949 983.057 319.288C995.848 332.734 994.211 348.684 977.477 373.747C972.056 381.866 967.621 389.119 967.621 389.868C967.621 390.617 973.972 394.135 981.732 397.69C1024.72 417.369 1029.36 437.645 998.397 470.471L982.431 487.396L995.887 497.554C1034.46 526.674 1033.28 550.898 992.095 575.919L977.44 584.821L987.697 596.364C998.686 608.73 1009.58 629.338 1009.62 637.825C1009.69 651.333 990.629 666.85 960.906 677.496L952.978 680.334L962.773 699.258C983.541 739.396 973.559 757.424 926.397 764.959C917.196 766.43 909.354 767.945 908.971 768.326C908.588 768.709 910.503 775.498 913.225 783.411C920.387 804.224 919.89 824.279 911.982 833.678C904.244 842.874 887.552 847.243 864.608 846.081L847.955 845.235L848.647 866.338C850.084 910.117 833.406 923.531 792.017 911.89C770.583 905.863 771.384 905.562 769.515 920.343C766.771 942.073 762.128 955.168 754.45 962.847C743.683 973.613 727.026 973.062 703.214 961.148C693.395 956.236 684.574 953.178 683.612 954.35C682.651 955.524 679.696 963.141 677.049 971.28C670.418 991.653 655.647 1007.16 642.873 1007.16C630.302 1007.16 620.292 1002.49 603.568 988.822L589.328 977.183L585.027 985.067C576.878 999.999 561.88 1017.28 553.662 1021.2C548.186 1023.81 542.532 1024.58 536.782 1023.5C526.898 1021.64 508.241 1006.29 500.335 993.494C497.418 988.775 493.89 984.913 492.493 984.913C491.096 984.913 484.147 990.814 477.047 998.028C446.753 1028.81 423.322 1025.34 404.284 987.242C393.671 966.001 394.729 966.681 384.622 974.634C360.652 993.492 337.814 998.367 325.832 987.18C317.557 979.457 310.801 966.139 307.542 951.133C303.342 931.781 304.237 932.332 288.467 939.368C271.298 947.029 251.194 949.662 241.263 945.549C229.745 940.78 223.128 925.982 221.607 901.601L220.294 880.553L211.387 882.172C178.935 888.076 160.418 885.905 152.984 875.329C146.075 865.5 144.077 852.711 146.853 836.076C151.375 808.981 152.717 811.483 133.261 810.749C111.677 809.935 96.7919 805.498 89.4693 797.693C81.1653 788.845 81.7387 764.027 90.6954 744.398L97.2294 730.087L90.9797 727.711C87.5434 726.403 83.1775 725.335 81.2764 725.335C73.4916 725.335 50.9231 714.979 44.8959 708.64C32.1049 695.194 33.7415 679.244 50.4756 654.181C55.8971 646.062 60.3322 638.809 60.3322 638.06C60.3322 637.311 53.9812 633.793 46.221 630.238C3.23483 610.559 -1.40783 590.283 29.5562 557.457L45.5213 540.532L32.0653 530.374C-6.19656 501.487 -5.53143 478.745 34.3398 452.713C42.5178 447.376 47.1729 443.675 44.6859 444.491C42.1989 445.307 34.1073 449.994 26.7031 454.909C11.8132 464.793 1 480.449 1 492.125C1 502.632 13.3659 519.756 29.0741 531.01L42.5153 540.636L29.0962 553.739C13.2817 569.178 4.81707 586.025 7.26946 597.182C9.78119 608.621 23.4696 622.013 40.9553 630.141C49.5733 634.146 56.9602 637.607 57.3706 637.832C57.7809 638.057 53.6029 645.226 48.0875 653.763C32.498 677.881 30.1123 692.831 39.5313 707.392C44.2804 714.737 63.1529 724.062 80.5298 727.651L94.5472 730.548L88.3865 744.002C79.8748 762.593 78.0034 782.845 83.8031 793.614C90.1319 805.366 104.849 811.777 128.656 813.156C139.345 813.774 147.857 815.282 147.568 816.506C133.474 876.004 153.471 897.322 211.385 884.538C217.81 883.119 217.815 883.131 219.165 902.825C221.612 938.498 232.786 951.487 259.342 949.516C267.671 948.898 280.329 945.673 288.21 942.16L302.244 935.903L303.958 946.191C312.19 995.65 340.805 1009.06 379.225 981.455C386.039 976.558 392.447 972.614 393.463 972.691C394.481 972.767 399.03 980.624 403.577 990.147C412.929 1009.74 426.711 1022 439.401 1022C450.966 1022 466.568 1013.17 479.556 999.289L491.351 986.676L498.928 996.302C515.138 1016.9 529.598 1026.96 542.945 1026.93C555.927 1026.9 573.316 1011.17 584.732 989.126L589.595 979.739L601.229 989.996C617.145 1004.03 629.017 1009.64 642.814 1009.64C653.11 1009.64 655.466 1008.53 663.696 999.882C672.173 990.972 683.32 967.67 683.32 958.861C683.32 953.84 684.772 954.197 704.013 963.947C743.545 983.979 767.268 970.019 771.547 924.204L772.991 908.733L783.162 912.39C788.756 914.4 801.12 916.599 810.637 917.274C841.851 919.492 852.548 906.662 851.038 868.818L850.192 847.601L873.678 847.653C893.715 847.7 898.462 846.899 906.009 842.207C910.874 839.181 916.16 833.844 917.752 830.348C922.1 820.805 921.245 799.535 915.89 783.972L911.134 770.146L917.744 768.885C921.381 768.192 929.364 766.878 935.482 765.963C973.885 760.215 984.414 737.093 965.638 699.736L956.239 681.034L972.254 675.38C982.204 671.867 992.553 665.847 999.576 659.489C1009.76 650.265 1010.87 648.183 1010.79 638.468C1010.67 624.97 1004.6 612.312 990.965 597.148L980.355 585.346L989.252 580.557C1011.7 568.48 1026.92 550.498 1026.94 536.018C1026.96 525.287 1014.77 508.298 998.879 496.918L985.438 487.292L998.857 474.189C1014.67 458.75 1023.14 441.903 1020.68 430.746C1018.17 419.307 1004.48 405.915 986.998 397.787C978.38 393.782 970.896 390.224 970.367 389.881C969.836 389.534 972.179 385.609 975.571 381.151C992.688 358.669 998.068 335.201 989.208 321.668C983.72 313.283 965.675 304.047 947.423 300.277L933.406 297.379L939.566 283.926C948.078 265.335 949.949 245.083 944.15 234.314C937.821 222.561 923.104 216.151 899.297 214.771C888.607 214.153 880.096 212.645 880.385 211.422C894.479 151.924 874.482 130.606 816.568 143.39C810.143 144.809 810.138 144.796 808.788 125.103C806.341 89.4296 795.167 76.4409 768.611 78.4112C760.282 79.0293 747.624 82.2553 739.743 85.7683L725.708 92.0254L723.995 81.7362C715.763 32.2779 687.147 18.8715 648.727 46.4733C641.914 51.3707 635.506 55.3136 634.49 55.237C633.472 55.1603 628.923 47.304 624.376 37.7812C615.024 18.1842 601.242 5.932 588.552 5.932C577.076 5.932 561.415 14.723 548.73 28.2854C542.424 35.027 536.871 40.5424 536.392 40.5424C535.915 40.5424 531.23 34.9058 525.986 28.0159C514.402 12.7997 497.339 0.982714 486.978 1.00002C482.79 1.00744 475.24 3.51169 470.194 6.56483ZM464.965 92.5966C401.735 99.9464 332.215 125.264 280.356 159.83C174.861 230.146 107 341.186 92.5769 467.094C85.7487 526.696 92.2925 586.488 112.211 646.502C153.897 772.099 253.382 871.577 378.998 913.267C468.597 943.005 556.883 943.005 646.483 913.267C818.163 856.289 935.443 693.721 935.443 512.728C935.443 404.066 892.971 299.003 817.317 220.527C747.286 147.882 658.576 104.043 558.374 92.5643C533.202 89.6793 489.93 89.6943 464.965 92.5966ZM595.835 100.967C762.7 135.64 889.275 262.551 924.887 430.894C930.8 458.839 931.477 467.267 931.477 512.728C931.477 558.189 930.8 566.616 924.887 594.562C897.154 725.654 814.687 832.454 696.917 889.786C661.726 906.919 633.165 916.711 594.574 924.874C566.629 930.788 558.201 931.465 512.74 931.465C467.279 931.465 458.852 930.788 430.906 924.874C299.814 897.141 193.014 814.674 135.682 696.905C118.525 661.662 108.74 633.098 100.621 594.562C94.7449 566.668 94.0577 558.1 94.0577 512.728C94.0577 467.356 94.7449 458.787 100.621 430.894C138.567 250.764 282.22 117.909 463.801 95.0193C495.947 90.965 562.028 93.9439 595.835 100.967ZM512.74 158.769C512.74 160.114 465.982 240.495 408.832 337.391C351.686 434.286 305.794 514.32 306.855 515.242C307.918 516.164 355.196 541.467 411.923 571.469L515.057 626.02L617.195 569.984L719.333 513.947L618.846 336.071C563.578 238.24 517.094 157.773 515.549 157.259C514.004 156.745 512.74 157.424 512.74 158.769ZM616.495 336.828C669.753 431.119 712.972 508.604 712.539 509.017C712.104 509.43 667.808 487.121 614.1 459.445L516.449 409.124L515.808 284.885C515.423 210.25 516.063 161.59 517.415 163.017C518.651 164.319 563.237 242.537 616.495 336.828ZM512.688 288.378L512.634 407.66L412.192 458.998C356.949 487.232 311.473 510.038 311.134 509.677C310.363 508.854 510.567 169.096 511.823 169.096C512.328 169.096 512.716 222.774 512.688 288.378ZM512.74 516.656V621.944L489.873 609.756C477.297 603.054 431.547 578.841 388.209 555.951L309.416 514.335L325.169 506.335C333.834 501.937 378.748 478.82 424.978 454.966C471.208 431.112 509.865 411.542 510.886 411.48C511.907 411.418 512.74 458.748 512.74 516.656ZM652.001 481.799C685.763 499.133 712.463 514.13 711.333 515.126C708.369 517.739 518.545 621.504 516.73 621.504C515.895 621.504 515.213 574.137 515.213 516.241V410.978L552.913 430.629C573.65 441.438 618.238 464.464 652.001 481.799ZM305.078 544.574C305.078 547.341 309.626 550.661 314.41 551.385C317.503 551.855 507.222 659.946 510.921 663.345C511.959 664.3 512.515 702.267 512.157 747.715L511.504 830.35L412.743 691.399C358.422 614.974 313.562 552.864 313.048 553.375C312.143 554.283 505.25 827.124 511.44 833.683C513.959 836.355 533.652 809.977 617.432 691.703C674.028 611.81 719.817 545.929 719.192 545.301C718.564 544.676 716.633 545.291 714.9 546.673C713.167 548.053 667.046 574.389 612.406 605.197L513.062 661.214L410.924 602.705C354.749 570.525 307.953 543.727 306.932 543.151C305.911 542.575 305.078 543.215 305.078 544.574ZM704.868 564.026C700.173 570.483 656.589 631.949 608.015 700.613C559.442 769.278 518.691 826.516 517.457 827.806C516.11 829.216 515.247 796.583 515.297 746.225L515.381 662.294L612.33 607.513C665.652 577.383 710.208 552.629 711.342 552.508C712.48 552.384 709.565 557.568 704.868 564.026Z" fill="black" stroke="black" stroke-width="0.5"/>
</svg>
