<svg width="4098" height="1750" viewBox="0 0 4098 1750" fill="none" xmlns="http://www.w3.org/2000/svg">
<path fill-rule="evenodd" clip-rule="evenodd" d="M1 875.011V0.999741H2049H4097V875.011V1749.02H2049H1V875.011ZM4095.94 875.011V2.05787H2049H2.05812V875.011V1747.96H2049H4095.94V875.011Z" fill="black" stroke="black" stroke-width="0.5"/>
<path fill-rule="evenodd" clip-rule="evenodd" d="M160.779 892.469V160.776H2049.53H3938.28V892.469V1624.16H2049.53H160.779V892.469ZM3937.23 892.469V161.834H2049.53H161.837V892.469V1623.1H2049.53H3937.23V892.469ZM181.942 891.411V178.764H2049.53H3917.12V891.411V1604.06H2049.53H181.942V891.411ZM3916.06 891.411V179.822H2049.53H183V891.411V1603H2049.53H3916.06V891.411Z" fill="black" stroke="black" stroke-width="0.5"/>
<path fill-rule="evenodd" clip-rule="evenodd" d="M245.425 1422.59V1270.75H352.825H460.225V1422.59V1574.43H352.825H245.425V1422.59ZM3639.89 1422.59V1270.75H3747.29H3854.69V1422.59V1574.43H3747.29H3639.89V1422.59ZM459.166 1422.59V1271.81H352.825H246.483V1422.59V1573.37H352.825H459.166V1422.59ZM3853.63 1422.59V1271.81H3747.29H3640.95V1422.59V1573.37H3747.29H3853.63V1422.59ZM1596.3 1411.74C1846.06 1411.6 2255.08 1411.6 2505.23 1411.74C2755.38 1411.89 2551.03 1412.01 2051.12 1412.01C1551.2 1412.01 1346.54 1411.89 1596.3 1411.74ZM1649.56 1211.49V1175.52H2049H2448.44V1211.49V1247.47H2049H1649.56V1211.49ZM2447.38 1211.49V1176.58H2049H1650.61V1211.49V1246.41H2049H2447.38V1211.49ZM245.425 375.046V223.205H352.825H460.225V375.046V526.887H352.825H245.425V375.046ZM3639.89 375.046V223.205H3747.29H3854.69V375.046V526.887H3747.29H3639.89V375.046ZM459.166 375.046V224.263H352.825H246.483V375.046V525.829H352.825H459.166V375.046ZM3853.63 375.046V224.263H3747.29H3640.95V375.046V525.829H3747.29H3853.63V375.046ZM1593.3 382.188C1844.9 382.041 2256.3 382.041 2507.52 382.188C2758.74 382.335 2552.88 382.455 2050.06 382.455C1547.24 382.455 1341.7 382.335 1593.3 382.188Z" fill="black" stroke="black" stroke-width="0.5"/>
<path fill-rule="evenodd" clip-rule="evenodd" d="M878.714 1459C862.957 1457.96 834.574 1454.74 835.244 1454.07C835.517 1453.79 842.316 1454.34 850.35 1455.28C993.31 1472.03 1136.74 1433.18 1252.23 1346.4C1274.25 1329.87 1290.46 1315.71 1311.55 1294.62C1332.64 1273.53 1346.8 1257.31 1363.34 1235.3C1386.54 1204.42 1402.51 1178.19 1420.04 1142.18C1451.57 1077.45 1469.51 1009.81 1474.93 935.321L1475.9 922.095L1475.44 935.85C1474.92 951.563 1471.95 976.901 1468.2 997.751C1449.85 1099.53 1405.19 1191.75 1336.11 1270.48C1321.95 1286.62 1288.73 1318.62 1271.95 1332.3C1178.59 1408.4 1069.66 1451.24 949.609 1459.08C931.4 1460.27 897.286 1460.23 878.714 1459ZM3149.45 1459C3133.69 1457.96 3105.31 1454.74 3105.98 1454.07C3106.25 1453.79 3113.05 1454.34 3121.09 1455.28C3264.05 1472.03 3407.48 1433.18 3522.97 1346.4C3544.98 1329.87 3561.19 1315.71 3582.29 1294.62C3603.38 1273.53 3617.53 1257.31 3634.07 1235.3C3657.28 1204.42 3673.25 1178.19 3690.78 1142.18C3722.3 1077.45 3740.25 1009.81 3745.67 935.321L3746.63 922.095L3746.18 935.85C3745.65 951.563 3742.69 976.901 3738.93 997.751C3720.59 1099.53 3675.93 1191.75 3606.84 1270.48C3592.68 1286.62 3559.47 1318.62 3542.69 1332.3C3449.33 1408.4 3340.4 1451.24 3220.34 1459.08C3202.14 1460.27 3168.02 1460.23 3149.45 1459ZM822.634 1452.61C720.298 1434.03 637.164 1396.19 558.465 1332.35C538.77 1316.37 497.137 1274.74 481.161 1255.04C424.696 1185.43 387.046 1108.88 367.585 1024.11C360.779 994.466 355.766 959.266 354.988 935.658L354.541 922.095L355.504 935.321C360.926 1009.81 378.873 1077.45 410.396 1142.18C427.926 1178.19 443.899 1204.42 467.102 1235.3C483.641 1257.31 497.796 1273.53 518.887 1294.62C565.143 1340.87 612.87 1374.8 671.851 1403.37C719.647 1426.51 763.903 1440.84 817.872 1450.63C826.893 1452.27 832.845 1453.6 831.099 1453.59C829.353 1453.57 825.543 1453.13 822.634 1452.61ZM3093.37 1452.61C2991.03 1434.03 2907.9 1396.19 2829.2 1332.35C2809.51 1316.37 2767.87 1274.74 2751.9 1255.04C2695.43 1185.43 2657.78 1108.88 2638.32 1024.11C2631.51 994.466 2626.5 959.266 2625.72 935.658L2625.28 922.095L2626.24 935.321C2634.32 1046.38 2672.02 1147.69 2737.84 1235.3C2754.38 1257.31 2768.53 1273.53 2789.62 1294.62C2835.88 1340.87 2883.61 1374.8 2942.59 1403.37C2990.38 1426.51 3034.64 1440.84 3088.61 1450.63C3097.63 1452.27 3103.58 1453.6 3101.83 1453.59C3100.09 1453.57 3096.28 1453.13 3093.37 1452.61ZM889.295 1309.24C819.557 1303.66 758.375 1284.5 702.887 1250.87C561.847 1165.38 485.433 1005.85 507.398 842.735C531.013 667.38 666.009 525.741 840.093 493.672C867.912 488.546 882.881 487.271 915.22 487.271C947.558 487.271 962.527 488.546 990.346 493.672C1188.88 530.247 1332.32 707.416 1326.49 908.868C1323.39 1016.07 1281.04 1114.61 1205.91 1189.48C1139.56 1255.61 1056.2 1295.82 961.777 1307.26C948.138 1308.91 901.209 1310.19 889.295 1309.24ZM3160.03 1309.24C3090.29 1303.66 3029.11 1284.5 2973.62 1250.87C2832.58 1165.38 2756.17 1005.85 2778.13 842.735C2801.75 667.38 2936.74 525.741 3110.83 493.672C3138.65 488.546 3153.62 487.271 3185.96 487.271C3218.29 487.271 3233.26 488.546 3261.08 493.672C3459.62 530.247 3603.06 707.416 3597.23 908.868C3594.12 1016.07 3551.78 1114.61 3476.65 1189.48C3410.29 1255.61 3326.94 1295.82 3232.51 1307.26C3218.87 1308.91 3171.94 1310.19 3160.03 1309.24ZM961.777 1306.2C1091.61 1290.47 1202.17 1218.67 1268.92 1106.74C1297.8 1058.3 1315.88 1004.1 1323.29 943.786C1325.93 922.298 1325.93 874.276 1323.29 852.787C1314.99 785.166 1294.31 727.9 1258.38 673.017C1197.37 579.817 1099.77 514.9 990.346 494.731C962.538 489.605 947.562 488.329 915.22 488.329C882.877 488.329 867.901 489.605 840.093 494.731C713.331 518.094 603.791 601.095 546.994 716.818C525.631 760.348 513.355 802.233 507.146 852.787C504.507 874.276 504.507 922.298 507.146 943.786C517.734 1029.99 549.992 1103.43 605.455 1167.58C675.548 1248.66 773.642 1298.1 883.476 1307.72C899.557 1309.13 944.867 1308.25 961.777 1306.2ZM3232.51 1306.2C3261.9 1302.64 3290.98 1296.19 3316.63 1287.53C3457.93 1239.86 3562.61 1119.35 3589.51 973.414C3594.64 945.605 3595.91 930.629 3595.91 898.287C3595.91 865.944 3594.64 850.969 3589.51 823.16C3566.14 696.374 3483.17 586.87 3367.42 530.062C3323.89 508.698 3282.01 496.423 3231.45 490.214C3209.97 487.575 3161.94 487.575 3140.46 490.214C3089.9 496.423 3048.02 508.698 3004.49 530.062C2888.76 586.859 2805.76 696.399 2782.4 823.16C2777.27 850.969 2776 865.944 2776 898.287C2776 930.629 2777.27 945.605 2782.4 973.414C2797.74 1056.65 2838.46 1132.75 2899.34 1191.95C2969.29 1259.96 3055.38 1299.07 3154.21 1307.72C3170.29 1309.13 3215.6 1308.25 3232.51 1306.2ZM353.552 900.932C352.538 770.087 396.736 645.608 481.161 541.533C497.137 521.838 538.77 480.205 558.465 464.228C635.752 401.534 721.739 361.974 817.793 344.918C824.442 343.738 830.87 342.816 832.077 342.869C833.285 342.923 826.893 344.306 817.872 345.943C763.619 355.787 719.403 370.132 671.322 393.487C635.445 410.915 609.152 426.92 578.207 450.169C555.921 466.914 539.856 480.961 518.393 502.475C496.88 524.039 483.734 539.106 467.092 561.274C406.903 641.449 369.377 735.203 358.247 833.212C355.607 856.457 355.196 862.9 354.444 892.996L353.716 922.095L353.552 900.932ZM1476.25 900.932C1475.15 809.005 1457.38 731.064 1420.04 654.389C1402.51 618.385 1386.54 592.157 1363.34 561.274C1346.8 539.261 1332.64 523.047 1311.55 501.955C1290.46 480.863 1274.25 466.709 1252.23 450.169C1221.29 426.92 1194.99 410.915 1159.12 393.487C1111.04 370.132 1066.82 355.787 1012.57 345.943C1003.55 344.306 997.154 342.923 998.362 342.869C1003.76 342.63 1037.88 349.48 1058.88 355.019C1153.18 379.89 1238.19 428.378 1308.15 497.2C1350.26 538.626 1380.67 578.641 1408.48 629.208C1454.07 712.123 1478.74 811.297 1476.86 904.107L1476.5 922.095L1476.25 900.932ZM2624.29 900.932C2623.27 770.087 2667.47 645.608 2751.9 541.533C2767.87 521.838 2809.51 480.205 2829.2 464.228C2906.49 401.534 2992.48 361.974 3088.53 344.918C3095.18 343.738 3101.61 342.816 3102.81 342.869C3104.02 342.923 3097.63 344.306 3088.61 345.943C3034.35 355.787 2990.14 370.132 2942.06 393.487C2906.18 410.915 2879.89 426.92 2848.94 450.169C2826.66 466.914 2810.59 480.961 2789.13 502.475C2767.62 524.039 2754.47 539.106 2737.83 561.274C2677.64 641.449 2640.11 735.203 2628.98 833.212C2626.34 856.457 2625.93 862.9 2625.18 892.996L2624.45 922.095L2624.29 900.932ZM3746.98 900.932C3745.88 809.005 3728.11 731.064 3690.78 654.389C3673.25 618.385 3657.28 592.157 3634.07 561.274C3617.53 539.261 3603.38 523.047 3582.29 501.955C3561.19 480.863 3544.98 466.709 3522.97 450.169C3492.02 426.92 3465.73 410.915 3429.85 393.487C3381.77 370.132 3337.56 355.787 3283.3 345.943C3274.28 344.306 3267.89 342.923 3269.1 342.869C3274.49 342.63 3308.62 349.48 3329.62 355.019C3423.92 379.89 3508.93 428.378 3578.88 497.2C3621 538.626 3651.41 578.641 3679.21 629.208C3724.8 712.123 3749.48 811.297 3747.6 904.107L3747.24 922.095L3746.98 900.932ZM843.796 341.121C871.585 337.083 917.055 335.417 946.963 337.34C967.159 338.639 995.972 341.73 995.188 342.514C994.919 342.784 988.123 342.235 980.089 341.293C938.168 336.381 891.146 336.352 851.03 341.212C835.431 343.102 830.578 343.04 843.796 341.121ZM3114.53 341.121C3142.32 337.083 3187.79 335.417 3217.7 337.34C3237.89 338.639 3266.71 341.73 3265.92 342.514C3265.65 342.784 3258.86 342.235 3250.82 341.293C3208.9 336.381 3161.88 336.352 3121.77 341.212C3106.17 343.102 3101.31 343.04 3114.53 341.121Z" fill="black" stroke="black" stroke-width="0.5"/>
</svg>
