<svg width="4097" height="1750" viewBox="0 0 4097 1750" fill="none" xmlns="http://www.w3.org/2000/svg">
<path fill-rule="evenodd" clip-rule="evenodd" d="M1 875.106V1749.04H2048.83H4096.66V875.106V1.16797H2048.83H1V875.106ZM4095.6 875.106V1747.99H2048.83H2.05804V875.106V2.22601H2048.83H4095.6V875.106Z" fill="black" stroke="black" stroke-width="0.5"/>
<path fill-rule="evenodd" clip-rule="evenodd" d="M84.585 875.636V1663.34H2051.06H4017.53L4016.88 1219.76C4016.53 975.792 4015.94 621.324 4015.58 432.054L4014.93 87.9277H2049.76H84.585V875.636ZM4014.52 487.601C4014.88 706.84 4015.47 1060.83 4015.82 1274.25L4016.46 1662.29H2051.05H85.643V875.636V88.9858H2049.76H4013.87L4014.52 487.601ZM102.572 872.991V1645.36H2051.59H4000.61L3999.96 1206.54C3999.6 965.185 3999.01 617.621 3998.65 434.17L3998 100.624H2050.29H102.572V872.991ZM3997.59 505.588C3997.95 727.736 3998.54 1074.82 3998.89 1276.9L3999.54 1644.3H2051.58H103.63V872.991V101.682H2050.29H3996.94L3997.59 505.588Z" fill="black" stroke="black" stroke-width="0.5"/>
<path fill-rule="evenodd" clip-rule="evenodd" d="M3771.27 147.451C3770.66 148.756 3725.93 222.431 3671.86 311.174C3617.79 399.917 3573.56 473.239 3573.56 474.112C3573.57 475.456 3767.61 756.616 3771.32 760.653C3772.35 761.778 3791.93 734.543 3871.33 621.521C3925.63 544.228 3971.44 479.208 3973.13 477.033L3976.21 473.076L3974.14 470.156C3969.69 463.844 3773.96 146.922 3773.96 146.022C3773.96 144.229 3772.38 145.069 3771.27 147.451ZM3873.44 309.747C3928.42 398.579 3973.54 471.802 3973.7 472.467C3974.08 473.988 3773.77 759.082 3772.36 759.038C3771.44 759.009 3739.52 713.247 3606.65 521.462L3573.84 474.117L3673.1 311.177C3727.7 221.559 3772.61 148.236 3772.92 148.236C3773.23 148.236 3818.47 220.916 3873.44 309.747ZM322.136 172.693C272.219 179.962 226.682 218.418 195.745 279.433C131.982 405.186 145.412 585.144 226.026 685.19C252.839 718.465 285.961 739.249 320.528 744.491C382.655 753.911 442.171 714.576 481.123 638.35C545.112 513.132 531.677 332.478 450.922 232.249C415.365 188.119 367.67 166.062 322.136 172.693ZM362.468 175.088C388.419 180.711 412.334 194.371 434.606 216.295C480.101 261.08 508.954 329.69 518.558 415.92C520.336 431.889 520.336 485.652 518.558 501.621C510.255 576.171 487.624 637.4 451.662 682.601C441.924 694.842 423.447 712.502 412.077 720.434C396.252 731.476 377.904 739.446 360.204 742.967C356.08 743.787 346.47 744.44 338.515 744.44C323.355 744.44 314.425 743.111 301.483 738.93C256.736 724.472 215.106 680.961 188.719 621.069C181.699 605.136 170.96 572.189 167.199 555.052C159.486 519.895 157.116 497.264 157.116 458.77C157.116 408.015 162.865 370.396 177.161 327.574C193.404 278.924 213.809 244.26 242.932 215.844C267.8 191.579 292.749 178.318 322.29 173.66C330.826 172.315 353.36 173.116 362.468 175.088ZM696.131 327.045V402.165H2051.48H3406.82V327.045V251.924H2051.48H696.131V327.045ZM3405.76 327.045V401.107H2051.48H697.189V327.045V252.982H2051.48H3405.76V327.045ZM2591.08 576.212V625.411H2998.42H3405.76V576.212V527.014H2998.42H2591.08V576.212ZM3404.71 576.212V624.353H2998.42H2592.13V576.212V528.072H2998.42H3404.71V576.212ZM595.618 801.045V850.773H631.062H666.506V801.045V751.317H631.062H595.618V801.045ZM665.448 801.045V849.715H631.062H596.676V801.045V752.376H631.062H665.448V801.045ZM3436.45 815.858V865.585H3471.89H3507.34V815.858V766.13H3471.89H3436.45V815.858ZM3506.28 815.858V864.527H3471.89H3437.51V815.858V767.188H3471.89H3506.28V815.858ZM553.296 1175.06V1224.26H960.64H1367.98V1175.06V1125.86H960.64H553.296V1175.06ZM1366.93 1175.06V1223.2H960.64H554.354V1175.06V1126.92H960.64H1366.93V1175.06ZM321.004 1265.94C280.558 1273.68 247.824 1300.57 226.851 1343.29C185.714 1427.08 212.271 1537.67 283.497 1579.18C302.247 1590.11 316.576 1593.96 338.515 1593.96C350.767 1593.96 355.714 1593.49 363.079 1591.65C406.569 1580.75 442.787 1543.72 459.568 1493C491.188 1397.42 445.634 1289.06 364.966 1267.98C352.489 1264.72 332.287 1263.78 321.004 1265.94ZM3768.09 1265.94C3727.64 1273.68 3694.91 1300.57 3673.94 1343.29C3632.8 1427.08 3659.36 1537.67 3730.58 1579.18C3749.33 1590.11 3763.66 1593.96 3785.6 1593.96C3797.85 1593.96 3802.8 1593.49 3810.16 1591.65C3853.65 1580.75 3889.87 1543.72 3906.65 1493C3938.27 1397.42 3892.72 1289.06 3812.05 1267.98C3799.57 1264.72 3779.37 1263.78 3768.09 1265.94ZM355.569 1267.08C410.824 1276.75 454.223 1327.82 466.187 1397.25C468.724 1411.97 468.724 1447.07 466.187 1461.79C459.364 1501.39 442.578 1535.1 417.689 1559.2C364.485 1610.71 290.917 1603.39 244.003 1541.91C227.802 1520.68 216.273 1492.7 210.769 1461.26C208.352 1447.45 208.365 1411.8 210.791 1397.78C220.376 1342.36 249.644 1297.91 289.875 1277.68C311.23 1266.94 333.904 1263.28 355.569 1267.08ZM3802.65 1267.08C3857.91 1276.75 3901.31 1327.82 3913.27 1397.25C3915.81 1411.97 3915.81 1447.07 3913.27 1461.79C3906.45 1501.39 3889.66 1535.1 3864.77 1559.2C3811.57 1610.71 3738 1603.39 3691.09 1541.91C3674.89 1520.68 3663.36 1492.7 3657.85 1461.26C3655.44 1447.45 3655.45 1411.8 3657.88 1397.78C3667.46 1342.36 3696.73 1297.91 3736.96 1277.68C3758.31 1266.94 3780.99 1263.28 3802.65 1267.08ZM569.167 1351.22V1400.95H604.611H640.055V1351.22V1301.5H604.611H569.167V1351.22ZM638.997 1351.22V1399.89H604.611H570.225V1351.22V1302.55H604.611H638.997V1351.22ZM3463.96 1357.57V1407.3H3499.4H3534.84V1357.57V1307.84H3499.4H3463.96V1357.57ZM3533.79 1357.57V1406.24H3499.4H3465.01V1357.57V1308.9H3499.4H3533.79V1357.57ZM1314.02 1576.59V1632.66H2052.01H2789.99V1576.59V1520.51H2052.01H1314.02V1576.59ZM2788.93 1576.59V1631.6H2052.01H1315.08V1576.59V1521.57H2052.01H2788.93V1576.59Z" fill="black" stroke="black" stroke-width="0.5"/>
<path fill-rule="evenodd" clip-rule="evenodd" d="M1018.02 143.205L1017.77 186.319L706.974 186.586C536.036 186.733 1150.34 186.854 2072.11 186.854C2993.87 186.854 3598.18 186.733 3415.03 186.586L3082.03 186.319L3081.74 143.734L3081.45 101.15L3081.2 143.736L3080.94 186.322H3064.03H3047.11L3046.82 143.736L3046.53 101.15L3046.28 143.736L3046.03 186.322H2050.96H1055.89L1055.6 143.736L1055.31 101.15L1055.06 143.736L1054.8 186.322H1036.83H1018.85L1018.57 143.207L1018.28 100.092L1018.02 143.205ZM1256.62 211.45C1710.67 211.596 2453.65 211.596 2907.69 211.45C3361.73 211.304 2990.24 211.185 2082.16 211.185C1174.07 211.185 802.581 211.304 1256.62 211.45ZM3301.5 576.208C3301.5 603.559 3301.64 614.899 3301.81 601.41C3301.98 587.92 3301.98 565.542 3301.81 551.682C3301.64 537.821 3301.5 548.858 3301.5 576.208ZM3339.59 576.208C3339.59 603.559 3339.73 614.899 3339.9 601.41C3340.07 587.92 3340.07 565.542 3339.9 551.682C3339.73 537.821 3339.59 548.858 3339.59 576.208ZM2651.87 576.737C2651.87 603.797 2652.01 614.867 2652.17 601.337C2652.34 587.808 2652.34 565.668 2652.17 552.138C2652.01 538.609 2651.87 549.678 2651.87 576.737ZM2920.61 576.737C2920.61 603.797 2920.75 614.867 2920.92 601.337C2921.08 587.808 2921.08 565.668 2920.92 552.138C2920.75 538.609 2920.61 549.678 2920.61 576.737ZM3788.23 1001.54C3788.23 1146.44 3788.36 1205.56 3788.51 1132.92C3788.66 1060.27 3788.66 941.721 3788.51 869.465C3788.36 797.207 3788.23 856.641 3788.23 1001.54ZM3759.67 1005.24C3759.67 1149.85 3759.79 1209.01 3759.94 1136.7C3760.09 1064.4 3760.09 946.085 3759.94 873.781C3759.79 801.477 3759.67 860.635 3759.67 1005.24ZM314.699 1005.77C314.699 1150.09 314.821 1208.97 314.972 1136.62C315.122 1064.27 315.122 946.191 314.972 874.226C314.821 802.259 314.699 861.455 314.699 1005.77ZM343.275 1004.71C342.839 1147.04 342.721 1263.73 343.012 1264.02C343.303 1264.31 343.897 1148.1 344.333 1005.77C344.769 863.443 344.888 746.754 344.597 746.463C344.306 746.173 343.711 862.385 343.275 1004.71ZM1266.9 1175.06C1266.9 1202.41 1267.04 1213.75 1267.2 1200.26C1267.37 1186.77 1267.37 1164.39 1267.2 1150.53C1267.04 1136.67 1266.9 1147.71 1266.9 1175.06ZM1304.99 1175.06C1304.99 1202.41 1305.13 1213.75 1305.29 1200.26C1305.46 1186.77 1305.46 1164.39 1305.29 1150.53C1305.13 1136.67 1304.99 1147.71 1304.99 1175.06ZM617.264 1175.59C617.264 1202.65 617.402 1213.71 617.569 1200.19C617.736 1186.66 617.736 1164.52 617.569 1150.99C617.402 1137.46 617.264 1148.53 617.264 1175.59ZM886.006 1175.59C886.006 1202.65 886.143 1213.71 886.311 1200.19C886.478 1186.66 886.478 1164.52 886.311 1150.99C886.143 1137.46 886.006 1148.53 886.006 1175.59ZM869.826 1368.94C953.43 1369.09 1090.55 1369.09 1174.54 1368.94C1258.53 1368.79 1190.13 1368.67 1022.53 1368.67C854.941 1368.67 786.222 1368.79 869.826 1368.94ZM869.826 1398.57C953.43 1398.72 1090.55 1398.72 1174.54 1398.57C1258.53 1398.42 1190.13 1398.3 1022.53 1398.3C854.941 1398.3 786.222 1398.42 869.826 1398.57ZM1738.76 1452.53L1731.58 1460.73L1495.03 1461.26L1258.48 1461.79L1258.2 1497.49L1257.92 1533.2L848.738 1533.47L439.556 1533.73L849.28 1534L1259.01 1534.26V1498.29V1462.31H1495.32H1731.64L1737.89 1455.17C1745.42 1446.56 1747.19 1444.33 1746.48 1444.33C1746.19 1444.33 1742.71 1448.02 1738.76 1452.53ZM2356.18 1445.91C2357.05 1447.08 2360.57 1451.24 2364 1455.17L2370.25 1462.31H2605.51H2840.77V1497.76V1533.2L3262.13 1532.94L3683.5 1532.68L3262.66 1532.41L2841.83 1532.14V1496.7V1461.26H2606.1H2370.37L2364.24 1453.9C2358.23 1446.68 2352.58 1441.09 2356.18 1445.91ZM1773.06 1473.93L1754.7 1494.01L1517.43 1494.03L1280.17 1494.06V1527.38V1560.71L848.222 1560.98L416.279 1561.24L848.21 1561.51L1280.14 1561.77L1280.43 1603.3C1280.6 1627.79 1280.82 1614.11 1280.97 1569.97L1281.22 1495.11H2050.95H2820.67L2820.92 1569.97C2821.07 1614.11 2821.29 1627.78 2821.46 1603.3L2821.75 1561.77L3264.79 1561.51L3707.83 1561.24L3264.78 1560.98L2821.73 1560.71V1527.38V1494.06L2583.93 1494.03L2346.14 1494.01L2330.28 1474.37C2315.7 1456.3 2312.81 1452.96 2312.81 1454.16C2312.81 1454.4 2319.95 1463.35 2328.68 1474.06L2344.55 1493.53L2197.48 1493.79C2116.6 1493.94 1984.27 1493.94 1903.43 1493.79L1756.44 1493.53L1770.14 1478.71C1785.2 1462.43 1792.73 1453.85 1791.94 1453.85C1791.66 1453.85 1783.16 1462.88 1773.06 1473.93Z" fill="black" stroke="black" stroke-width="0.5"/>
<path fill-rule="evenodd" clip-rule="evenodd" d="M2021.33 420.193C2015.51 420.715 2008.13 421.619 2004.93 422.2L1999.11 423.256L2004.93 422.768C2034.72 420.274 2042.6 419.954 2060.47 420.514C2071.53 420.861 2084.75 421.673 2089.85 422.318C2094.95 422.963 2099.71 423.296 2100.43 423.058C2101.14 422.82 2096.73 422.03 2090.62 421.302C2076.47 419.614 2035.13 418.953 2021.33 420.193ZM1978.48 426.407C1917.54 438.99 1861.87 465.933 1808.15 508.84C1789.84 523.474 1755.69 557.145 1740.37 575.683C1678.33 650.753 1634.93 741.612 1611.99 844.424C1607.5 864.515 1601.1 902.436 1600.37 913.197C1599.72 922.717 1600.15 920.63 1602.94 900.628C1616.95 800.339 1652.36 704.397 1704.3 625.966C1745.94 563.094 1799.77 510.131 1857.1 475.63C1898.02 451.001 1940.84 434.464 1985.35 426.086C1992.92 424.663 1997.68 423.49 1995.93 423.478C1994.19 423.466 1986.33 424.785 1978.48 426.407ZM2115.49 426.086C2234.82 448.54 2340.9 529.615 2414.35 654.507C2425.6 673.643 2445.17 713.486 2453.58 734.388C2475.07 787.801 2489.93 843.547 2497.91 900.628C2500.7 920.63 2501.13 922.717 2500.48 913.197C2499.75 902.436 2493.34 864.515 2488.86 844.424C2465.92 741.612 2422.51 650.753 2360.48 575.683C2345.16 557.145 2311.01 523.474 2292.69 508.84C2246.62 472.035 2199.6 447.235 2148.53 432.801C2133.64 428.594 2108.39 423.256 2104.11 423.412C2102.81 423.46 2107.93 424.663 2115.49 426.086ZM2024.75 447.646C1981.69 451.821 1942.67 463.225 1903.42 483.106C1786.54 542.308 1694.8 669.276 1654.21 828.025C1633.46 909.167 1626.91 994.862 1634.75 1082.48C1635.45 1090.34 1636.22 1096.19 1636.45 1095.5C1636.68 1094.8 1636.1 1085.52 1635.16 1074.87C1631.51 1033.38 1631.94 980.235 1636.29 935.944C1648.43 812.162 1692.21 695.494 1759.61 607.283C1786.89 571.576 1822.8 536.437 1856.02 512.937C1881.34 495.019 1913.86 477.682 1940.8 467.729C1959.55 460.802 1987.15 453.823 2008.1 450.71C2021.97 448.649 2028.75 448.273 2052.01 448.273C2075.27 448.273 2082.05 448.649 2095.92 450.71C2157.98 459.931 2214.94 485.646 2268.91 528.8C2283.8 540.713 2312.1 568.386 2325.9 584.535C2391.26 661.047 2435.94 757.198 2457.68 868.113C2462.91 894.778 2462.89 894.707 2462.34 888.333C2461.63 880.237 2454.96 848.106 2449.82 828.025C2409.12 669.135 2317.48 542.311 2200.6 483.106C2166.11 465.635 2134.34 455.471 2096.45 449.776C2079.74 447.267 2040.64 446.104 2024.75 447.646ZM2463.19 896.349C2463.12 897.266 2463.75 902.979 2464.6 909.045C2469.63 944.952 2471.97 986.628 2471.3 1028.52C2470.88 1054.54 2470.97 1057.82 2471.75 1045.45C2472.85 1027.83 2472.11 973.991 2470.49 954.46C2468.35 928.569 2463.61 890.894 2463.19 896.349ZM1597.81 934.886C1597.1 942.451 1596.57 950.545 1596.64 952.873C1596.71 955.201 1597.44 949.963 1598.24 941.235C1599.05 932.506 1599.58 924.412 1599.42 923.248C1599.25 922.084 1598.53 927.321 1597.81 934.886ZM2501.23 923.297C2501.19 924.487 2501.9 933.771 2502.82 943.928C2503.74 954.086 2504.88 978.583 2505.37 998.369L2506.25 1034.34L2505.87 997.84C2505.65 976.415 2504.79 953.471 2503.8 942.293C2502.2 924.233 2501.42 918.449 2501.23 923.297ZM1595.11 972.7C1594.73 980.999 1594.49 998.263 1594.59 1011.07C1594.73 1031.79 1594.84 1030.17 1595.56 996.259C1596 975.314 1596.24 958.05 1596.08 957.895C1595.92 957.739 1595.49 964.401 1595.11 972.7ZM1596.13 1050.52C1596.57 1066.68 1598.92 1092.11 1601.33 1106.82C1603.05 1117.29 1602.61 1110.86 1600.25 1090.95C1599.46 1084.25 1598.29 1071.16 1597.65 1061.85C1595.83 1035.43 1595.69 1034.38 1596.13 1050.52ZM2504.32 1042.12C2504.32 1051.08 2502.7 1072.17 2500.61 1090.42C2498.21 1111.4 2497.83 1117.06 2499.51 1106.82C2502.85 1086.54 2506.8 1034.87 2505.01 1034.87C2504.63 1034.87 2504.32 1038.13 2504.32 1042.12ZM2468.55 1078.1C2467.78 1087.61 2467.36 1095.6 2467.61 1095.86C2468.27 1096.51 2470.76 1066.6 2470.31 1063.44C2470.1 1061.98 2469.31 1068.58 2468.55 1078.1ZM1636.95 1100.47C1636.92 1102.51 1637.27 1106.31 1637.74 1108.93C1638.88 1115.37 1638.97 1109.32 1637.84 1102.06C1637.16 1097.73 1637 1097.44 1636.95 1100.47ZM2465.77 1104.77C2465.36 1108.92 2465.25 1112.53 2465.51 1112.8C2465.78 1113.07 2466.35 1109.9 2466.76 1105.76C2467.18 1101.62 2467.29 1098 2467.01 1097.73C2466.74 1097.45 2466.18 1100.62 2465.77 1104.77ZM1639.09 1117.4C1639.09 1119.43 1639.31 1120.27 1639.58 1119.25C1639.84 1118.23 1639.84 1116.57 1639.58 1115.55C1639.31 1114.53 1639.09 1115.36 1639.09 1117.4ZM2464.36 1117.4C2464.36 1119.43 2464.58 1120.27 2464.84 1119.25C2465.11 1118.23 2465.11 1116.57 2464.84 1115.55C2464.58 1114.53 2464.36 1115.36 2464.36 1117.4ZM1603.51 1121.63C1604.18 1128.53 1606.83 1142.13 1606.91 1139.09C1606.95 1137.92 1606.07 1132.21 1604.96 1126.39C1603.81 1120.32 1603.19 1118.29 1603.51 1121.63ZM2495.45 1128.1C2494.42 1134.54 2493.79 1140.02 2494.04 1140.27C2494.3 1140.53 2495.35 1135.47 2496.39 1129.04C2497.42 1122.6 2498.05 1117.13 2497.79 1116.86C2497.53 1116.6 2496.48 1121.66 2495.45 1128.1ZM1640.02 1123.24C1639.77 1127.83 1648.4 1172.82 1651.99 1185.64C1654.24 1193.69 1653.94 1189.22 1651.61 1180C1649.65 1172.24 1644.75 1147.53 1641.61 1129.57C1640.8 1124.91 1640.08 1122.06 1640.02 1123.24ZM2462.11 1130.37C2456.61 1166.99 2445.18 1212.34 2431.66 1251.24C2415.55 1297.58 2389.25 1350.76 2363.62 1388.78C2351.37 1406.95 2332.9 1430.89 2320.97 1444.03C2314.36 1451.32 2312.35 1453.85 2313.16 1453.85C2314.42 1453.85 2336.79 1427.35 2347.23 1413.5C2395.06 1350.01 2429.96 1274.66 2451.3 1188.82C2457.35 1164.47 2465.13 1123.35 2463.92 1122.14C2463.64 1121.86 2462.83 1125.57 2462.11 1130.37ZM1607.19 1143.04C1607.06 1145.89 1612.04 1168.9 1617.22 1189.34C1640.57 1281.56 1681.8 1364.88 1738 1433.49C1742.89 1439.45 1747.14 1444.33 1747.44 1444.33C1748.13 1444.33 1746.72 1442.48 1733.95 1426.73C1675.72 1354.87 1632.99 1261.56 1610.84 1157.84C1608.88 1148.69 1607.24 1142.03 1607.19 1143.04ZM2491.19 1151.91C2490.12 1157.66 2486.5 1173.32 2483.13 1186.7C2459.54 1280.52 2417.13 1366.76 2362.26 1432.49C2358.22 1437.33 2355.13 1441.5 2355.39 1441.76C2355.88 1442.25 2370.32 1424.49 2381.37 1409.8C2384.93 1405.07 2392.81 1393.64 2398.87 1384.41C2437.6 1325.46 2466.36 1258.79 2484.61 1185.64C2489.46 1166.21 2494.03 1144.18 2493.52 1142.67C2493.3 1142 2492.25 1146.17 2491.19 1151.91ZM1653.66 1192.17C1653.66 1194.45 1662.47 1225.2 1667.35 1239.92C1692.96 1317.26 1731.62 1386.74 1779.45 1441.42C1785.94 1448.84 1791.51 1454.91 1791.83 1454.91C1792.57 1454.91 1789.76 1451.48 1778.79 1438.94C1745.42 1400.84 1713.8 1350.22 1690.85 1298.2C1678.83 1270.94 1665.02 1231.83 1657.85 1204.69C1654.69 1192.75 1653.66 1189.67 1653.66 1192.17Z" fill="black" stroke="black" stroke-width="0.5"/>
<path fill-rule="evenodd" clip-rule="evenodd" d="M992.157 668.002C987.962 670.542 983.976 675.304 980.613 681.799L978.531 685.816L973.552 681.426C966.741 675.421 961.66 673.021 955.755 673.021C951.348 673.021 950.34 673.492 946.818 677.195C943.19 681.008 938.419 690.981 938.419 694.751C938.419 696.9 937.798 696.748 929.563 692.575C912.644 684.001 902.491 689.976 900.66 709.584L900.042 716.205L895.689 714.64C893.295 713.78 888.004 712.838 883.93 712.549C870.571 711.6 865.993 717.092 866.64 733.288L867.002 742.368L856.95 742.346C848.375 742.326 846.343 742.668 843.113 744.677C841.031 745.972 838.769 748.256 838.088 749.752C836.227 753.836 836.593 762.939 838.884 769.6L840.92 775.517L838.091 776.057C836.534 776.353 833.118 776.916 830.499 777.308C814.064 779.768 809.558 789.663 817.593 805.651L821.616 813.655L814.762 816.075C810.504 817.579 806.075 820.155 803.069 822.876C798.709 826.824 798.234 827.715 798.27 831.873C798.32 837.758 801.011 843.253 806.907 849.513L811.58 854.474L806.891 848.516C801.427 841.571 798.223 834.006 799.16 830.267C800.63 824.412 805.457 820.817 819.069 815.44L822.981 813.894L818.805 805.825C815.639 799.707 814.629 796.524 814.629 792.665C814.629 783.891 819.66 780.09 834.388 777.737C838.326 777.108 841.682 776.459 841.846 776.296C842.01 776.132 841.19 773.227 840.025 769.84C836.96 760.932 837.172 752.35 840.557 748.327C843.87 744.391 851.013 742.521 860.841 743.019L867.977 743.381L867.663 734.678C867.292 724.356 868.653 719.541 872.972 715.906C876.782 712.701 883.012 712.354 891.899 714.854C901.073 717.433 900.73 717.562 901.53 711.236C902.704 701.936 904.691 696.332 907.977 693.046C912.585 688.438 919.714 688.674 929.905 693.772C934.108 695.875 937.883 697.184 938.294 696.682C938.706 696.179 939.97 692.92 941.103 689.437C943.941 680.717 950.263 674.079 955.73 674.079C961.11 674.079 965.394 676.078 972.551 681.929L978.646 686.91L980.487 683.536C983.974 677.145 990.393 669.751 993.91 668.074C996.254 666.956 998.673 666.625 1001.13 667.088C1005.36 667.881 1013.35 674.455 1016.73 679.929C1017.98 681.949 1019.49 683.601 1020.09 683.601C1020.69 683.601 1023.66 681.076 1026.7 677.989C1039.66 664.814 1049.69 666.3 1057.84 682.605C1062.38 691.695 1061.93 691.404 1066.26 688.001C1076.51 679.93 1086.29 677.844 1091.42 682.631C1094.96 685.937 1097.85 691.636 1099.24 698.058C1101.04 706.341 1100.66 706.105 1107.41 703.094C1114.76 699.815 1123.36 698.688 1127.61 700.449C1132.54 702.49 1135.37 708.823 1136.02 719.257L1136.58 728.265L1140.4 727.572C1154.28 725.046 1162.21 725.975 1165.39 730.501C1168.35 734.708 1169.2 740.181 1168.02 747.301C1166.08 758.897 1165.51 757.826 1173.83 758.14C1183.07 758.488 1189.44 760.387 1192.57 763.728C1196.13 767.514 1195.88 778.136 1192.05 786.537L1189.25 792.662L1191.93 793.679C1193.4 794.238 1195.27 794.695 1196.08 794.695C1199.41 794.695 1209.07 799.128 1211.65 801.84C1217.13 807.595 1216.42 814.421 1209.26 825.148C1206.94 828.622 1205.04 831.727 1205.04 832.047C1205.04 832.368 1207.76 833.873 1211.08 835.395C1229.48 843.817 1231.47 852.495 1218.22 866.543L1211.38 873.787L1217.14 878.134C1233.65 890.597 1233.15 900.965 1215.52 911.673L1209.25 915.483L1213.64 920.423C1218.34 925.715 1223 934.535 1223.02 938.167C1223.05 943.948 1214.89 950.59 1202.17 955.146L1198.78 956.36L1202.97 964.459C1211.86 981.638 1207.59 989.353 1187.4 992.578C1183.46 993.208 1180.11 993.856 1179.94 994.019C1179.78 994.183 1180.6 997.088 1181.76 1000.48C1184.83 1009.38 1184.62 1017.97 1181.23 1021.99C1177.92 1025.92 1170.78 1027.79 1160.96 1027.3L1153.83 1026.93L1154.13 1035.97C1154.74 1054.7 1147.6 1060.44 1129.89 1055.46C1120.72 1052.88 1121.06 1052.75 1120.26 1059.08C1119.09 1068.38 1117.1 1073.98 1113.81 1077.27C1109.2 1081.88 1102.08 1081.64 1091.88 1076.54C1087.68 1074.44 1083.91 1073.13 1083.5 1073.63C1083.08 1074.14 1081.82 1077.4 1080.69 1080.88C1077.85 1089.6 1071.53 1096.24 1066.06 1096.24C1060.68 1096.24 1056.4 1094.24 1049.24 1088.39L1043.14 1083.41L1041.3 1086.78C1037.82 1093.17 1031.4 1100.56 1027.88 1102.24C1025.54 1103.36 1023.12 1103.69 1020.65 1103.23C1016.42 1102.43 1008.44 1095.86 1005.06 1090.39C1003.81 1088.37 1002.3 1086.71 1001.7 1086.71C1001.1 1086.71 998.128 1089.24 995.09 1092.33C982.125 1105.5 972.096 1104.01 963.949 1087.71C959.406 1078.62 959.859 1078.91 955.534 1082.31C945.275 1090.38 935.501 1092.47 930.373 1087.68C926.832 1084.38 923.94 1078.68 922.545 1072.26C920.748 1063.97 921.131 1064.21 914.382 1067.22C907.034 1070.5 898.43 1071.63 894.179 1069.87C889.25 1067.83 886.418 1061.49 885.767 1051.06L885.205 1042.05L881.393 1042.74C867.504 1045.27 859.58 1044.34 856.398 1039.81C853.441 1035.61 852.586 1030.13 853.774 1023.01C855.709 1011.42 856.284 1012.49 847.957 1012.17C838.719 1011.83 832.349 1009.93 829.215 1006.59C825.661 1002.8 825.906 992.179 829.74 983.778L832.536 977.653L829.861 976.636C828.391 976.077 826.522 975.62 825.709 975.62C822.377 975.62 812.718 971.188 810.139 968.475C804.664 962.72 805.365 955.894 812.527 945.167C814.847 941.693 816.745 938.588 816.745 938.268C816.745 937.947 814.027 936.442 810.706 934.92C792.309 926.498 790.322 917.82 803.573 903.772L810.406 896.528L804.647 892.181C788.272 879.818 788.557 870.085 805.621 858.944C809.121 856.659 811.113 855.075 810.049 855.425C808.984 855.774 805.521 857.78 802.352 859.883C795.98 864.113 791.352 870.814 791.352 875.811C791.352 880.307 796.644 887.637 803.367 892.453L809.12 896.573L803.377 902.18C796.608 908.788 792.986 915.998 794.035 920.773C795.11 925.669 800.969 931.4 808.452 934.879C812.14 936.593 815.302 938.074 815.477 938.17C815.653 938.267 813.865 941.335 811.504 944.988C804.832 955.311 803.811 961.709 807.843 967.94C809.875 971.084 817.952 975.075 825.389 976.611L831.388 977.851L828.752 983.609C825.109 991.565 824.308 1000.23 826.79 1004.84C829.499 1009.87 835.797 1012.61 845.986 1013.21C850.561 1013.47 854.204 1014.12 854.08 1014.64C848.048 1040.1 856.606 1049.23 881.392 1043.76C884.142 1043.15 884.144 1043.15 884.722 1051.58C885.769 1066.85 890.551 1072.41 901.917 1071.56C905.481 1071.3 910.899 1069.92 914.272 1068.42L920.278 1065.74L921.011 1070.14C924.535 1091.31 936.781 1097.05 953.224 1085.23C956.14 1083.14 958.883 1081.45 959.317 1081.48C959.753 1081.52 961.7 1084.88 963.646 1088.95C967.648 1097.34 973.547 1102.58 978.978 1102.58C983.927 1102.58 990.605 1098.81 996.164 1092.87L1001.21 1087.47L1004.45 1091.59C1011.39 1100.4 1017.58 1104.71 1023.29 1104.7C1028.85 1104.68 1036.29 1097.95 1041.18 1088.52L1043.26 1084.5L1048.24 1088.89C1055.05 1094.89 1060.13 1097.29 1066.03 1097.29C1070.44 1097.29 1071.45 1096.82 1074.97 1093.12C1078.6 1089.31 1083.37 1079.33 1083.37 1075.56C1083.37 1073.42 1083.99 1073.57 1092.23 1077.74C1109.14 1086.31 1119.3 1080.34 1121.13 1060.73L1121.75 1054.11L1126.1 1055.68C1128.49 1056.54 1133.79 1057.48 1137.86 1057.77C1151.22 1058.71 1155.8 1053.22 1155.15 1037.03L1154.79 1027.95L1164.84 1027.97C1173.41 1027.99 1175.45 1027.65 1178.68 1025.64C1180.76 1024.34 1183.02 1022.06 1183.7 1020.56C1185.56 1016.48 1185.2 1007.38 1182.9 1000.72L1180.87 994.798L1183.7 994.258C1185.25 993.962 1188.67 993.399 1191.29 993.008C1207.73 990.548 1212.23 980.652 1204.2 964.664L1200.17 956.66L1207.03 954.24C1211.29 952.736 1215.71 950.16 1218.72 947.439C1223.08 943.491 1223.56 942.601 1223.52 938.442C1223.47 932.666 1220.87 927.248 1215.04 920.758L1210.49 915.707L1214.3 913.658C1223.91 908.489 1230.42 900.793 1230.43 894.596C1230.44 890.003 1225.22 882.732 1218.42 877.862L1212.67 873.742L1218.41 868.135C1225.18 861.527 1228.8 854.317 1227.75 849.542C1226.68 844.646 1220.82 838.915 1213.34 835.436C1209.65 833.722 1206.45 832.2 1206.22 832.053C1205.99 831.904 1207 830.224 1208.45 828.317C1215.77 818.695 1218.08 808.651 1214.28 802.859C1211.93 799.27 1204.21 795.317 1196.4 793.704L1190.4 792.464L1193.04 786.706C1196.68 778.75 1197.48 770.082 1195 765.473C1192.29 760.443 1185.99 757.7 1175.8 757.11C1171.23 756.845 1167.59 756.2 1167.71 755.676C1173.74 730.212 1165.18 721.089 1140.4 726.56C1137.65 727.167 1137.65 727.162 1137.07 718.734C1136.02 703.466 1131.24 697.907 1119.87 698.75C1116.31 699.015 1110.89 700.396 1107.52 701.899L1101.51 704.577L1100.78 700.173C1097.25 679.006 1085.01 673.269 1068.56 685.082C1065.65 687.178 1062.91 688.865 1062.47 688.832C1062.04 688.8 1060.09 685.437 1058.14 681.362C1054.14 672.975 1048.24 667.731 1042.81 667.731C1037.9 667.731 1031.2 671.493 1025.77 677.298C1023.07 680.183 1020.69 682.543 1020.49 682.543C1020.28 682.543 1018.28 680.131 1016.03 677.182C1011.08 670.67 1003.77 665.613 999.34 665.62C997.547 665.623 994.316 666.695 992.157 668.002ZM989.919 704.821C962.858 707.967 933.105 718.802 910.91 733.596C865.761 763.69 836.718 811.212 830.545 865.098C827.623 890.606 830.423 916.196 838.948 941.881C856.788 995.634 899.366 1038.21 953.127 1056.05C991.473 1068.78 1029.26 1068.78 1067.6 1056.05C1141.08 1031.67 1191.27 962.09 1191.27 884.629C1191.27 838.124 1173.1 793.159 1140.72 759.573C1110.75 728.482 1072.78 709.72 1029.9 704.808C1019.12 703.573 1000.6 703.579 989.919 704.821ZM1045.93 708.404C1117.34 723.243 1171.51 777.558 1186.76 849.605C1189.29 861.565 1189.58 865.172 1189.58 884.629C1189.58 904.085 1189.29 907.692 1186.76 919.652C1174.89 975.756 1139.59 1021.46 1089.19 1046C1074.13 1053.33 1061.9 1057.52 1045.39 1061.02C1033.43 1063.55 1029.82 1063.84 1010.37 1063.84C990.909 1063.84 987.303 1063.55 975.343 1061.02C919.238 1049.15 873.53 1013.86 848.993 963.452C841.65 948.369 837.462 936.144 833.988 919.652C831.473 907.714 831.179 904.047 831.179 884.629C831.179 865.21 831.473 861.543 833.988 849.605C850.228 772.514 911.708 715.655 989.421 705.858C1003.18 704.123 1031.46 705.398 1045.93 708.404ZM1010.37 733.142C1010.37 733.717 990.354 768.119 965.895 809.588C941.438 851.057 921.797 885.31 922.251 885.704C922.706 886.099 942.94 896.928 967.218 909.769L1011.36 933.115L1055.07 909.133L1098.78 885.15L1055.78 809.023C1032.12 767.154 1012.23 732.716 1011.57 732.496C1010.91 732.275 1010.37 732.566 1010.37 733.142ZM1054.77 809.347C1077.56 849.702 1096.06 882.864 1095.88 883.04C1095.69 883.217 1076.73 873.669 1053.75 861.825L1011.95 840.288L1011.68 787.117C1011.51 755.175 1011.79 734.349 1012.37 734.96C1012.9 735.517 1031.98 768.992 1054.77 809.347ZM1010.34 788.612L1010.32 839.662L967.333 861.633C943.69 873.717 924.228 883.477 924.083 883.323C923.753 882.971 1009.44 737.561 1009.97 737.561C1010.19 737.561 1010.36 760.535 1010.34 788.612ZM1010.37 886.31V931.37L1000.58 926.154C995.197 923.286 975.617 912.924 957.069 903.127L923.347 885.316L930.089 881.892C933.798 880.01 953.02 870.116 972.805 859.907C992.591 849.698 1009.14 841.323 1009.57 841.297C1010.01 841.27 1010.37 861.526 1010.37 886.31ZM1069.97 871.391C1084.42 878.81 1095.84 885.228 1095.36 885.655C1094.09 886.773 1012.85 931.182 1012.07 931.182C1011.72 931.182 1011.42 910.91 1011.42 886.132V841.082L1027.56 849.492C1036.43 854.118 1055.52 863.972 1069.97 871.391ZM921.491 898.258C921.491 899.442 923.437 900.863 925.485 901.173C926.808 901.374 1008 947.635 1009.59 949.089C1010.03 949.498 1010.27 965.747 1010.12 985.198L1009.84 1020.56L967.569 961.096C944.321 928.388 925.122 901.806 924.902 902.025C924.514 902.413 1007.16 1019.18 1009.81 1021.99C1010.89 1023.13 1019.32 1011.84 1055.17 961.226C1079.39 927.034 1098.99 898.838 1098.72 898.569C1098.45 898.302 1097.63 898.565 1096.89 899.156C1096.14 899.747 1076.41 911.018 1053.02 924.203L1010.5 948.177L966.79 923.137C942.749 909.364 922.721 897.895 922.284 897.649C921.847 897.402 921.491 897.676 921.491 898.258ZM1092.59 906.583C1090.58 909.346 1071.93 935.652 1051.14 965.039C1030.35 994.426 1012.91 1018.92 1012.38 1019.48C1011.81 1020.08 1011.44 1006.11 1011.46 984.56L1011.5 948.64L1052.99 925.195C1075.81 912.299 1094.88 901.705 1095.36 901.653C1095.85 901.6 1094.6 903.819 1092.59 906.583Z" fill="black" stroke="black" stroke-width="0.5"/>
<path d="M2983.9 950.307L2988.01 943.161C2989.79 940.855 2995.33 931.688 3003.75 917.129C3006.98 916.805 3010.24 916.597 3013.53 916.508C3013.28 916.916 3013.03 917.34 3012.78 917.777C3010.81 921.181 3008.08 925.828 3006.73 928.104C3005.37 930.379 3001.25 937.414 2997.57 943.735C2993.9 950.056 2989.76 957.091 2988.39 959.366C2987.02 961.642 2983.02 968.469 2979.5 974.538C2975.98 980.606 2972.24 987.02 2971.19 988.79C2970.14 990.56 2967.95 994.284 2966.33 997.065C2964.7 999.847 2959.25 1009.16 2954.22 1017.75C2952.8 1020.17 2951.13 1023.01 2949.36 1026.04L2948.93 1026.78C2944.47 1034.38 2939.41 1043.03 2935.9 1049.02C2930.86 1057.61 2922.88 1071.17 2918.17 1079.15C2913.45 1087.13 2909.59 1093.81 2909.59 1094C2909.59 1094.18 2905.47 1101.23 2900.43 1109.66C2899.91 1110.53 2899.39 1111.4 2898.89 1112.24C2897.58 1109.71 2896.34 1107.14 2895.18 1104.53L2962.35 987.774L2962.68 987.206L2962.68 987.2L2966.74 980.15C2967.26 979.37 2967.82 978.471 2968.38 977.509C2970.22 974.358 2974.5 967.112 2977.88 961.407L2984.04 951.034L2983.9 950.307Z" fill="black"/>
<path d="M3104.17 1151.76H2930.16C2927.83 1149.75 2925.58 1147.66 2923.39 1145.5C2974.46 1145.55 3059.76 1145.21 3111.69 1144.74C3109.27 1147.18 3106.76 1149.52 3104.17 1151.76Z" fill="black"/>
<path d="M3030.66 917.136C3031.76 918.965 3032.97 920.936 3034.27 923.047C3036.13 926.081 3042.49 936.735 3048.41 946.723C3055.07 957.973 3058.39 963.211 3059.84 964.468L3063.3 970.483C3064.09 973.072 3067 977.996 3074.77 991.028L3084.85 1007.95L3139.69 1103.27C3138.68 1105.62 3137.6 1107.94 3136.47 1110.22C3136.46 1110.2 3136.45 1110.18 3136.44 1110.16C3133.01 1104.35 3128.67 1097.11 3126.8 1094.07C3124.93 1091.04 3119.14 1081.31 3113.93 1072.46C3108.72 1063.61 3100.31 1049.45 3095.23 1040.99C3076.45 1009.66 3067.91 995.355 3060.24 982.353C3055.92 975.021 3051.45 967.573 3050.31 965.803C3049.17 964.033 3044.84 956.792 3040.68 949.712C3036.52 942.632 3032.33 935.598 3031.36 934.08C3030.4 932.563 3027.03 927.01 3023.89 921.739C3022.75 919.831 3021.63 918.031 3020.64 916.504C3024.01 916.591 3027.35 916.803 3030.66 917.136Z" fill="black"/>
<path fill-rule="evenodd" clip-rule="evenodd" d="M3009.89 1041.1C3001.16 1045.07 2995.48 1053.63 2995.48 1062.81C2995.48 1079.02 3012.56 1090.78 3027.06 1084.54C3042.41 1077.94 3046.58 1059.9 3035.73 1047.02C3029.89 1040.09 3018.05 1037.38 3009.89 1041.1ZM3023.49 1059.74C3025.72 1062.74 3025.08 1066.29 3021.94 1068.36C3018.96 1070.31 3015.27 1069.24 3013.55 1065.92C3012.34 1063.57 3012.34 1062.97 3013.57 1060.59C3015.89 1056.09 3020.5 1055.7 3023.49 1059.74Z" fill="black"/>
<path fill-rule="evenodd" clip-rule="evenodd" d="M3004.45 1018.77C2983.18 1022.03 2960.22 1034.37 2940.52 1053.13C2935.11 1058.29 2930.67 1062.86 2930.67 1063.28C2930.67 1065 2949.34 1082.13 2956.33 1086.83C2964.26 1092.15 2975.6 1098.26 2983.57 1101.5C3005.36 1110.34 3031.12 1110.69 3052.74 1102.44C3059.76 1099.76 3073.18 1092.46 3080.27 1087.47C3093.69 1078.01 3106.23 1065.44 3105.28 1062.42C3104.44 1059.78 3088.52 1044.94 3081.24 1040.03C3061.6 1026.76 3048.89 1021.36 3031.13 1018.71C3019.98 1017.05 3015.6 1017.06 3004.45 1018.77ZM3034.28 1030.82C3040.87 1034.11 3047.56 1041.17 3051.08 1048.56C3053.66 1053.96 3053.93 1055.38 3053.93 1063.27C3053.92 1070.8 3053.58 1072.73 3051.46 1077.28C3048.15 1084.39 3045.01 1088.34 3039.5 1092.31C3027.98 1100.61 3013.39 1101.33 3000.02 1094.27C2985.14 1086.39 2978.12 1066.4 2984.51 1050.07C2987.95 1041.27 2997.19 1032.17 3005.23 1029.64C3007.32 1028.99 3013.59 1028.42 3019.16 1028.39C3028.4 1028.33 3029.73 1028.55 3034.28 1030.82ZM3062.68 1039.49C3071.18 1044.04 3080.28 1050.73 3087.83 1058L3093.34 1063.3L3086.47 1069.77C3082.69 1073.33 3076.25 1078.5 3072.15 1081.25C3064.53 1086.39 3054.28 1091.97 3053.65 1091.33C3053.45 1091.13 3054.76 1088.57 3056.56 1085.63C3064.6 1072.48 3064.77 1054.26 3056.99 1040.51C3055.49 1037.86 3054.55 1035.68 3054.9 1035.68C3055.26 1035.68 3058.76 1037.4 3062.68 1039.49ZM2979.85 1039.59C2975.08 1050.45 2974.32 1053.18 2973.94 1060.6C2973.48 1069.57 2974.98 1076.25 2979.23 1084.19C2980.81 1087.13 2981.39 1089.01 2980.71 1089.01C2977.6 1089.01 2948.21 1069.3 2944.44 1064.69C2943.2 1063.18 2943.37 1062.77 2946.39 1060.15C2954.71 1052.94 2976.48 1038.5 2979.11 1038.46C2979.8 1038.45 2980.13 1038.96 2979.85 1039.59Z" fill="black"/>
<path fill-rule="evenodd" clip-rule="evenodd" d="M2927.65 672.685C2927.54 672.978 2928.09 676.754 2928.88 681.078C2930.64 690.742 2943.83 761.567 2953.72 814.421L2961.06 853.643L2957.8 856.913C2954.13 860.602 2952.14 864.054 2949.99 870.516C2949.26 872.693 2948.49 874.427 2948.27 874.371C2948.05 874.314 2945.58 873.166 2942.78 871.819C2934.22 867.691 2928.96 866.971 2924.12 869.267C2921.14 870.683 2919.54 872.453 2917.23 876.889L2915.61 880.008L2911.9 872.008C2908.14 863.906 2899.56 844.881 2884.35 810.892C2873.96 787.686 2865.58 769.419 2865 768.719C2864.76 768.427 2864.18 768.187 2863.71 768.187C2862 768.187 2860.65 764.947 2884.88 819.179C2911.85 879.539 2913.91 884.526 2913.85 889.448C2913.84 891.053 2913.74 892.446 2913.65 892.544C2913.55 892.642 2912.06 892.253 2910.34 891.679C2906.34 890.341 2899.86 889.54 2895.34 889.823C2890.99 890.095 2888.78 891.24 2886.46 894.405C2883.65 898.242 2883.13 900.678 2883.18 909.614L2883.23 917.402L2877.65 917.106C2865.98 916.488 2859.51 919.099 2856.54 925.623C2855.25 928.468 2855.25 934.743 2856.54 939.421C2857.03 941.167 2857.37 942.644 2857.32 942.702C2857.18 942.84 2835.88 919.761 2796.06 876.331C2764.75 842.17 2746.03 821.855 2740.73 816.259C2738.29 813.691 2737.15 813.182 2736.89 814.54C2736.73 815.36 2745.36 824.958 2793.75 877.818C2834.05 921.843 2857.08 947.617 2856.57 948.127C2856.47 948.223 2854.49 948.601 2852.17 948.967C2844.32 950.202 2839.21 952.775 2836.69 956.754C2835.12 959.244 2834.61 961.072 2834.61 964.23C2834.6 967.949 2835.62 971.364 2838.47 977.172C2839.89 980.049 2840.94 982.505 2840.82 982.628C2840.7 982.751 2838.56 983.686 2836.07 984.704C2830.32 987.054 2827.4 988.801 2824.65 991.537C2821.69 994.473 2820.47 997.083 2820.5 1000.41C2820.55 1005.65 2822.66 1010.14 2828.07 1016.46C2829.72 1018.38 2831.2 1020.19 2831.37 1020.47C2831.57 1020.81 2830.9 1021.38 2829.43 1022.12C2825.97 1023.86 2822.39 1026.59 2819.25 1029.86C2813.69 1035.66 2812.92 1040 2816.29 1046.51C2817.26 1048.38 2817.88 1049.91 2817.66 1049.91C2817.44 1049.91 2816.54 1049.63 2815.67 1049.29C2814.79 1048.95 2798.45 1043.04 2779.35 1036.16C2760.25 1029.27 2714.81 1012.84 2678.37 999.643C2593.08 968.755 2587.89 966.911 2587.13 967.205C2586.22 967.556 2586.34 968.209 2587.44 968.931C2588.68 969.744 2600.36 974.076 2659.1 995.512C2720.61 1017.96 2779.26 1039.23 2802.21 1047.42C2811.99 1050.91 2820.79 1054.05 2821.76 1054.41C2822.73 1054.76 2824.88 1056.01 2826.53 1057.18L2829.54 1059.3L2825.2 1064.15C2814.84 1075.72 2813.91 1081.86 2821.36 1089.38L2824.04 1092.08L2822.23 1091.82C2819.81 1091.47 2787.57 1088.26 2734.47 1083.06C2710.48 1080.71 2678.44 1077.55 2663.26 1076.04C2634.15 1073.13 2632.44 1073.01 2631.98 1073.75C2631.24 1074.95 2633.12 1075.38 2644.49 1076.64C2675.19 1080.05 2766.34 1089.13 2804.75 1092.61C2813.84 1093.43 2822.98 1094.26 2825.08 1094.46C2828.1 1094.75 2829.61 1095.16 2832.4 1096.45C2834.86 1097.58 2835.84 1098.24 2835.69 1098.66C2835.56 1098.99 2834.6 1100.46 2833.55 1101.93C2828.41 1109.16 2825.82 1117.4 2827.4 1121.51C2829.71 1127.54 2837.7 1132.42 2848.26 1134.24C2849.13 1134.39 2849.85 1134.7 2849.85 1134.93C2849.85 1135.16 2849.17 1137.08 2848.34 1139.21C2846.62 1143.64 2845.76 1147.32 2845.39 1151.97C2845.24 1153.76 2844.9 1155.52 2844.63 1155.89C2844.07 1156.65 2845 1156.45 2735.32 1178.64C2694.8 1186.84 2659.68 1193.99 2657.29 1194.53C2652.55 1195.61 2651.55 1196.15 2652.56 1197.1C2653.08 1197.6 2653.97 1197.53 2658.47 1196.66C2678.44 1192.79 2724.7 1183.53 2780.54 1172.24L2845.67 1159.07L2847.57 1160.69C2853.26 1165.56 2858.27 1167.19 2867.57 1167.19C2871.58 1167.19 2871.93 1167.26 2871.66 1167.94C2871.49 1168.35 2871.07 1170.31 2870.71 1172.29C2869.93 1176.67 2870.2 1184.94 2871.24 1188.39C2872.21 1191.61 2875.15 1194.5 2878.49 1195.52C2882.54 1196.75 2894.03 1196.46 2899.01 1194.99C2899.6 1194.82 2899.72 1195.58 2899.93 1201.07C2900.29 1210.27 2901.79 1214.8 2905.61 1218.17C2909.92 1221.98 2915.45 1222.11 2925.53 1218.66C2929.02 1217.46 2932.07 1216.48 2932.3 1216.48C2932.53 1216.48 2932.82 1217.49 2932.95 1218.72C2933.42 1223.35 2936.77 1231.21 2939.67 1234.51C2941.57 1236.68 2944.86 1238.45 2947.68 1238.84C2951.95 1239.42 2957.71 1237.27 2964.75 1232.47C2967.05 1230.9 2968.97 1229.68 2969.01 1229.75C2969.06 1229.81 2969.52 1231.01 2970.04 1232.4C2971.44 1236.16 2975.11 1241.4 2978.89 1245.03C2981.66 1247.68 2982.61 1248.33 2984.38 1248.75C2990.44 1250.21 2997.3 1246.75 3004.74 1238.49L3007.31 1235.64L3010.06 1239.18C3015.43 1246.07 3021.27 1250.35 3025.93 1250.8C3028.32 1251.03 3032.13 1250.04 3034.4 1248.6C3037.36 1246.71 3041.05 1242.13 3046.17 1233.96C3046.22 1233.88 3048.48 1235.45 3051.17 1237.45C3057.83 1242.4 3061.47 1244.17 3065.52 1244.43C3068.21 1244.61 3068.97 1244.49 3070.92 1243.59C3074.49 1241.95 3076.85 1239.24 3079.72 1233.48C3081.1 1230.71 3082.57 1227.38 3082.98 1226.08C3083.39 1224.77 3083.91 1223.71 3084.14 1223.71C3084.37 1223.71 3086.63 1224.68 3089.17 1225.86C3095.36 1228.75 3099.64 1229.81 3104.11 1229.57C3106.85 1229.43 3107.96 1229.16 3109.44 1228.29C3113.64 1225.82 3117.25 1218.03 3118.35 1209.07L3118.84 1205.1L3121.21 1205.94C3126.3 1207.74 3136.95 1208.62 3140.75 1207.56C3144.02 1206.65 3147.32 1202.48 3148.6 1197.64C3148.99 1196.18 3149.19 1192.95 3149.19 1187.98L3149.2 1180.5L3155.75 1180.7C3163.02 1180.93 3166.37 1180.48 3169.56 1178.86C3172.14 1177.54 3174.77 1174.49 3175.9 1171.5C3177.27 1167.85 3176.9 1161.81 3174.9 1155.31C3174.07 1152.62 3173.49 1150.28 3173.6 1150.1C3173.71 1149.92 3174.26 1149.77 3174.82 1149.77C3176.59 1149.77 3185.73 1147.76 3188.21 1146.82C3189.52 1146.33 3191.41 1145.3 3192.4 1144.55C3196.95 1141.09 3196.09 1141.35 3200.94 1141.98C3224.99 1145.11 3381.94 1162.56 3392.13 1163.24C3395.56 1163.46 3396.04 1163.41 3396.04 1162.81C3396.04 1161.15 3401.14 1161.8 3293.58 1149.78C3245.49 1144.4 3204.24 1139.77 3201.91 1139.47L3197.68 1138.94L3197.41 1133.41C3197.12 1127.3 3196.91 1126.53 3193.71 1120.13C3192.51 1117.75 3191.54 1115.63 3191.54 1115.43C3191.54 1115.22 3193.65 1114.23 3196.23 1113.21C3203.73 1110.26 3208.77 1106.49 3210.88 1102.24C3211.45 1101.08 3211.65 1099.71 3211.64 1096.83C3211.64 1093.14 3211.56 1092.8 3209.86 1089.39C3208.72 1087.1 3206.78 1084.3 3204.45 1081.58C3201.25 1077.83 3200.92 1077.31 3201.66 1077.04C3202.9 1076.58 3251.86 1066.1 3326.39 1050.33C3413.47 1031.92 3416.47 1031.26 3417.19 1030.55C3417.68 1030.08 3417.7 1029.84 3417.3 1029.43C3416.9 1029.03 3416.14 1029.03 3413.84 1029.43C3405.57 1030.85 3231.43 1067.26 3212.54 1071.52L3208.78 1072.37L3211.51 1069.75C3218.19 1063.33 3219.67 1058.48 3216.74 1052.61C3214.52 1048.16 3211.28 1044.84 3203.02 1038.6C3202.93 1038.53 3204.52 1036.7 3206.54 1034.53C3217 1023.29 3218.44 1015.62 3211.38 1008.86C3208.46 1006.07 3206.3 1004.64 3200.96 1001.95C3198.57 1000.75 3196.62 999.636 3196.62 999.479C3196.62 999.322 3197.55 997.842 3198.68 996.19C3202.73 990.29 3205.51 983.43 3205.51 979.314C3205.51 976.308 3204.42 974.526 3200.01 970.314L3196.14 966.62L3196.99 965.426C3199.3 962.162 3217.57 945.668 3289.55 881.858C3337.1 839.708 3355.09 823.646 3357.03 821.601C3358.41 820.144 3358.51 819.179 3357.28 819.179C3356.31 819.179 3342.24 831.546 3240.22 922.032C3214.01 945.275 3192.29 964.503 3191.95 964.763C3191.48 965.117 3190.29 965.001 3187.19 964.296C3184.92 963.779 3182.94 963.241 3182.8 963.099C3182.66 962.957 3183.31 960.777 3184.25 958.254C3186.29 952.779 3186.88 949.823 3186.88 945.077C3186.88 940.824 3186.24 939.071 3183.79 936.528C3180.14 932.747 3175.17 931.084 3166.24 930.65C3163.15 930.501 3160.63 930.264 3160.63 930.125C3160.64 928.841 3162 925.789 3164.13 922.242C3169.48 913.338 3176.89 902.482 3212.01 852.11C3238.38 814.301 3240.65 810.937 3240.65 809.784C3240.65 808.366 3239.45 808.921 3237.69 811.147C3234.82 814.792 3221.56 833.549 3197.61 867.833C3185.04 885.828 3172 904.434 3168.64 909.18L3162.53 917.808L3162.21 914.917C3161.63 909.755 3160.81 907.691 3158.34 905.208C3157.01 903.881 3155.43 902.752 3154.45 902.442C3150.88 901.312 3139.05 901.482 3133.7 902.739C3132.85 902.94 3132.81 902.75 3132.55 897.281C3132.1 887.904 3130.45 883.054 3126.52 879.583C3122.12 875.702 3117.72 875.598 3107.25 879.129C3099.79 881.642 3100.09 881.66 3099.23 878.668C3099 877.85 3098.48 875.605 3098.08 873.679C3097.38 870.327 3097.38 870.044 3098.13 867.092C3099.22 862.831 3108.98 829.163 3118.86 795.595C3127.63 765.791 3135.75 737.795 3137.49 731.347C3138.29 728.351 3138.42 727.341 3138.03 727.016C3137.34 726.44 3136.64 726.952 3136.06 728.465C3135.09 730.963 3132.81 738.655 3115.11 798.995C3095.37 866.306 3095.49 865.92 3095.16 865.92C3095.04 865.92 3093.97 864.858 3092.79 863.559C3090.4 860.944 3088.44 859.766 3085.34 859.1C3081.11 858.188 3074.61 860.542 3067.09 865.712C3065.17 867.032 3063.51 868.031 3063.41 867.931C3063.31 867.831 3062.78 866.588 3062.22 865.168C3060.81 861.547 3058.51 858.211 3054.57 854.087C3050.17 849.472 3048.85 848.794 3044.63 848.988C3041.89 849.113 3040.87 849.393 3038.03 850.798C3035.24 852.176 3033.84 853.285 3029.83 857.295C3027.18 859.955 3024.87 861.98 3024.71 861.795C3024.55 861.61 3023.36 860.12 3022.07 858.484C3015.13 849.708 3008.71 845.902 3003.07 847.22C2997.82 848.447 2993.96 851.844 2988.97 859.651L2986.11 864.141L2980.96 860.243C2975.17 855.861 2970.79 853.638 2967.08 853.199C2965.7 853.035 2964.36 852.69 2964.1 852.431C2963.53 851.854 2964.28 855.734 2949.15 774.774C2933.15 689.176 2930.36 674.786 2929.38 672.898C2928.93 672.035 2927.93 671.913 2927.65 672.685ZM3009.86 850.643C3012.3 851.756 3018.79 858.31 3021.94 862.852L3024.38 866.369L3028.78 862.11C3034.41 856.675 3039.05 852.975 3041.1 852.294C3043.64 851.45 3047.09 851.623 3049.18 852.698C3052.92 854.623 3055.45 857.942 3059.8 866.664C3061.23 869.527 3062.5 871.869 3062.63 871.869C3062.75 871.869 3064.8 870.559 3067.17 868.958C3075.33 863.466 3079.34 861.671 3083.44 861.671C3087.18 861.671 3090.16 863.75 3092.58 868.045C3094.01 870.579 3096.1 876.654 3096.7 880.01C3097.26 883.096 3098.03 884.192 3099.66 884.192C3100.29 884.192 3103.64 883.195 3107.11 881.976C3113.07 879.882 3113.65 879.759 3117.66 879.745C3121.8 879.731 3121.95 879.765 3123.79 881.121C3127.98 884.21 3129.19 887.525 3129.7 897.316C3130.19 906.574 3129.87 906.234 3136.95 904.971C3139.84 904.455 3144.02 904.021 3146.23 904.007C3149.69 903.984 3150.58 904.133 3152.6 905.071C3155.37 906.358 3157.86 908.447 3158.8 910.271C3159.37 911.376 3159.43 912.571 3159.19 918.017C3159.03 921.559 3158.74 925.945 3158.53 927.763C3158.33 929.582 3158.25 931.299 3158.36 931.579C3158.66 932.377 3161.26 932.964 3166.77 933.484C3175.47 934.305 3179.04 935.442 3181.64 938.227C3185.5 942.338 3185.54 944.894 3181.93 956.217C3180.89 959.489 3180 962.91 3179.96 963.82L3179.89 965.473L3186.54 967.305C3196 969.915 3199.93 972.092 3201.66 975.695C3203.47 979.442 3202.38 984.78 3198.51 991.146C3194.06 998.464 3193.14 1000.2 3193.39 1000.84C3193.53 1001.21 3195.61 1002.43 3198.01 1003.55C3203.94 1006.33 3207.61 1008.74 3210.08 1011.45C3215.1 1016.96 3213.96 1022.32 3205.89 1031.04C3200.7 1036.66 3199.41 1038.49 3199.78 1039.69C3199.94 1040.17 3200.36 1040.57 3200.73 1040.57C3202.57 1040.57 3212.97 1050.67 3214.41 1053.85C3215.48 1056.21 3215.48 1059.77 3214.41 1062.14C3213.19 1064.83 3209.79 1067.97 3203.5 1072.21C3199.84 1074.67 3197.89 1076.25 3197.89 1076.74C3197.89 1077.15 3198.8 1078.69 3199.92 1080.17C3201.04 1081.64 3202.92 1084.11 3204.1 1085.66C3208.18 1091.02 3209.92 1096.17 3208.9 1099.82C3207.71 1104.1 3203.52 1107.28 3194.25 1110.91C3189.21 1112.89 3188.15 1113.46 3188.15 1114.16C3188.15 1114.63 3189.37 1117.63 3190.87 1120.82C3194.11 1127.75 3195.02 1130.72 3195 1134.32C3194.98 1137.63 3193.83 1139.98 3191.23 1141.96C3188.23 1144.26 3183.7 1145.63 3173.83 1147.23C3171.8 1147.56 3170.64 1147.96 3170.48 1148.38C3170.35 1148.73 3171.06 1151.91 3172.07 1155.45C3173.64 1160.93 3173.91 1162.48 3173.94 1165.92C3173.97 1171.03 3172.93 1173.48 3169.83 1175.56C3166.72 1177.64 3164.14 1178.04 3154.62 1177.92L3146.29 1177.81L3146.35 1186.63C3146.4 1194.57 3146.32 1195.72 3145.51 1198.12C3142.82 1206.16 3137.45 1207.55 3123.82 1203.71C3118.38 1202.17 3117.12 1202.12 3116.63 1203.43C3116.43 1203.96 3115.93 1206.59 3115.53 1209.27C3114.06 1218.99 3111.81 1223.79 3107.72 1225.94C3103.86 1227.96 3099.56 1227.4 3091.82 1223.87C3089.5 1222.8 3086.57 1221.56 3085.32 1221.1C3083.19 1220.32 3082.99 1220.31 3082.27 1220.97C3081.84 1221.36 3080.98 1223.24 3080.37 1225.14C3078.71 1230.25 3076.25 1235.11 3074.07 1237.59C3071.88 1240.08 3068.46 1241.98 3066.23 1241.97C3062.91 1241.95 3055.85 1238.02 3050.63 1233.3C3048.65 1231.51 3047.19 1230.51 3046.54 1230.51C3045.37 1230.51 3044.19 1231.9 3040.61 1237.49C3036.1 1244.54 3031.47 1248.04 3026.56 1248.11C3024.22 1248.14 3023.74 1247.98 3021.63 1246.53C3018.45 1244.33 3011.66 1237.22 3009.88 1234.23C3009.08 1232.88 3008.28 1231.78 3008.11 1231.78C3007.94 1231.78 3005.62 1233.86 3002.95 1236.4C2994.24 1244.69 2990.82 1246.69 2986.35 1246.08C2981.23 1245.37 2977.76 1241.65 2972.64 1231.36C2971.19 1228.44 2969.93 1225.98 2969.86 1225.89C2969.78 1225.81 2967.94 1226.97 2965.78 1228.47C2953.94 1236.68 2947.85 1238.19 2943.1 1234.11C2940.24 1231.65 2936.46 1223.15 2935.57 1217.17C2935.4 1216.02 2934.89 1214.72 2934.43 1214.26C2933.42 1213.25 2932.12 1213.43 2926.91 1215.31C2922.15 1217.03 2916.45 1218.56 2914.71 1218.59C2911.68 1218.63 2909.42 1217.69 2907.18 1215.44C2903.96 1212.21 2903.21 1209.82 2902.75 1201.36C2902.55 1197.6 2902.19 1194.01 2901.95 1193.39C2901.41 1191.97 2900.35 1191.94 2893.31 1193.16C2886.18 1194.4 2882.54 1194.17 2878.75 1192.23C2876.83 1191.24 2875.46 1190.16 2874.47 1188.86L2873.02 1186.95L2873.28 1179.73C2873.43 1175.76 2873.67 1170.96 2873.82 1169.07L2874.09 1165.63L2871.6 1165.15C2870.23 1164.88 2867.02 1164.45 2864.45 1164.2C2855.55 1163.32 2851.68 1161.67 2849.25 1157.71C2847.48 1154.82 2847.34 1151.92 2848.76 1147.22C2852.87 1133.54 2852.98 1133.1 2852.24 1132.56C2851.86 1132.28 2848.93 1131.35 2845.72 1130.49C2838.86 1128.64 2835.01 1126.95 2832.76 1124.78C2830.63 1122.75 2829.95 1121.07 2829.95 1117.9C2829.95 1114.27 2831.09 1111.39 2835.28 1104.45C2837.69 1100.44 2838.86 1098.1 2838.77 1097.44C2838.65 1096.63 2837.58 1095.92 2833.11 1093.68C2825.08 1089.66 2822.24 1087.46 2820.38 1083.82C2817.87 1078.88 2819.59 1074.28 2826.93 1066.33C2829.49 1063.56 2831.86 1060.71 2832.21 1059.98C2832.94 1058.47 2832.5 1057.14 2831.27 1057.14C2830.29 1057.14 2825.06 1052.67 2821.53 1048.82C2818.19 1045.19 2817.07 1042.87 2817.09 1039.66C2817.12 1035.11 2820.32 1031.36 2829.14 1025.5C2832.71 1023.13 2834.6 1021.62 2834.6 1021.13C2834.6 1020.72 2832.88 1018.18 2830.78 1015.49C2824.01 1006.85 2821.9 1000.98 2824 996.627C2825.84 992.809 2829.71 990.235 2839.05 986.616C2843.97 984.712 2844.13 984.608 2844.04 983.438C2843.99 982.773 2842.9 980.009 2841.62 977.297C2837.62 968.856 2836.59 964.76 2837.56 961.104C2838.95 955.866 2843.16 953.486 2854.9 951.294C2858.49 950.624 2861.6 949.9 2861.82 949.687C2862.05 949.452 2861.48 946.715 2860.37 942.772C2858.74 936.97 2858.54 935.75 2858.53 931.784C2858.53 927.667 2858.62 927.167 2859.7 925.315C2861.07 922.986 2863.49 921.389 2867.09 920.446C2868.94 919.959 2871.44 919.845 2877.85 919.955L2886.19 920.099L2885.97 912.45C2885.79 906.427 2885.89 904.137 2886.41 901.674C2888.45 892.131 2894.34 890.035 2908.01 893.992C2912.26 895.224 2915.22 895.57 2915.64 894.886C2915.76 894.69 2916.34 891.679 2916.92 888.193C2918.41 879.218 2919.68 876.084 2923.03 873.043C2926.82 869.602 2931.69 869.965 2941.6 874.427C2947.65 877.15 2949.23 877.64 2950.09 877.063C2950.38 876.869 2951.3 874.712 2952.14 872.271C2954.13 866.494 2956.2 862.558 2958.62 859.981C2960.64 857.822 2964.43 855.726 2966.28 855.737C2969.14 855.752 2976.6 860.002 2981.46 864.374C2983.12 865.87 2984.9 867.205 2985.42 867.339C2986.63 867.657 2988.52 865.689 2991.91 860.583C2994.97 855.961 2999.03 851.751 3001.5 850.626C3003.92 849.526 3007.42 849.533 3009.86 850.643ZM2997.74 906.116C2975.38 909.165 2952.11 918.272 2933.47 931.266C2920.14 940.557 2906.63 954.059 2897.54 967.173C2886.78 982.694 2877.76 1003.18 2874.42 1019.66C2872.44 1029.44 2872.1 1034 2872.12 1050.76C2872.13 1071.72 2872.99 1077.71 2878.27 1093.98C2881.13 1102.81 2883.18 1107.92 2886.53 1114.63C2893.49 1128.55 2902.01 1140.14 2914.39 1152.55C2928.55 1166.74 2942.14 1176.03 2959.33 1183.28C2969.93 1187.75 2985.14 1192.06 2994.65 1193.3C3006.41 1194.82 3029.09 1194.53 3040.19 1192.7C3052.53 1190.68 3068.04 1185.63 3079.24 1179.99C3107.07 1165.97 3130.7 1142.67 3143.93 1116.2C3150.49 1103.07 3155.89 1086.82 3158.38 1072.65C3159.02 1069.02 3159.13 1065.7 3159.14 1049.91C3159.14 1029.29 3159.13 1029.16 3155.9 1016.18C3144.16 969.107 3110.98 931.567 3065.78 914.229C3052.57 909.158 3040.21 906.718 3023.44 905.868C3012.39 905.309 3002.99 905.399 2997.74 906.116ZM3028.31 908.849C3054.69 910.607 3081.98 921.553 3104.1 939.249C3113.81 947.01 3126.13 960.456 3133.1 970.877C3144.91 988.56 3153.44 1010.86 3155.79 1030.24C3156.15 1033.23 3156.55 1040.08 3156.69 1045.45C3157.15 1064.14 3155.35 1077.93 3150.47 1092.98C3136.51 1136.05 3103.51 1169.95 3061.45 1184.42C3046.14 1189.69 3034.85 1191.41 3015.61 1191.41C3000.74 1191.41 2990.53 1190.31 2980.04 1187.56C2924.2 1172.94 2880.86 1122.96 2875.23 1066.7C2874.62 1060.68 2874.62 1039.67 2875.23 1033.34C2876.45 1020.46 2879.71 1007.67 2884.87 995.555C2901.95 955.381 2935.8 925.235 2976.98 913.502C2982.24 912.003 2995.56 909.15 2999.31 908.719C3002.46 908.358 3022.27 908.447 3028.31 908.849ZM3003.12 914.404C2987.62 915.505 2969.76 920.825 2954.22 928.972C2940.58 936.12 2930.64 943.694 2918.64 956.085C2908.55 966.499 2902.58 974.775 2896.15 987.237C2885.96 1007.02 2881.08 1027.1 2881.08 1049.28C2881.08 1071.52 2885.88 1091.5 2896.08 1111.62C2904.56 1128.34 2914.4 1140.5 2930.29 1153.84C2952.16 1172.22 2975.05 1181.81 3002.7 1184.19C3009.04 1184.74 3025.24 1184.72 3031.7 1184.17C3052.95 1182.34 3076.25 1173.34 3094.74 1159.8C3124.48 1138.02 3144.7 1105.2 3150.12 1069.89C3150.88 1064.95 3150.89 1033.69 3150.13 1028.89C3148.33 1017.42 3144.29 1004.01 3139.51 993.611C3132.62 978.612 3124.03 966.399 3111.53 953.857C3103.79 946.084 3098.41 941.639 3089.71 935.818C3074.39 925.57 3055.06 917.939 3038.1 915.45C3029.01 914.116 3013.64 913.657 3003.12 914.404ZM3030.69 917.327C3056.09 920.161 3079.26 929.806 3099.32 945.893C3105.1 950.534 3115.12 960.609 3119.72 966.415C3157.15 1013.66 3158.5 1080 3123 1128.31C3119.64 1132.89 3109.6 1144.68 3108.54 1145.3C3108.13 1145.54 3106.1 1147.24 3104.04 1149.08C3086.97 1164.31 3065.53 1175.1 3043.25 1179.69C3033.23 1181.76 3028.25 1182.23 3016.46 1182.23C3004.62 1182.23 2999.06 1181.71 2989.25 1179.69C2971.18 1175.97 2952.67 1167.74 2937.92 1156.85C2933.76 1153.79 2926.91 1148.04 2925.42 1146.37C2924.96 1145.85 2924.25 1145.3 2923.84 1145.15C2922.89 1144.79 2914.72 1135.23 2910.09 1129.05C2904.62 1121.75 2895.91 1107.13 2895.37 1104.35C2895.3 1103.97 2894.65 1102.38 2893.94 1100.81C2892.19 1096.98 2889.07 1087.4 2887.54 1081.15C2880.36 1051.85 2883.48 1020.27 2896.25 993.055C2902.86 978.956 2911.34 966.923 2922.66 955.56C2939.97 938.172 2959.88 926.777 2983.86 920.529C2991.28 918.593 2993.31 918.214 3000.99 917.334C3010.11 916.287 3021.36 916.285 3030.69 917.327Z" fill="black"/>
</svg>
