<svg width="4096" height="1749" viewBox="0 0 4096 1749" fill="none" xmlns="http://www.w3.org/2000/svg">
<path fill-rule="evenodd" clip-rule="evenodd" d="M991.157 667.002C986.962 669.542 982.976 674.304 979.613 680.799L977.531 684.816L972.552 680.426C965.741 674.421 960.66 672.021 954.755 672.021C950.348 672.021 949.34 672.492 945.818 676.195C942.19 680.008 937.419 689.981 937.419 693.751C937.419 695.9 936.798 695.748 928.563 691.575C911.644 683.001 901.491 688.976 899.66 708.584L899.042 715.205L894.689 713.64C892.295 712.78 887.004 711.838 882.93 711.549C869.571 710.6 864.993 716.092 865.64 732.288L866.002 741.368L855.95 741.346C847.375 741.326 845.343 741.668 842.113 743.677C840.031 744.972 837.769 747.256 837.088 748.752C835.227 752.836 835.593 761.939 837.884 768.6L839.92 774.517L837.091 775.057C835.534 775.353 832.118 775.916 829.499 776.308C813.064 778.768 808.558 788.663 816.593 804.651L820.616 812.655L813.762 815.075C809.504 816.579 805.075 819.155 802.069 821.876C797.709 825.824 797.234 826.715 797.27 830.873C797.32 836.758 800.011 842.253 805.907 848.513L810.58 853.474L805.891 847.516C800.427 840.571 797.223 833.006 798.16 829.267C799.63 823.412 804.457 819.817 818.069 814.44L821.981 812.894L817.805 804.825C814.639 798.707 813.629 795.524 813.629 791.665C813.629 782.891 818.66 779.09 833.388 776.737C837.326 776.108 840.682 775.459 840.846 775.296C841.01 775.132 840.19 772.227 839.025 768.84C835.96 759.932 836.172 751.35 839.557 747.327C842.87 743.391 850.013 741.521 859.841 742.019L866.977 742.381L866.663 733.678C866.292 723.356 867.653 718.541 871.972 714.906C875.782 711.701 882.012 711.354 890.899 713.854C900.073 716.433 899.73 716.562 900.53 710.236C901.704 700.936 903.691 695.332 906.977 692.046C911.585 687.438 918.714 687.674 928.905 692.772C933.108 694.875 936.883 696.184 937.294 695.682C937.706 695.179 938.97 691.92 940.103 688.437C942.941 679.717 949.263 673.079 954.73 673.079C960.11 673.079 964.394 675.078 971.551 680.929L977.646 685.91L979.487 682.536C982.974 676.145 989.393 668.751 992.91 667.074C995.254 665.956 997.673 665.625 1000.13 666.088C1004.36 666.881 1012.35 673.455 1015.73 678.929C1016.98 680.949 1018.49 682.601 1019.09 682.601C1019.69 682.601 1022.66 680.076 1025.7 676.989C1038.66 663.814 1048.69 665.3 1056.84 681.605C1061.38 690.695 1060.93 690.404 1065.26 687.001C1075.51 678.93 1085.29 676.844 1090.42 681.631C1093.96 684.937 1096.85 690.636 1098.24 697.058C1100.04 705.341 1099.66 705.105 1106.41 702.094C1113.76 698.815 1122.36 697.688 1126.61 699.449C1131.54 701.49 1134.37 707.823 1135.02 718.257L1135.58 727.265L1139.4 726.572C1153.28 724.046 1161.21 724.975 1164.39 729.501C1167.35 733.708 1168.2 739.181 1167.02 746.301C1165.08 757.897 1164.51 756.826 1172.83 757.14C1182.07 757.488 1188.44 759.387 1191.57 762.728C1195.13 766.514 1194.88 777.136 1191.05 785.537L1188.25 791.662L1190.93 792.679C1192.4 793.238 1194.27 793.695 1195.08 793.695C1198.41 793.695 1208.07 798.128 1210.65 800.84C1216.13 806.595 1215.42 813.421 1208.26 824.148C1205.94 827.622 1204.04 830.727 1204.04 831.047C1204.04 831.368 1206.76 832.873 1210.08 834.395C1228.48 842.817 1230.47 851.495 1217.22 865.543L1210.38 872.787L1216.14 877.134C1232.65 889.597 1232.15 899.965 1214.52 910.673L1208.25 914.483L1212.64 919.423C1217.34 924.715 1222 933.535 1222.02 937.167C1222.05 942.948 1213.89 949.59 1201.17 954.146L1197.78 955.36L1201.97 963.459C1210.86 980.638 1206.59 988.353 1186.4 991.578C1182.46 992.208 1179.11 992.856 1178.94 993.019C1178.78 993.183 1179.6 996.088 1180.76 999.475C1183.83 1008.38 1183.62 1016.97 1180.23 1020.99C1176.92 1024.92 1169.78 1026.79 1159.96 1026.3L1152.83 1025.93L1153.13 1034.97C1153.74 1053.7 1146.6 1059.44 1128.89 1054.46C1119.72 1051.88 1120.06 1051.75 1119.26 1058.08C1118.09 1067.38 1116.1 1072.98 1112.81 1076.27C1108.2 1080.88 1101.08 1080.64 1090.88 1075.54C1086.68 1073.44 1082.91 1072.13 1082.5 1072.63C1082.08 1073.14 1080.82 1076.4 1079.69 1079.88C1076.85 1088.6 1070.53 1095.24 1065.06 1095.24C1059.68 1095.24 1055.4 1093.24 1048.24 1087.39L1042.14 1082.41L1040.3 1085.78C1036.82 1092.17 1030.4 1099.56 1026.88 1101.24C1024.54 1102.36 1022.12 1102.69 1019.65 1102.23C1015.42 1101.43 1007.44 1094.86 1004.06 1089.39C1002.81 1087.37 1001.3 1085.71 1000.7 1085.71C1000.1 1085.71 997.128 1088.24 994.09 1091.33C981.125 1104.5 971.096 1103.01 962.949 1086.71C958.406 1077.62 958.859 1077.91 954.534 1081.31C944.275 1089.38 934.501 1091.47 929.373 1086.68C925.832 1083.38 922.94 1077.68 921.545 1071.26C919.748 1062.97 920.131 1063.21 913.382 1066.22C906.034 1069.5 897.43 1070.63 893.179 1068.87C888.25 1066.83 885.418 1060.49 884.767 1050.06L884.205 1041.05L880.393 1041.74C866.504 1044.27 858.58 1043.34 855.398 1038.81C852.441 1034.61 851.586 1029.13 852.774 1022.01C854.709 1010.42 855.284 1011.49 846.957 1011.17C837.719 1010.83 831.349 1008.93 828.215 1005.59C824.661 1001.8 824.906 991.179 828.74 982.778L831.536 976.653L828.861 975.636C827.391 975.077 825.522 974.62 824.709 974.62C821.377 974.62 811.718 970.188 809.139 967.475C803.664 961.72 804.365 954.894 811.527 944.167C813.847 940.693 815.745 937.588 815.745 937.268C815.745 936.947 813.027 935.442 809.706 933.92C791.309 925.498 789.322 916.82 802.573 902.772L809.406 895.528L803.647 891.181C787.272 878.818 787.557 869.085 804.621 857.944C808.121 855.659 810.113 854.075 809.049 854.425C807.984 854.774 804.521 856.78 801.352 858.883C794.98 863.113 790.352 869.814 790.352 874.811C790.352 879.307 795.644 886.637 802.367 891.453L808.12 895.573L802.377 901.18C795.608 907.788 791.986 914.998 793.035 919.773C794.11 924.669 799.969 930.4 807.452 933.879C811.14 935.593 814.302 937.074 814.477 937.17C814.653 937.267 812.865 940.335 810.504 943.988C803.832 954.311 802.811 960.709 806.843 966.94C808.875 970.084 816.952 974.075 824.389 975.611L830.388 976.851L827.752 982.609C824.109 990.565 823.308 999.233 825.79 1003.84C828.499 1008.87 834.797 1011.61 844.986 1012.21C849.561 1012.47 853.204 1013.12 853.08 1013.64C847.048 1039.1 855.606 1048.23 880.392 1042.76C883.142 1042.15 883.144 1042.15 883.722 1050.58C884.769 1065.85 889.551 1071.41 900.917 1070.56C904.481 1070.3 909.899 1068.92 913.272 1067.42L919.278 1064.74L920.011 1069.14C923.535 1090.31 935.781 1096.05 952.224 1084.23C955.14 1082.14 957.883 1080.45 958.317 1080.48C958.753 1080.52 960.7 1083.88 962.646 1087.95C966.648 1096.34 972.547 1101.58 977.978 1101.58C982.927 1101.58 989.605 1097.81 995.164 1091.87L1000.21 1086.47L1003.45 1090.59C1010.39 1099.4 1016.58 1103.71 1022.29 1103.7C1027.85 1103.68 1035.29 1096.95 1040.18 1087.52L1042.26 1083.5L1047.24 1087.89C1054.05 1093.89 1059.13 1096.29 1065.03 1096.29C1069.44 1096.29 1070.45 1095.82 1073.97 1092.12C1077.6 1088.31 1082.37 1078.33 1082.37 1074.56C1082.37 1072.42 1082.99 1072.57 1091.23 1076.74C1108.14 1085.31 1118.3 1079.34 1120.13 1059.73L1120.75 1053.11L1125.1 1054.68C1127.49 1055.54 1132.79 1056.48 1136.86 1056.77C1150.22 1057.71 1154.8 1052.22 1154.15 1036.03L1153.79 1026.95L1163.84 1026.97C1172.41 1026.99 1174.45 1026.65 1177.68 1024.64C1179.76 1023.34 1182.02 1021.06 1182.7 1019.56C1184.56 1015.48 1184.2 1006.38 1181.9 999.715L1179.87 993.798L1182.7 993.258C1184.25 992.962 1187.67 992.399 1190.29 992.008C1206.73 989.548 1211.23 979.652 1203.2 963.664L1199.17 955.66L1206.03 953.24C1210.29 951.736 1214.71 949.16 1217.72 946.439C1222.08 942.491 1222.56 941.601 1222.52 937.442C1222.47 931.666 1219.87 926.248 1214.04 919.758L1209.49 914.707L1213.3 912.658C1222.91 907.489 1229.42 899.793 1229.43 893.596C1229.44 889.003 1224.22 881.732 1217.42 876.862L1211.67 872.742L1217.41 867.135C1224.18 860.527 1227.8 853.317 1226.75 848.542C1225.68 843.646 1219.82 837.915 1212.34 834.436C1208.65 832.722 1205.45 831.2 1205.22 831.053C1204.99 830.904 1206 829.224 1207.45 827.317C1214.77 817.695 1217.08 807.651 1213.28 801.859C1210.93 798.27 1203.21 794.317 1195.4 792.704L1189.4 791.464L1192.04 785.706C1195.68 777.75 1196.48 769.082 1194 764.473C1191.29 759.443 1184.99 756.7 1174.8 756.11C1170.23 755.845 1166.59 755.2 1166.71 754.676C1172.74 729.212 1164.18 720.089 1139.4 725.56C1136.65 726.167 1136.65 726.162 1136.07 717.734C1135.02 702.466 1130.24 696.907 1118.87 697.75C1115.31 698.015 1109.89 699.396 1106.52 700.899L1100.51 703.577L1099.78 699.173C1096.25 678.006 1084.01 672.269 1067.56 684.082C1064.65 686.178 1061.91 687.865 1061.47 687.832C1061.04 687.8 1059.09 684.437 1057.14 680.362C1053.14 671.975 1047.24 666.731 1041.81 666.731C1036.9 666.731 1030.2 670.493 1024.77 676.298C1022.07 679.183 1019.69 681.543 1019.49 681.543C1019.28 681.543 1017.28 679.131 1015.03 676.182C1010.08 669.67 1002.77 664.613 998.34 664.62C996.547 664.623 993.316 665.695 991.157 667.002ZM988.919 703.821C961.858 706.967 932.105 717.802 909.91 732.596C864.761 762.69 835.718 810.212 829.545 864.098C826.623 889.606 829.423 915.196 837.948 940.881C855.788 994.634 898.366 1037.21 952.127 1055.05C990.473 1067.78 1028.26 1067.78 1066.6 1055.05C1140.08 1030.67 1190.27 961.09 1190.27 883.629C1190.27 837.124 1172.1 792.159 1139.72 758.573C1109.75 727.482 1071.78 708.72 1028.9 703.808C1018.12 702.573 999.603 702.579 988.919 703.821ZM1044.93 707.404C1116.34 722.243 1170.51 776.558 1185.76 848.605C1188.29 860.565 1188.58 864.172 1188.58 883.629C1188.58 903.085 1188.29 906.692 1185.76 918.652C1173.89 974.756 1138.59 1020.46 1088.19 1045C1073.13 1052.33 1060.9 1056.52 1044.39 1060.02C1032.43 1062.55 1028.82 1062.84 1009.37 1062.84C989.909 1062.84 986.303 1062.55 974.343 1060.02C918.238 1048.15 872.53 1012.86 847.993 962.452C840.65 947.369 836.462 935.144 832.988 918.652C830.473 906.714 830.179 903.047 830.179 883.629C830.179 864.21 830.473 860.543 832.988 848.605C849.228 771.514 910.708 714.655 988.421 704.858C1002.18 703.123 1030.46 704.398 1044.93 707.404ZM1009.37 732.142C1009.37 732.717 989.354 767.119 964.895 808.588C940.438 850.057 920.797 884.31 921.251 884.704C921.706 885.099 941.94 895.928 966.218 908.769L1010.36 932.115L1054.07 908.133L1097.78 884.15L1054.78 808.023C1031.12 766.154 1011.23 731.716 1010.57 731.496C1009.91 731.275 1009.37 731.566 1009.37 732.142ZM1053.77 808.347C1076.56 848.702 1095.06 881.864 1094.88 882.04C1094.69 882.217 1075.73 872.669 1052.75 860.825L1010.95 839.288L1010.68 786.117C1010.51 754.175 1010.79 733.349 1011.37 733.96C1011.9 734.517 1030.98 767.992 1053.77 808.347ZM1009.34 787.612L1009.32 838.662L966.333 860.633C942.69 872.717 923.228 882.477 923.083 882.323C922.753 881.971 1008.44 736.561 1008.97 736.561C1009.19 736.561 1009.36 759.535 1009.34 787.612ZM1009.37 885.31V930.37L999.579 925.154C994.197 922.286 974.617 911.924 956.069 902.127L922.347 884.316L929.089 880.892C932.798 879.01 952.02 869.116 971.805 858.907C991.591 848.698 1008.14 840.323 1008.57 840.297C1009.01 840.27 1009.37 860.526 1009.37 885.31ZM1068.97 870.391C1083.42 877.81 1094.84 884.228 1094.36 884.655C1093.09 885.773 1011.85 930.182 1011.07 930.182C1010.72 930.182 1010.42 909.91 1010.42 885.132V840.082L1026.56 848.492C1035.43 853.118 1054.52 862.972 1068.97 870.391ZM920.491 897.258C920.491 898.442 922.437 899.863 924.485 900.173C925.808 900.374 1007 946.635 1008.59 948.089C1009.03 948.498 1009.27 964.747 1009.12 984.198L1008.84 1019.56L966.569 960.096C943.321 927.388 924.122 900.806 923.902 901.025C923.514 901.413 1006.16 1018.18 1008.81 1020.99C1009.89 1022.13 1018.32 1010.84 1054.17 960.226C1078.39 926.034 1097.99 897.838 1097.72 897.569C1097.45 897.302 1096.63 897.565 1095.89 898.156C1095.14 898.747 1075.41 910.018 1052.02 923.203L1009.5 947.177L965.79 922.137C941.749 908.364 921.721 896.895 921.284 896.649C920.847 896.402 920.491 896.676 920.491 897.258ZM1091.59 905.583C1089.58 908.346 1070.93 934.652 1050.14 964.039C1029.35 993.426 1011.91 1017.92 1011.38 1018.48C1010.81 1019.08 1010.44 1005.11 1010.46 983.56L1010.5 947.64L1051.99 924.195C1074.81 911.299 1093.88 900.705 1094.36 900.653C1094.85 900.6 1093.6 902.819 1091.59 905.583Z" fill="black" stroke="black" stroke-width="0.5"/>
</svg>
