<svg width="4096" height="1749" viewBox="0 0 4096 1749" fill="none" xmlns="http://www.w3.org/2000/svg">
<path fill-rule="evenodd" clip-rule="evenodd" d="M2020.33 419.193C2014.51 419.715 2007.13 420.619 2003.93 421.2L1998.11 422.256L2003.93 421.768C2033.72 419.274 2041.6 418.954 2059.47 419.514C2070.53 419.861 2083.75 420.673 2088.85 421.318C2093.95 421.963 2098.71 422.296 2099.43 422.058C2100.14 421.82 2095.73 421.03 2089.62 420.302C2075.47 418.614 2034.13 417.953 2020.33 419.193ZM1977.48 425.407C1916.54 437.99 1860.87 464.933 1807.15 507.84C1788.84 522.474 1754.69 556.145 1739.37 574.683C1677.33 649.753 1633.93 740.612 1610.99 843.424C1606.5 863.515 1600.1 901.436 1599.37 912.197C1598.72 921.717 1599.15 919.63 1601.94 899.628C1615.95 799.339 1651.36 703.397 1703.3 624.966C1744.94 562.094 1798.77 509.131 1856.1 474.63C1897.02 450.001 1939.84 433.464 1984.35 425.086C1991.92 423.663 1996.68 422.49 1994.93 422.478C1993.19 422.466 1985.33 423.785 1977.48 425.407ZM2114.49 425.086C2233.82 447.54 2339.9 528.615 2413.35 653.507C2424.6 672.643 2444.17 712.486 2452.58 733.388C2474.07 786.801 2488.93 842.547 2496.91 899.628C2499.7 919.63 2500.13 921.717 2499.48 912.197C2498.75 901.436 2492.34 863.515 2487.86 843.424C2464.92 740.612 2421.51 649.753 2359.48 574.683C2344.16 556.145 2310.01 522.474 2291.69 507.84C2245.62 471.035 2198.6 446.235 2147.53 431.801C2132.64 427.594 2107.39 422.256 2103.11 422.412C2101.81 422.46 2106.93 423.663 2114.49 425.086ZM2023.75 446.646C1980.69 450.821 1941.67 462.225 1902.42 482.106C1785.54 541.308 1693.8 668.276 1653.21 827.025C1632.46 908.167 1625.91 993.862 1633.75 1081.48C1634.45 1089.34 1635.22 1095.19 1635.45 1094.5C1635.68 1093.8 1635.1 1084.52 1634.16 1073.87C1630.51 1032.38 1630.94 979.235 1635.29 934.944C1647.43 811.162 1691.21 694.494 1758.61 606.283C1785.89 570.576 1821.8 535.437 1855.02 511.937C1880.34 494.019 1912.86 476.682 1939.8 466.729C1958.55 459.802 1986.15 452.823 2007.1 449.71C2020.97 447.649 2027.75 447.273 2051.01 447.273C2074.27 447.273 2081.05 447.649 2094.92 449.71C2156.98 458.931 2213.94 484.646 2267.91 527.8C2282.8 539.713 2311.1 567.386 2324.9 583.535C2390.26 660.047 2434.94 756.198 2456.68 867.113C2461.91 893.778 2461.89 893.707 2461.34 887.333C2460.63 879.237 2453.96 847.106 2448.82 827.025C2408.12 668.135 2316.48 541.311 2199.6 482.106C2165.11 464.635 2133.34 454.471 2095.45 448.776C2078.74 446.267 2039.64 445.104 2023.75 446.646ZM2462.19 895.349C2462.12 896.266 2462.75 901.979 2463.6 908.045C2468.63 943.952 2470.97 985.628 2470.3 1027.52C2469.88 1053.54 2469.97 1056.82 2470.75 1044.45C2471.85 1026.83 2471.11 972.991 2469.49 953.46C2467.35 927.569 2462.61 889.894 2462.19 895.349ZM1596.81 933.886C1596.1 941.451 1595.57 949.545 1595.64 951.873C1595.71 954.201 1596.44 948.963 1597.24 940.235C1598.05 931.506 1598.58 923.412 1598.42 922.248C1598.25 921.084 1597.53 926.321 1596.81 933.886ZM2500.23 922.297C2500.19 923.487 2500.9 932.771 2501.82 942.928C2502.74 953.086 2503.88 977.583 2504.37 997.369L2505.25 1033.34L2504.87 996.84C2504.65 975.415 2503.79 952.471 2502.8 941.293C2501.2 923.233 2500.42 917.449 2500.23 922.297ZM1594.11 971.7C1593.73 979.999 1593.49 997.263 1593.59 1010.07C1593.73 1030.79 1593.84 1029.17 1594.56 995.259C1595 974.314 1595.24 957.05 1595.08 956.895C1594.92 956.739 1594.49 963.401 1594.11 971.7ZM1595.13 1049.52C1595.57 1065.68 1597.92 1091.11 1600.33 1105.82C1602.05 1116.29 1601.61 1109.86 1599.25 1089.95C1598.46 1083.25 1597.29 1070.16 1596.65 1060.85C1594.83 1034.43 1594.69 1033.38 1595.13 1049.52ZM2503.32 1041.12C2503.32 1050.08 2501.7 1071.17 2499.61 1089.42C2497.21 1110.4 2496.83 1116.06 2498.51 1105.82C2501.85 1085.54 2505.8 1033.87 2504.01 1033.87C2503.63 1033.87 2503.32 1037.13 2503.32 1041.12ZM2467.55 1077.1C2466.78 1086.61 2466.36 1094.6 2466.61 1094.86C2467.27 1095.51 2469.76 1065.6 2469.31 1062.44C2469.1 1060.98 2468.31 1067.58 2467.55 1077.1ZM1635.95 1099.47C1635.92 1101.51 1636.27 1105.31 1636.74 1107.93C1637.88 1114.37 1637.97 1108.32 1636.84 1101.06C1636.16 1096.73 1636 1096.44 1635.95 1099.47ZM2464.77 1103.77C2464.36 1107.92 2464.25 1111.53 2464.51 1111.8C2464.78 1112.07 2465.35 1108.9 2465.76 1104.76C2466.18 1100.62 2466.29 1097 2466.01 1096.73C2465.74 1096.45 2465.18 1099.62 2464.77 1103.77ZM1638.09 1116.4C1638.09 1118.43 1638.31 1119.27 1638.58 1118.25C1638.84 1117.23 1638.84 1115.57 1638.58 1114.55C1638.31 1113.53 1638.09 1114.36 1638.09 1116.4ZM2463.36 1116.4C2463.36 1118.43 2463.58 1119.27 2463.84 1118.25C2464.11 1117.23 2464.11 1115.57 2463.84 1114.55C2463.58 1113.53 2463.36 1114.36 2463.36 1116.4ZM1602.51 1120.63C1603.18 1127.53 1605.83 1141.13 1605.91 1138.09C1605.95 1136.92 1605.07 1131.21 1603.96 1125.39C1602.81 1119.32 1602.19 1117.29 1602.51 1120.63ZM2494.45 1127.1C2493.42 1133.54 2492.79 1139.02 2493.04 1139.27C2493.3 1139.53 2494.35 1134.47 2495.39 1128.04C2496.42 1121.6 2497.05 1116.13 2496.79 1115.86C2496.53 1115.6 2495.48 1120.66 2494.45 1127.1ZM1639.02 1122.24C1638.77 1126.83 1647.4 1171.82 1650.99 1184.64C1653.24 1192.69 1652.94 1188.22 1650.61 1179C1648.65 1171.24 1643.75 1146.53 1640.61 1128.57C1639.8 1123.91 1639.08 1121.06 1639.02 1122.24ZM2461.11 1129.37C2455.61 1165.99 2444.18 1211.34 2430.66 1250.24C2414.55 1296.58 2388.25 1349.76 2362.62 1387.78C2350.37 1405.95 2331.9 1429.89 2319.97 1443.03C2313.36 1450.32 2311.35 1452.85 2312.16 1452.85C2313.42 1452.85 2335.79 1426.35 2346.23 1412.5C2394.06 1349.01 2428.96 1273.66 2450.3 1187.82C2456.35 1163.47 2464.13 1122.35 2462.92 1121.14C2462.64 1120.86 2461.83 1124.57 2461.11 1129.37ZM1606.19 1142.04C1606.06 1144.89 1611.04 1167.9 1616.22 1188.34C1639.57 1280.56 1680.8 1363.88 1737 1432.49C1741.89 1438.45 1746.14 1443.33 1746.44 1443.33C1747.13 1443.33 1745.72 1441.48 1732.95 1425.73C1674.72 1353.87 1631.99 1260.56 1609.84 1156.84C1607.88 1147.69 1606.24 1141.03 1606.19 1142.04ZM2490.19 1150.91C2489.12 1156.66 2485.5 1172.32 2482.13 1185.7C2458.54 1279.52 2416.13 1365.76 2361.26 1431.49C2357.22 1436.33 2354.13 1440.5 2354.39 1440.76C2354.88 1441.25 2369.32 1423.49 2380.37 1408.8C2383.93 1404.07 2391.81 1392.64 2397.87 1383.41C2436.6 1324.46 2465.36 1257.79 2483.61 1184.64C2488.46 1165.21 2493.03 1143.18 2492.52 1141.67C2492.3 1141 2491.25 1145.17 2490.19 1150.91ZM1652.66 1191.17C1652.66 1193.45 1661.47 1224.2 1666.35 1238.92C1691.96 1316.26 1730.62 1385.74 1778.45 1440.42C1784.94 1447.84 1790.51 1453.91 1790.83 1453.91C1791.57 1453.91 1788.76 1450.48 1777.79 1437.94C1744.42 1399.84 1712.8 1349.22 1689.85 1297.2C1677.83 1269.94 1664.02 1230.83 1656.85 1203.69C1653.69 1191.75 1652.66 1188.67 1652.66 1191.17Z" fill="black" stroke="black" stroke-width="0.5"/>
</svg>
