<svg width="4096" height="1749" viewBox="0 0 4096 1749" fill="none" xmlns="http://www.w3.org/2000/svg">
<path fill-rule="evenodd" clip-rule="evenodd" d="M3770.27 146.451C3769.66 147.756 3724.93 221.431 3670.86 310.174C3616.79 398.917 3572.56 472.239 3572.56 473.112C3572.57 474.455 3766.61 755.616 3770.32 759.652C3771.35 760.778 3790.93 733.543 3870.33 620.521C3924.63 543.228 3970.44 478.208 3972.13 476.033L3975.21 472.076L3973.14 469.156C3968.69 462.843 3772.96 145.922 3772.96 145.022C3772.96 143.228 3771.38 144.069 3770.27 146.451ZM3872.44 308.747C3927.42 397.578 3972.54 470.802 3972.7 471.466C3973.08 472.988 3772.77 758.082 3771.36 758.038C3770.44 758.009 3738.52 712.247 3605.65 520.462L3572.84 473.117L3672.1 310.177C3726.7 220.559 3771.61 147.236 3771.92 147.236C3772.23 147.236 3817.47 219.916 3872.44 308.747ZM321.136 171.693C271.219 178.962 225.682 217.418 194.745 278.433C130.982 404.186 144.412 584.144 225.026 684.19C251.839 717.465 284.961 738.249 319.528 743.491C381.655 752.911 441.171 713.576 480.123 637.35C544.112 512.132 530.677 331.478 449.922 231.249C414.365 187.119 366.67 165.062 321.136 171.693ZM361.468 174.088C387.419 179.711 411.334 193.371 433.606 215.294C479.101 260.08 507.954 328.69 517.558 414.92C519.336 430.889 519.336 484.652 517.558 500.621C509.255 575.171 486.624 636.4 450.662 681.601C440.924 693.841 422.447 711.502 411.077 719.434C395.252 730.476 376.904 738.446 359.204 741.967C355.08 742.787 345.47 743.44 337.515 743.44C322.355 743.44 313.425 742.111 300.483 737.93C255.736 723.472 214.106 679.961 187.719 620.069C180.699 604.136 169.96 571.189 166.199 554.052C158.486 518.895 156.116 496.264 156.116 457.77C156.116 407.015 161.865 369.395 176.161 326.574C192.404 277.924 212.809 243.26 241.932 214.844C266.8 190.579 291.749 177.317 321.29 172.66C329.826 171.315 352.36 172.116 361.468 174.088ZM695.131 326.045V401.165H2050.48H3405.82V326.045V250.924H2050.48H695.131V326.045ZM3404.76 326.045V400.107H2050.48H696.189V326.045V251.982H2050.48H3404.76V326.045ZM2590.08 575.212V624.411H2997.42H3404.76V575.212V526.014H2997.42H2590.08V575.212ZM3403.71 575.212V623.353H2997.42H2591.13V575.212V527.072H2997.42H3403.71V575.212ZM594.618 800.045V849.773H630.062H665.506V800.045V750.317H630.062H594.618V800.045ZM664.448 800.045V848.715H630.062H595.676V800.045V751.375H630.062H664.448V800.045ZM3435.45 814.858V864.585H3470.89H3506.34V814.858V765.13H3470.89H3435.45V814.858ZM3505.28 814.858V863.527H3470.89H3436.51V814.858V766.188H3470.89H3505.28V814.858ZM552.296 1174.06V1223.26H959.64H1366.98V1174.06V1124.86H959.64H552.296V1174.06ZM1365.93 1174.06V1222.2H959.64H553.354V1174.06V1125.92H959.64H1365.93V1174.06ZM320.004 1264.94C279.558 1272.68 246.824 1299.57 225.851 1342.29C184.714 1426.08 211.271 1536.67 282.497 1578.18C301.247 1589.11 315.576 1592.96 337.515 1592.96C349.767 1592.96 354.714 1592.49 362.079 1590.65C405.569 1579.75 441.787 1542.72 458.568 1492C490.188 1396.42 444.634 1288.06 363.966 1266.98C351.489 1263.72 331.287 1262.78 320.004 1264.94ZM3767.09 1264.94C3726.64 1272.68 3693.91 1299.57 3672.94 1342.29C3631.8 1426.08 3658.36 1536.67 3729.58 1578.18C3748.33 1589.11 3762.66 1592.96 3784.6 1592.96C3796.85 1592.96 3801.8 1592.49 3809.16 1590.65C3852.65 1579.75 3888.87 1542.72 3905.65 1492C3937.27 1396.42 3891.72 1288.06 3811.05 1266.98C3798.57 1263.72 3778.37 1262.78 3767.09 1264.94ZM354.569 1266.08C409.824 1275.75 453.223 1326.82 465.187 1396.25C467.724 1410.97 467.724 1446.07 465.187 1460.79C458.364 1500.39 441.578 1534.1 416.689 1558.2C363.485 1609.71 289.917 1602.39 243.003 1540.91C226.802 1519.68 215.273 1491.7 209.769 1460.26C207.352 1446.45 207.365 1410.8 209.791 1396.78C219.376 1341.36 248.644 1296.91 288.875 1276.68C310.23 1265.94 332.904 1262.28 354.569 1266.08ZM3801.65 1266.08C3856.91 1275.75 3900.31 1326.82 3912.27 1396.25C3914.81 1410.97 3914.81 1446.07 3912.27 1460.79C3905.45 1500.39 3888.66 1534.1 3863.77 1558.2C3810.57 1609.71 3737 1602.39 3690.09 1540.91C3673.89 1519.68 3662.36 1491.7 3656.85 1460.26C3654.44 1446.45 3654.45 1410.8 3656.88 1396.78C3666.46 1341.36 3695.73 1296.91 3735.96 1276.68C3757.31 1265.94 3779.99 1262.28 3801.65 1266.08ZM568.167 1350.22V1399.95H603.611H639.055V1350.22V1300.5H603.611H568.167V1350.22ZM637.997 1350.22V1398.89H603.611H569.225V1350.22V1301.55H603.611H637.997V1350.22ZM3462.96 1356.57V1406.3H3498.4H3533.84V1356.57V1306.84H3498.4H3462.96V1356.57ZM3532.79 1356.57V1405.24H3498.4H3464.01V1356.57V1307.9H3498.4H3532.79V1356.57ZM1313.02 1575.59V1631.66H2051.01H2788.99V1575.59V1519.51H2051.01H1313.02V1575.59ZM2787.93 1575.59V1630.6H2051.01H1314.08V1575.59V1520.57H2051.01H2787.93V1575.59Z" fill="black" stroke="black" stroke-width="0.5"/>
</svg>
