<svg width="1649" height="1146" viewBox="0 0 1649 1146" fill="none" xmlns="http://www.w3.org/2000/svg">
<path d="M788.495 550.825L796.652 536.673C800.184 532.106 811.175 513.953 827.868 485.118C834.277 484.477 840.753 484.065 847.289 483.89C846.791 484.697 846.287 485.538 845.786 486.402C841.876 493.144 836.474 502.347 833.782 506.854C831.089 511.361 822.915 525.291 815.618 537.81C808.321 550.33 800.123 564.26 797.403 568.767C794.683 573.274 786.742 586.795 779.755 598.813C772.769 610.831 765.346 623.533 763.262 627.038C761.176 630.543 756.836 637.918 753.617 643.427C750.397 648.935 739.585 667.373 729.587 684.399C726.781 689.178 723.474 694.81 719.948 700.817L719.097 702.266C710.258 717.321 700.203 734.447 693.239 746.312C683.243 763.338 667.412 790.195 658.058 805.994C648.704 821.795 641.05 835.022 641.05 835.39C641.05 835.758 632.867 849.716 622.866 866.407C621.825 868.143 620.805 869.85 619.811 871.516C617.202 866.517 614.748 861.425 612.455 856.245L745.726 625.026L746.387 623.901L746.382 623.889L754.429 609.927C755.469 608.382 756.587 606.602 757.701 604.697C761.353 598.456 769.836 584.107 776.551 572.808L788.762 552.265L788.495 550.825Z" fill="black"/>
<path d="M1027.13 949.793H681.849C677.235 945.812 672.76 941.675 668.432 937.388C769.763 937.495 939.018 936.814 1042.04 935.891C1037.25 940.713 1032.28 945.351 1027.13 949.793Z" fill="black"/>
<path d="M881.262 485.134C883.462 488.755 885.85 492.659 888.424 496.838C892.123 502.848 904.752 523.947 916.486 543.728C929.704 566.007 936.285 576.381 939.167 578.87L946.033 590.782C947.598 595.91 953.368 605.661 968.785 631.47L988.799 664.978L1097.61 853.757C1095.6 858.412 1093.47 862.999 1091.21 867.512C1091.19 867.476 1091.17 867.442 1091.15 867.407C1084.35 855.889 1075.74 841.549 1072.03 835.539C1068.32 829.53 1056.83 810.273 1046.49 792.747C1036.16 775.22 1019.47 747.169 1009.4 730.411C972.124 668.365 955.187 640.04 939.967 614.291C931.384 599.769 922.514 585.019 920.257 581.514C917.999 578.008 909.401 563.668 901.149 549.647C892.897 535.625 884.578 521.695 882.665 518.69C880.75 515.686 874.075 504.687 867.83 494.249C865.569 490.47 863.351 486.906 861.395 483.882C868.082 484.054 874.707 484.474 881.262 485.134Z" fill="black"/>
<path fill-rule="evenodd" clip-rule="evenodd" d="M840.049 730.633C822.741 738.505 811.474 755.458 811.474 773.626C811.474 805.737 845.36 829.02 874.126 816.672C904.584 803.6 912.856 767.859 891.328 742.357C879.746 728.637 856.249 723.266 840.049 730.633ZM867.045 767.55C871.458 773.497 870.191 780.53 863.97 784.612C858.06 788.489 850.726 786.362 847.329 779.787C844.926 775.129 844.927 773.94 847.355 769.238C851.956 760.33 861.104 759.545 867.045 767.55Z" fill="black"/>
<path fill-rule="evenodd" clip-rule="evenodd" d="M829.256 686.405C787.062 692.861 741.507 717.306 702.422 754.462C691.671 764.685 682.874 773.725 682.874 774.553C682.874 777.968 719.904 811.896 733.789 821.203C749.513 831.743 772.012 843.83 787.842 850.244C831.062 867.754 882.176 868.452 925.078 852.118C939.02 846.809 965.643 832.356 979.698 822.467C1006.33 803.727 1031.22 778.838 1029.33 772.852C1027.67 767.623 996.072 738.249 981.634 728.515C942.662 702.239 917.451 691.535 882.205 686.294C860.075 683.002 851.379 683.022 829.256 686.405ZM888.453 710.275C901.524 716.785 914.802 730.777 921.794 745.401C926.905 756.096 927.449 758.907 927.433 774.537C927.416 789.458 926.743 793.273 922.545 802.279C915.977 816.366 909.743 824.186 898.805 832.054C875.957 848.492 847 849.923 820.481 835.924C790.939 820.331 777.011 780.732 789.695 748.397C796.53 730.97 814.851 712.944 830.807 707.946C834.955 706.647 847.393 705.529 858.449 705.462C876.786 705.351 879.417 705.771 888.453 710.275ZM944.802 727.456C961.666 736.455 979.719 749.712 994.703 764.101L1005.64 774.606L992.005 787.42C984.504 794.467 971.724 804.699 963.603 810.157C948.479 820.322 928.138 831.373 926.878 830.109C926.491 829.721 929.091 824.639 932.659 818.814C948.604 792.779 948.948 756.702 933.512 729.468C930.531 724.211 928.669 719.908 929.375 719.908C930.08 719.908 937.021 723.304 944.802 727.456ZM780.457 727.647C770.996 749.16 769.474 754.559 768.721 769.252C767.814 787.02 770.785 800.24 779.224 815.964C782.354 821.795 783.499 825.524 782.163 825.524C775.995 825.524 717.674 786.49 710.184 777.348C707.731 774.353 708.075 773.555 714.065 768.369C730.571 754.082 773.774 725.494 778.99 725.411C780.346 725.389 781.006 726.396 780.457 727.647Z" fill="black"/>
<path fill-rule="evenodd" clip-rule="evenodd" d="M676.871 1.01664C676.656 1.59562 677.758 9.07433 679.32 17.6369C682.81 36.7776 708.985 177.04 728.602 281.713L743.158 359.389L736.697 365.866C729.411 373.171 725.476 380.008 721.197 392.806C719.756 397.117 718.218 400.552 717.782 400.44C717.345 400.328 712.451 398.053 706.906 395.387C689.91 387.21 679.472 385.786 669.879 390.331C663.96 393.135 660.785 396.642 656.207 405.428L652.989 411.604L645.62 395.76C638.158 379.715 621.141 342.037 590.952 274.726C570.34 228.766 553.714 192.591 552.567 191.203C552.088 190.625 550.939 190.151 550.014 190.151C546.603 190.151 543.935 183.735 592.012 291.136C645.524 410.676 649.603 420.551 649.501 430.298C649.467 433.477 649.281 436.236 649.087 436.43C648.894 436.624 645.945 435.853 642.535 434.717C634.583 432.068 621.728 430.482 612.759 431.042C604.141 431.581 599.741 433.848 595.149 440.115C589.579 447.715 588.537 452.539 588.643 470.236L588.737 485.659L577.671 485.074C554.515 483.85 541.674 489.021 535.782 501.94C533.212 507.575 533.212 520.003 535.782 529.267C536.741 532.725 537.433 535.649 537.317 535.764C537.044 536.038 494.782 490.332 415.781 404.322C353.64 336.668 316.508 296.436 305.98 285.354C301.148 280.269 298.893 279.26 298.372 281.949C298.057 283.574 315.167 302.58 411.18 407.267C491.145 494.455 536.84 545.499 535.833 546.508C535.643 546.699 531.714 547.447 527.102 548.172C511.531 550.619 501.388 555.713 496.399 563.593C493.276 568.526 492.264 572.146 492.258 578.398C492.25 585.765 494.275 592.527 499.932 604.029C502.735 609.728 504.83 614.591 504.585 614.835C504.342 615.079 500.1 616.93 495.16 618.946C483.761 623.6 477.964 627.06 472.495 632.478C466.626 638.292 464.204 643.463 464.266 650.053C464.364 660.434 468.561 669.311 479.291 681.829C482.559 685.641 485.503 689.22 485.833 689.782C486.228 690.454 484.91 691.571 481.992 693.039C475.125 696.493 468.016 701.889 461.781 708.379C450.755 719.856 449.226 728.454 455.921 741.353C457.844 745.058 459.063 748.089 458.629 748.089C458.196 748.089 456.416 747.535 454.674 746.858C452.932 746.182 420.506 734.475 382.616 720.843C344.726 707.211 254.559 674.672 182.245 648.532C13.0142 587.36 2.7218 583.708 1.20536 584.291C-0.600076 584.985 -0.36484 586.279 1.82706 587.708C4.29452 589.318 27.4703 597.898 144.019 640.351C266.063 684.806 382.435 726.933 427.983 743.148C447.39 750.056 464.843 756.285 466.767 756.99C468.691 757.695 472.952 760.161 476.236 762.471L482.205 766.671L473.584 776.286C453.036 799.202 451.184 811.354 465.969 826.24L471.291 831.598L467.7 831.084C462.901 830.397 398.935 824.022 293.562 813.729C245.969 809.081 182.384 802.823 152.261 799.825C94.5035 794.075 91.1068 793.828 90.2012 795.295C88.7402 797.663 92.4611 798.521 115.035 801.025C175.947 807.781 356.801 825.761 433.024 832.637C451.044 834.263 469.191 835.919 473.35 836.318C479.35 836.893 482.349 837.704 487.881 840.247C492.757 842.489 494.714 843.805 494.399 844.628C494.152 845.275 492.249 848.191 490.17 851.108C479.966 865.432 474.833 881.735 477.96 889.887C482.54 901.831 498.393 911.484 519.347 915.089C521.08 915.387 522.498 916 522.498 916.452C522.498 916.904 521.154 920.718 519.512 924.927C516.088 933.703 514.398 940.989 513.65 950.196C513.362 953.743 512.683 957.242 512.141 957.971C511.026 959.471 512.888 959.084 295.242 1003.02C214.842 1019.25 145.172 1033.42 140.419 1034.5C131.009 1036.63 129.037 1037.7 131.033 1039.59C132.074 1040.57 133.828 1040.44 142.759 1038.71C182.396 1031.04 274.174 1012.71 384.985 990.345L514.214 964.257L517.972 967.466C529.265 977.11 539.209 980.337 557.663 980.347C565.615 980.352 566.313 980.479 565.771 981.825C565.445 982.635 564.604 986.517 563.902 990.451C562.354 999.119 562.892 1015.51 564.947 1022.32C566.875 1028.71 572.699 1034.43 579.326 1036.45C587.364 1038.88 610.163 1038.31 620.04 1035.41C621.219 1035.07 621.448 1036.57 621.873 1047.45C622.584 1065.66 625.571 1074.63 633.137 1081.3C641.694 1088.85 652.67 1089.12 672.671 1082.28C679.596 1079.91 685.637 1077.97 686.095 1077.97C686.553 1077.97 687.134 1079.96 687.385 1082.39C688.332 1091.56 694.97 1107.12 700.73 1113.68C704.49 1117.96 711.016 1121.47 716.619 1122.23C725.101 1123.39 736.517 1119.14 750.487 1109.63C755.05 1106.53 758.857 1104.1 758.948 1104.23C759.039 1104.37 759.954 1106.73 760.981 1109.49C763.758 1116.94 771.046 1127.31 778.551 1134.49C784.048 1139.75 785.935 1141.03 789.446 1141.88C801.459 1144.76 815.07 1137.91 829.839 1121.55L834.937 1115.9L840.398 1122.91C851.044 1136.57 862.64 1145.04 871.89 1145.93C876.626 1146.39 884.192 1144.42 888.684 1141.56C894.563 1137.82 901.876 1128.75 912.043 1112.58C912.151 1112.41 916.618 1115.52 921.97 1119.49C935.185 1129.3 942.395 1132.8 950.446 1133.32C955.779 1133.66 957.294 1133.43 961.164 1131.65C968.234 1128.41 972.92 1123.04 978.617 1111.64C981.36 1106.15 984.267 1099.55 985.08 1096.97C985.891 1094.39 986.929 1092.28 987.384 1092.28C987.839 1092.28 992.333 1094.19 997.369 1096.54C1009.64 1102.25 1018.14 1104.36 1027.01 1103.89C1032.45 1103.61 1034.64 1103.08 1037.58 1101.35C1045.92 1096.46 1053.08 1081.04 1055.26 1063.29L1056.23 1055.42L1060.93 1057.08C1071.05 1060.65 1092.17 1062.4 1099.72 1060.3C1106.2 1058.49 1112.75 1050.23 1115.3 1040.65C1116.06 1037.77 1116.45 1031.35 1116.46 1021.51L1116.47 1006.71L1129.48 1007.11C1143.9 1007.55 1150.56 1006.66 1156.87 1003.46C1162 1000.85 1167.22 994.809 1169.45 988.891C1172.18 981.659 1171.44 969.688 1167.47 956.811C1165.83 951.5 1164.67 946.861 1164.89 946.502C1165.11 946.143 1166.2 945.849 1167.3 945.849C1170.82 945.849 1188.96 941.862 1193.88 940.007C1196.49 939.025 1200.23 937.002 1202.2 935.514C1211.23 928.664 1209.51 929.178 1219.15 930.428C1266.86 936.62 1578.28 971.171 1598.49 972.516C1605.3 972.969 1606.27 972.864 1606.27 971.673C1606.27 968.385 1616.37 969.667 1402.95 945.862C1307.54 935.218 1225.69 926.033 1221.07 925.45L1212.66 924.39L1212.14 913.45C1211.56 901.347 1211.14 899.822 1204.79 887.157C1202.42 882.427 1200.48 878.23 1200.48 877.831C1200.48 877.432 1204.67 875.46 1209.79 873.451C1224.69 867.604 1234.68 860.131 1238.86 851.72C1240 849.427 1240.39 846.717 1240.38 840.996C1240.37 833.693 1240.21 833.015 1236.84 826.269C1234.57 821.734 1230.73 816.191 1226.11 810.809C1219.75 803.382 1219.11 802.351 1220.57 801.811C1223.03 800.897 1320.17 780.139 1468.06 748.922C1640.85 712.451 1646.8 711.156 1648.24 709.749C1649.19 708.81 1649.24 708.327 1648.44 707.53C1647.65 706.736 1646.14 706.732 1641.58 707.517C1625.17 710.334 1279.65 782.45 1242.16 790.88L1234.69 792.56L1240.11 787.365C1253.37 774.65 1256.3 765.05 1250.5 753.428C1246.09 744.607 1239.65 738.039 1223.27 725.677C1223.1 725.547 1226.24 721.92 1230.25 717.619C1251 695.367 1253.87 680.168 1239.85 666.787C1234.06 661.253 1229.78 658.422 1219.18 653.097C1214.44 650.718 1210.56 648.518 1210.56 648.207C1210.56 647.897 1212.41 644.965 1214.66 641.693C1222.7 630.01 1228.21 616.422 1228.21 608.272C1228.21 602.318 1226.05 598.79 1217.29 590.448L1209.62 583.132L1211.3 580.768C1215.9 574.304 1252.15 541.639 1394.97 415.267C1489.32 331.792 1525 299.983 1528.86 295.932C1531.6 293.048 1531.8 291.136 1529.35 291.136C1527.43 291.136 1499.5 315.628 1297.07 494.829C1245.08 540.859 1201.98 578.94 1201.3 579.455C1200.37 580.156 1198.01 579.926 1191.86 578.53C1187.35 577.506 1183.42 576.44 1183.14 576.159C1182.86 575.879 1184.16 571.561 1186.02 566.565C1190.07 555.722 1191.24 549.868 1191.24 540.469C1191.24 532.046 1189.98 528.574 1185.11 523.538C1177.86 516.049 1168.01 512.755 1150.28 511.897C1144.16 511.601 1139.16 511.132 1139.16 510.857C1139.18 508.313 1141.87 502.27 1146.1 495.246C1156.72 477.61 1171.42 456.113 1241.11 356.355C1293.42 281.476 1297.94 274.813 1297.94 272.53C1297.94 269.722 1295.55 270.821 1292.07 275.231C1286.37 282.448 1260.05 319.595 1212.53 387.491C1187.59 423.13 1161.72 459.979 1155.05 469.377L1142.93 486.464L1142.29 480.738C1141.15 470.516 1139.51 466.427 1134.61 461.511C1131.98 458.882 1128.83 456.646 1126.89 456.033C1119.81 453.795 1096.35 454.131 1085.73 456.622C1084.03 457.019 1083.95 456.643 1083.43 445.811C1082.54 427.242 1079.27 417.636 1071.47 410.762C1062.75 403.076 1054.02 402.87 1033.24 409.863C1018.45 414.84 1019.04 414.875 1017.33 408.95C1016.86 407.33 1015.83 402.884 1015.04 399.069C1013.66 392.431 1013.66 391.871 1015.15 386.025C1017.3 377.586 1036.66 310.91 1056.27 244.43C1073.68 185.405 1089.79 129.962 1093.23 117.192C1094.84 111.259 1095.09 109.257 1094.32 108.615C1092.94 107.473 1091.56 108.487 1090.4 111.485C1088.48 116.431 1083.95 131.666 1048.84 251.163C1009.67 384.469 1009.9 383.704 1009.26 383.704C1009.01 383.704 1006.89 381.6 1004.54 379.027C999.816 373.848 995.916 371.516 989.775 370.197C981.37 368.391 968.471 373.053 953.547 383.291C949.735 385.906 946.455 387.883 946.257 387.686C946.06 387.488 944.998 385.026 943.898 382.214C941.092 375.043 936.524 368.436 928.721 360.269C919.99 351.129 917.368 349.787 908.994 350.17C903.561 350.418 901.537 350.972 895.892 353.755C890.353 356.484 887.578 358.681 879.629 366.623C874.358 371.891 869.785 375.901 869.469 375.534C869.152 375.168 866.793 372.217 864.225 368.978C850.456 351.597 837.718 344.06 826.522 346.669C816.099 349.099 808.456 355.827 798.557 371.288L792.865 380.181L782.65 372.462C771.168 363.783 762.479 359.379 755.123 358.511C752.383 358.187 749.722 357.502 749.21 356.989C748.069 355.846 749.552 363.531 719.534 203.195C687.796 33.6749 682.256 5.17719 680.309 1.43741C679.42 -0.270907 677.439 -0.513269 676.871 1.01664ZM839.997 353.45C844.845 355.653 857.712 368.633 863.962 377.627L868.803 384.593L877.546 376.158C888.703 365.394 897.914 358.066 901.98 356.718C907.019 355.048 913.878 355.39 918.023 357.518C925.447 361.331 930.457 367.905 939.098 385.177C941.935 390.847 944.454 395.486 944.697 395.486C944.94 395.486 949.001 392.891 953.722 389.72C969.911 378.843 977.86 375.289 985.994 375.289C993.415 375.289 999.33 379.406 1004.13 387.912C1006.96 392.93 1011.12 404.961 1012.31 411.607C1013.41 417.718 1014.95 419.89 1018.18 419.89C1019.43 419.89 1026.08 417.915 1032.97 415.502C1044.79 411.355 1045.94 411.111 1053.9 411.084C1062.11 411.055 1062.42 411.123 1066.06 413.809C1074.37 419.926 1076.77 426.49 1077.79 445.88C1078.75 464.215 1078.12 463.542 1092.17 461.041C1097.91 460.019 1106.2 459.16 1110.59 459.131C1117.45 459.087 1119.22 459.381 1123.23 461.239C1128.72 463.787 1133.67 467.926 1135.53 471.537C1136.66 473.725 1136.78 476.091 1136.3 486.878C1135.99 493.892 1135.4 502.578 1135 506.18C1134.6 509.781 1134.44 513.181 1134.65 513.736C1135.26 515.316 1140.4 516.479 1151.33 517.508C1168.6 519.134 1175.68 521.386 1180.86 526.902C1188.5 535.044 1188.58 540.105 1181.42 562.53C1179.36 569.01 1177.6 575.785 1177.52 577.586L1177.38 580.861L1190.56 584.489C1209.34 589.658 1217.13 593.97 1220.58 601.104C1224.17 608.524 1222 619.096 1214.32 631.705C1205.48 646.197 1203.66 649.631 1204.15 650.907C1204.43 651.63 1208.56 654.047 1213.32 656.277C1225.09 661.779 1232.38 666.539 1237.28 671.907C1247.24 682.824 1244.97 693.445 1228.97 710.714C1218.66 721.848 1216.1 725.465 1216.85 727.836C1217.15 728.792 1218 729.575 1218.73 729.575C1222.38 729.575 1243.02 749.583 1245.88 755.882C1247.99 760.558 1247.99 767.612 1245.86 772.308C1243.45 777.635 1236.71 783.84 1224.22 792.242C1216.96 797.122 1213.08 800.245 1213.08 801.214C1213.08 802.031 1214.9 805.086 1217.13 808.004C1219.35 810.921 1223.08 815.816 1225.41 818.883C1233.5 829.501 1236.96 839.687 1234.94 846.919C1232.57 855.406 1224.25 861.692 1205.86 868.894C1195.86 872.813 1193.76 873.929 1193.76 875.33C1193.76 876.262 1196.19 882.192 1199.15 888.506C1205.6 902.237 1207.4 908.113 1207.36 915.251C1207.32 921.814 1205.03 926.452 1199.88 930.381C1193.92 934.927 1184.93 937.644 1165.35 940.817C1161.33 941.468 1159.03 942.255 1158.71 943.087C1158.44 943.787 1159.86 950.091 1161.87 957.097C1164.97 967.952 1165.52 971.014 1165.56 977.828C1165.63 987.954 1163.56 992.801 1157.42 996.915C1151.25 1001.04 1146.11 1001.84 1127.24 1001.59L1110.71 1001.38L1110.82 1018.85C1110.92 1034.57 1110.76 1036.84 1109.16 1041.6C1103.82 1057.53 1093.17 1060.27 1066.13 1052.66C1055.33 1049.63 1052.83 1049.53 1051.85 1052.12C1051.45 1053.17 1050.47 1058.38 1049.66 1063.69C1046.76 1082.93 1042.29 1092.44 1034.17 1096.69C1026.52 1100.69 1017.97 1099.58 1002.63 1092.59C998.011 1090.48 992.202 1088.02 989.722 1087.11C985.508 1085.57 985.112 1085.55 983.667 1086.86C982.817 1087.63 981.121 1091.34 979.898 1095.11C976.611 1105.22 971.73 1114.85 967.398 1119.76C963.049 1124.69 956.277 1128.47 951.849 1128.44C945.256 1128.4 931.245 1120.63 920.901 1111.27C916.972 1107.72 914.066 1105.74 912.781 1105.74C910.459 1105.74 908.12 1108.49 901.02 1119.56C892.064 1133.53 882.883 1140.46 873.144 1140.59C868.497 1140.66 867.544 1140.35 863.356 1137.46C857.05 1133.11 843.572 1119.03 840.038 1113.1C838.452 1110.44 836.872 1108.27 836.528 1108.27C836.184 1108.27 831.578 1112.38 826.294 1117.4C809.014 1133.83 802.213 1137.79 793.356 1136.58C783.192 1135.18 776.311 1127.81 766.148 1107.42C763.263 1101.64 760.777 1096.77 760.623 1096.6C760.469 1096.43 756.826 1098.73 752.528 1101.7C729.043 1117.96 716.962 1120.96 707.527 1112.87C701.859 1108.01 694.362 1091.17 692.594 1079.33C692.254 1077.06 691.243 1074.48 690.333 1073.57C688.322 1071.56 685.752 1071.91 675.401 1075.65C665.963 1079.05 654.654 1082.08 651.2 1082.13C645.194 1082.23 640.708 1080.36 636.258 1075.9C629.868 1069.5 628.378 1064.77 627.468 1048.02C627.063 1040.57 626.35 1033.47 625.883 1032.24C624.81 1029.41 622.698 1029.35 608.746 1031.78C594.592 1034.23 587.363 1033.77 579.857 1029.93C576.044 1027.98 573.314 1025.84 571.356 1023.27L568.472 1019.48L569.001 1005.18C569.293 997.309 569.772 987.81 570.068 984.068L570.606 977.263L565.665 976.298C562.947 975.767 556.565 974.924 551.482 974.425C533.817 972.691 526.136 969.417 521.31 961.563C517.795 955.842 517.526 950.113 520.332 940.8C528.495 913.71 528.706 912.826 527.256 911.765C526.502 911.211 520.68 909.362 514.319 907.655C500.702 904 493.061 900.647 488.585 896.362C484.371 892.329 483.011 889.007 483.011 882.74C483.011 875.551 485.279 869.836 493.587 856.088C498.383 848.151 500.697 843.511 500.512 842.203C500.287 840.61 498.156 839.199 489.286 834.767C473.356 826.808 467.725 822.451 464.036 815.229C459.04 805.45 462.453 796.351 477.026 780.601C482.097 775.12 486.815 769.461 487.508 768.027C488.959 765.025 488.082 762.395 485.63 762.395C483.702 762.395 473.31 753.54 466.302 745.926C459.684 738.736 457.459 734.145 457.504 727.775C457.569 718.77 463.907 711.336 481.406 699.746C488.488 695.055 492.252 692.048 492.25 691.082C492.249 690.268 488.831 685.247 484.656 679.924C471.231 662.809 467.045 651.176 471.21 642.559C474.864 634.998 482.544 629.899 501.074 622.733C510.827 618.961 511.15 618.756 510.981 616.439C510.885 615.122 508.719 609.649 506.168 604.276C498.23 587.56 496.195 579.449 498.121 572.208C500.881 561.835 509.226 557.122 532.518 552.781C539.647 551.453 545.825 550.02 546.247 549.597C546.712 549.132 545.576 543.712 543.377 535.903C540.142 524.413 539.737 521.997 539.729 514.142C539.721 505.989 539.901 504.999 542.053 501.332C544.759 496.719 549.567 493.555 556.703 491.688C560.39 490.724 565.347 490.498 578.061 490.716L594.618 491L594.173 475.852C593.824 463.924 594.011 459.389 595.053 454.512C599.093 435.612 610.778 431.462 637.896 439.298C646.338 441.737 652.215 442.423 653.052 441.068C653.291 440.68 654.427 434.717 655.579 427.813C658.542 410.04 661.052 403.833 667.708 397.809C675.237 390.995 684.895 391.714 704.555 400.55C716.557 405.944 719.686 406.915 721.392 405.771C721.967 405.387 723.801 401.116 725.468 396.281C729.414 384.84 733.53 377.045 738.324 371.942C742.339 367.666 749.849 363.515 753.533 363.536C759.192 363.567 774.008 371.983 783.647 380.641C786.946 383.604 790.479 386.247 791.496 386.514C793.898 387.143 797.649 383.246 804.373 373.134C810.459 363.981 818.508 355.643 823.408 353.416C828.203 351.236 835.157 351.25 839.997 353.45ZM815.943 463.308C771.59 469.347 725.416 487.382 688.423 513.116C661.972 531.516 635.164 558.255 617.131 584.228C595.789 614.966 577.887 655.533 571.264 688.171C567.334 707.536 566.661 716.581 566.688 749.772C566.72 791.266 568.414 803.144 578.895 835.364C584.579 852.837 588.64 862.962 595.291 876.247C609.094 903.814 625.993 926.777 650.565 951.352C678.669 979.46 705.625 997.857 739.743 1012.21C760.774 1021.06 790.954 1029.6 809.822 1032.05C833.146 1035.07 878.147 1034.49 900.182 1030.88C924.673 1026.86 955.436 1016.86 977.669 1005.69C1032.88 977.935 1079.77 931.789 1106.02 879.368C1119.05 853.36 1129.74 821.189 1134.7 793.111C1135.97 785.926 1136.19 779.345 1136.2 748.089C1136.21 707.243 1136.18 706.986 1129.77 681.285C1106.49 588.058 1040.65 513.713 950.964 479.376C924.737 469.334 900.211 464.501 866.938 462.818C845.019 461.71 826.372 461.889 815.943 463.308ZM876.612 468.722C928.956 472.203 983.103 493.881 1027 528.925C1046.25 544.297 1070.7 570.926 1084.52 591.563C1107.97 626.583 1124.88 670.745 1129.55 709.136C1130.26 715.054 1131.07 728.607 1131.33 739.253C1132.26 776.27 1128.68 803.578 1119 833.379C1091.29 918.678 1025.81 985.812 942.362 1014.48C911.983 1024.91 889.585 1028.32 851.408 1028.32C821.901 1028.32 801.636 1026.13 780.837 1020.69C670.029 991.737 584.03 892.759 572.857 781.329C571.662 769.414 571.662 727.804 572.856 715.269C575.287 689.755 581.762 664.423 591.983 640.435C625.884 560.874 693.037 501.172 774.761 477.936C785.202 474.967 811.633 469.317 819.063 468.465C825.306 467.748 864.622 467.924 876.612 468.722ZM826.625 479.723C795.863 481.903 760.429 492.439 729.59 508.574C702.535 522.729 682.815 537.729 659 562.268C638.984 582.892 627.132 599.282 614.383 623.962C594.15 663.133 584.462 702.913 584.462 746.826C584.462 790.886 594.003 830.452 614.239 870.298C631.053 903.409 650.594 927.479 682.122 953.914C725.517 990.298 770.921 1009.29 825.784 1014.01C838.378 1015.09 870.519 1015.07 883.333 1013.97C925.505 1010.36 971.722 992.521 1008.43 965.701C1067.44 922.585 1107.55 857.58 1118.31 787.641C1119.81 777.876 1119.83 715.95 1118.33 706.456C1114.75 683.736 1106.74 657.183 1097.26 636.585C1083.58 606.881 1066.53 582.694 1041.74 557.856C1026.38 542.463 1015.71 533.659 998.442 522.131C968.047 501.836 929.676 486.724 896.023 481.794C877.987 479.153 847.508 478.242 826.625 479.723ZM881.333 485.511C931.73 491.124 977.703 510.224 1017.5 542.084C1028.98 551.276 1048.86 571.229 1057.98 582.727C1132.26 676.298 1134.92 807.682 1064.49 903.35C1057.83 912.409 1037.91 935.759 1035.81 936.986C1034.99 937.464 1030.97 940.835 1026.88 944.479C993.005 974.633 950.458 996.017 906.258 1005.1C886.369 1009.19 876.481 1010.13 853.089 1010.13C829.592 1010.14 818.561 1009.11 799.113 1005.11C763.243 997.735 726.526 981.43 697.245 959.874C689.006 953.809 675.417 942.429 672.461 939.117C671.537 938.082 670.122 936.989 669.317 936.688C667.433 935.982 651.229 917.045 642.04 904.809C631.183 890.354 613.889 861.392 612.827 855.89C612.684 855.149 611.404 852.001 609.983 848.895C606.51 841.301 600.325 822.332 597.282 809.942C583.036 751.922 589.233 689.379 614.568 635.485C627.694 607.563 644.51 583.733 666.966 561.229C701.33 526.793 740.83 504.226 788.399 491.852C803.134 488.019 807.167 487.269 822.389 485.526C840.488 483.452 862.807 483.447 881.333 485.511Z" fill="black"/>
</svg>
