<svg width="4096" height="1749" viewBox="0 0 4096 1749" fill="none" xmlns="http://www.w3.org/2000/svg">
<path fill-rule="evenodd" clip-rule="evenodd" d="M877.714 1458C861.957 1456.96 833.574 1453.74 834.244 1453.07C834.517 1452.79 841.316 1453.34 849.35 1454.28C992.31 1471.03 1135.74 1432.18 1251.23 1345.4C1273.25 1328.87 1289.46 1314.71 1310.55 1293.62C1331.64 1272.53 1345.8 1256.31 1362.34 1234.3C1385.54 1203.42 1401.51 1177.19 1419.04 1141.18C1450.57 1076.45 1468.51 1008.81 1473.93 934.321L1474.9 921.095L1474.44 934.85C1473.92 950.563 1470.95 975.901 1467.2 996.751C1448.85 1098.53 1404.19 1190.75 1335.11 1269.48C1320.95 1285.62 1287.73 1317.62 1270.95 1331.3C1177.59 1407.4 1068.66 1450.24 948.609 1458.08C930.4 1459.27 896.286 1459.23 877.714 1458ZM3148.45 1458C3132.69 1456.96 3104.31 1453.74 3104.98 1453.07C3105.25 1452.79 3112.05 1453.34 3120.09 1454.28C3263.05 1471.03 3406.48 1432.18 3521.97 1345.4C3543.98 1328.87 3560.19 1314.71 3581.29 1293.62C3602.38 1272.53 3616.53 1256.31 3633.07 1234.3C3656.28 1203.42 3672.25 1177.19 3689.78 1141.18C3721.3 1076.45 3739.25 1008.81 3744.67 934.321L3745.63 921.095L3745.18 934.85C3744.65 950.563 3741.69 975.901 3737.93 996.751C3719.59 1098.53 3674.93 1190.75 3605.84 1269.48C3591.68 1285.62 3558.47 1317.62 3541.69 1331.3C3448.33 1407.4 3339.4 1450.24 3219.34 1458.08C3201.14 1459.27 3167.02 1459.23 3148.45 1458ZM821.634 1451.61C719.298 1433.03 636.164 1395.19 557.465 1331.35C537.77 1315.37 496.137 1273.74 480.161 1254.04C423.696 1184.43 386.046 1107.88 366.585 1023.11C359.779 993.466 354.766 958.266 353.988 934.658L353.541 921.095L354.504 934.321C359.926 1008.81 377.873 1076.45 409.396 1141.18C426.926 1177.19 442.899 1203.42 466.102 1234.3C482.641 1256.31 496.796 1272.53 517.887 1293.62C564.143 1339.87 611.87 1373.8 670.851 1402.37C718.647 1425.51 762.903 1439.84 816.872 1449.63C825.893 1451.27 831.845 1452.6 830.099 1452.59C828.353 1452.57 824.543 1452.13 821.634 1451.61ZM3092.37 1451.61C2990.03 1433.03 2906.9 1395.19 2828.2 1331.35C2808.51 1315.37 2766.87 1273.74 2750.9 1254.04C2694.43 1184.43 2656.78 1107.88 2637.32 1023.11C2630.51 993.466 2625.5 958.266 2624.72 934.658L2624.28 921.095L2625.24 934.321C2633.32 1045.38 2671.02 1146.69 2736.84 1234.3C2753.38 1256.31 2767.53 1272.53 2788.62 1293.62C2834.88 1339.87 2882.61 1373.8 2941.59 1402.37C2989.38 1425.51 3033.64 1439.84 3087.61 1449.63C3096.63 1451.27 3102.58 1452.6 3100.83 1452.59C3099.09 1452.57 3095.28 1452.13 3092.37 1451.61ZM888.295 1308.24C818.557 1302.66 757.375 1283.5 701.887 1249.87C560.847 1164.38 484.433 1004.85 506.398 841.735C530.013 666.38 665.009 524.741 839.093 492.672C866.912 487.546 881.881 486.271 914.22 486.271C946.558 486.271 961.527 487.546 989.346 492.672C1187.88 529.247 1331.32 706.416 1325.49 907.868C1322.39 1015.07 1280.04 1113.61 1204.91 1188.48C1138.56 1254.61 1055.2 1294.82 960.777 1306.26C947.138 1307.91 900.209 1309.19 888.295 1308.24ZM3159.03 1308.24C3089.29 1302.66 3028.11 1283.5 2972.62 1249.87C2831.58 1164.38 2755.17 1004.85 2777.13 841.735C2800.75 666.38 2935.74 524.741 3109.83 492.672C3137.65 487.546 3152.62 486.271 3184.96 486.271C3217.29 486.271 3232.26 487.546 3260.08 492.672C3458.62 529.247 3602.06 706.416 3596.23 907.868C3593.12 1015.07 3550.78 1113.61 3475.65 1188.48C3409.29 1254.61 3325.94 1294.82 3231.51 1306.26C3217.87 1307.91 3170.94 1309.19 3159.03 1308.24ZM960.777 1305.2C1090.61 1289.47 1201.17 1217.67 1267.92 1105.74C1296.8 1057.3 1314.88 1003.1 1322.29 942.786C1324.93 921.298 1324.93 873.276 1322.29 851.787C1313.99 784.166 1293.31 726.9 1257.38 672.017C1196.37 578.817 1098.77 513.9 989.346 493.731C961.538 488.605 946.562 487.329 914.22 487.329C881.877 487.329 866.901 488.605 839.093 493.731C712.331 517.094 602.791 600.095 545.994 715.818C524.631 759.348 512.355 801.233 506.146 851.787C503.507 873.276 503.507 921.298 506.146 942.786C516.734 1028.99 548.992 1102.43 604.455 1166.58C674.548 1247.66 772.642 1297.1 882.476 1306.72C898.557 1308.13 943.867 1307.25 960.777 1305.2ZM3231.51 1305.2C3260.9 1301.64 3289.98 1295.19 3315.63 1286.53C3456.93 1238.86 3561.61 1118.35 3588.51 972.414C3593.64 944.605 3594.91 929.629 3594.91 897.287C3594.91 864.944 3593.64 849.969 3588.51 822.16C3565.14 695.374 3482.17 585.87 3366.42 529.062C3322.89 507.698 3281.01 495.423 3230.45 489.214C3208.97 486.575 3160.94 486.575 3139.46 489.214C3088.9 495.423 3047.02 507.698 3003.49 529.062C2887.76 585.859 2804.76 695.399 2781.4 822.16C2776.27 849.969 2775 864.944 2775 897.287C2775 929.629 2776.27 944.605 2781.4 972.414C2796.74 1055.65 2837.46 1131.75 2898.34 1190.95C2968.29 1258.96 3054.38 1298.07 3153.21 1306.72C3169.29 1308.13 3214.6 1307.25 3231.51 1305.2ZM352.552 899.932C351.538 769.087 395.736 644.608 480.161 540.533C496.137 520.838 537.77 479.205 557.465 463.228C634.752 400.534 720.739 360.974 816.793 343.918C823.442 342.738 829.87 341.816 831.077 341.869C832.285 341.923 825.893 343.306 816.872 344.943C762.619 354.787 718.403 369.132 670.322 392.487C634.445 409.915 608.152 425.92 577.207 449.169C554.921 465.914 538.856 479.961 517.393 501.475C495.88 523.039 482.734 538.106 466.092 560.274C405.903 640.449 368.377 734.203 357.247 832.212C354.607 855.457 354.196 861.9 353.444 891.996L352.716 921.095L352.552 899.932ZM1475.25 899.932C1474.15 808.005 1456.38 730.064 1419.04 653.389C1401.51 617.385 1385.54 591.157 1362.34 560.274C1345.8 538.261 1331.64 522.047 1310.55 500.955C1289.46 479.863 1273.25 465.709 1251.23 449.169C1220.29 425.92 1193.99 409.915 1158.12 392.487C1110.04 369.132 1065.82 354.787 1011.57 344.943C1002.55 343.306 996.154 341.923 997.362 341.869C1002.76 341.63 1036.88 348.48 1057.88 354.019C1152.18 378.89 1237.19 427.378 1307.15 496.2C1349.26 537.626 1379.67 577.641 1407.48 628.208C1453.07 711.123 1477.74 810.297 1475.86 903.107L1475.5 921.095L1475.25 899.932ZM2623.29 899.932C2622.27 769.087 2666.47 644.608 2750.9 540.533C2766.87 520.838 2808.51 479.205 2828.2 463.228C2905.49 400.534 2991.48 360.974 3087.53 343.918C3094.18 342.738 3100.61 341.816 3101.81 341.869C3103.02 341.923 3096.63 343.306 3087.61 344.943C3033.35 354.787 2989.14 369.132 2941.06 392.487C2905.18 409.915 2878.89 425.92 2847.94 449.169C2825.66 465.914 2809.59 479.961 2788.13 501.475C2766.62 523.039 2753.47 538.106 2736.83 560.274C2676.64 640.449 2639.11 734.203 2627.98 832.212C2625.34 855.457 2624.93 861.9 2624.18 891.996L2623.45 921.095L2623.29 899.932ZM3745.98 899.932C3744.88 808.005 3727.11 730.064 3689.78 653.389C3672.25 617.385 3656.28 591.157 3633.07 560.274C3616.53 538.261 3602.38 522.047 3581.29 500.955C3560.19 479.863 3543.98 465.709 3521.97 449.169C3491.02 425.92 3464.73 409.915 3428.85 392.487C3380.77 369.132 3336.56 354.787 3282.3 344.943C3273.28 343.306 3266.89 341.923 3268.1 341.869C3273.49 341.63 3307.62 348.48 3328.62 354.019C3422.92 378.89 3507.93 427.378 3577.88 496.2C3620 537.626 3650.41 577.641 3678.21 628.208C3723.8 711.123 3748.48 810.297 3746.6 903.107L3746.24 921.095L3745.98 899.932ZM842.796 340.121C870.585 336.083 916.055 334.417 945.963 336.34C966.159 337.639 994.972 340.73 994.188 341.514C993.919 341.784 987.123 341.235 979.089 340.293C937.168 335.381 890.146 335.352 850.03 340.212C834.431 342.102 829.578 342.04 842.796 340.121ZM3113.53 340.121C3141.32 336.083 3186.79 334.417 3216.7 336.34C3236.89 337.639 3265.71 340.73 3264.92 341.514C3264.65 341.784 3257.86 341.235 3249.82 340.293C3207.9 335.381 3160.88 335.352 3120.77 340.212C3105.17 342.102 3100.31 342.04 3113.53 340.121Z" fill="black" stroke="black" stroke-width="0.5"/>
</svg>
