<svg width="4096" height="1749" viewBox="0 0 4096 1749" fill="none" xmlns="http://www.w3.org/2000/svg">
<path fill-rule="evenodd" clip-rule="evenodd" d="M244.425 1421.59V1269.75H351.825H459.225V1421.59V1573.43H351.825H244.425V1421.59ZM3638.89 1421.59V1269.75H3746.29H3853.69V1421.59V1573.43H3746.29H3638.89V1421.59ZM458.166 1421.59V1270.81H351.825H245.483V1421.59V1572.37H351.825H458.166V1421.59ZM3852.63 1421.59V1270.81H3746.29H3639.95V1421.59V1572.37H3746.29H3852.63V1421.59ZM1595.3 1410.74C1845.06 1410.6 2254.08 1410.6 2504.23 1410.74C2754.38 1410.89 2550.03 1411.01 2050.12 1411.01C1550.2 1411.01 1345.54 1410.89 1595.3 1410.74ZM1648.56 1210.49V1174.52H2048H2447.44V1210.49V1246.47H2048H1648.56V1210.49ZM2446.38 1210.49V1175.58H2048H1649.61V1210.49V1245.41H2048H2446.38V1210.49ZM244.425 374.046V222.205H351.825H459.225V374.046V525.887H351.825H244.425V374.046ZM3638.89 374.046V222.205H3746.29H3853.69V374.046V525.887H3746.29H3638.89V374.046ZM458.166 374.046V223.263H351.825H245.483V374.046V524.829H351.825H458.166V374.046ZM3852.63 374.046V223.263H3746.29H3639.95V374.046V524.829H3746.29H3852.63V374.046ZM1592.3 381.188C1843.9 381.041 2255.3 381.041 2506.52 381.188C2757.74 381.335 2551.88 381.455 2049.06 381.455C1546.24 381.455 1340.7 381.335 1592.3 381.188Z" fill="black" stroke="black" stroke-width="0.5"/>
</svg>
