<svg width="4096" height="1749" viewBox="0 0 4096 1749" fill="none" xmlns="http://www.w3.org/2000/svg">
<path fill-rule="evenodd" clip-rule="evenodd" d="M83.585 874.636V1662.34H2050.06H4016.53L4015.88 1218.76C4015.53 974.792 4014.94 620.324 4014.58 431.054L4013.93 86.9272H2048.76H83.585V874.636ZM4013.52 486.601C4013.88 705.84 4014.47 1059.83 4014.82 1273.25L4015.46 1661.29H2050.05H84.643V874.636V87.9853H2048.76H4012.87L4013.52 486.601ZM101.572 871.991V1644.36H2050.59H3999.61L3998.96 1205.54C3998.6 964.185 3998.01 616.621 3997.65 433.17L3997 99.6237H2049.29H101.572V871.991ZM3996.59 504.587C3996.95 726.736 3997.54 1073.82 3997.89 1275.9L3998.54 1643.3H2050.58H102.63V871.991V100.682H2049.29H3995.94L3996.59 504.587Z" fill="black" stroke="black" stroke-width="0.5"/>
</svg>
