<svg width="4096" height="1749" viewBox="0 0 4096 1749" fill="none" xmlns="http://www.w3.org/2000/svg">
<path fill-rule="evenodd" clip-rule="evenodd" d="M1017.02 142.205L1016.77 185.319L705.974 185.587C535.036 185.734 1149.34 185.854 2071.11 185.854C2992.87 185.854 3597.18 185.734 3414.03 185.587L3081.03 185.319L3080.74 142.734L3080.45 100.15L3080.2 142.736L3079.94 185.322H3063.03H3046.11L3045.82 142.736L3045.53 100.15L3045.28 142.736L3045.03 185.322H2049.96H1054.89L1054.6 142.736L1054.31 100.15L1054.06 142.736L1053.8 185.322H1035.83H1017.85L1017.57 142.207L1017.28 99.0922L1017.02 142.205ZM1255.62 210.451C1709.67 210.597 2452.65 210.597 2906.69 210.451C3360.73 210.305 2989.24 210.185 2081.16 210.185C1173.07 210.185 801.581 210.305 1255.62 210.451ZM3300.5 575.209C3300.5 602.559 3300.64 613.899 3300.81 600.41C3300.98 586.92 3300.98 564.543 3300.81 550.682C3300.64 536.821 3300.5 547.859 3300.5 575.209ZM3338.59 575.209C3338.59 602.559 3338.73 613.899 3338.9 600.41C3339.07 586.92 3339.07 564.543 3338.9 550.682C3338.73 536.821 3338.59 547.859 3338.59 575.209ZM2650.87 575.738C2650.87 602.797 2651.01 613.867 2651.17 600.337C2651.34 586.808 2651.34 564.669 2651.17 551.138C2651.01 537.609 2650.87 548.679 2650.87 575.738ZM2919.61 575.738C2919.61 602.797 2919.75 613.867 2919.92 600.337C2920.08 586.808 2920.08 564.669 2919.92 551.138C2919.75 537.609 2919.61 548.679 2919.61 575.738ZM3787.23 1000.54C3787.23 1145.44 3787.36 1204.56 3787.51 1131.92C3787.66 1059.27 3787.66 940.721 3787.51 868.465C3787.36 796.207 3787.23 855.642 3787.23 1000.54ZM3758.67 1004.24C3758.67 1148.85 3758.79 1208.01 3758.94 1135.7C3759.09 1063.4 3759.09 945.086 3758.94 872.782C3758.79 800.478 3758.67 859.636 3758.67 1004.24ZM313.699 1004.77C313.699 1149.09 313.821 1207.97 313.972 1135.62C314.122 1063.27 314.122 945.192 313.972 873.226C313.821 801.26 313.699 860.456 313.699 1004.77ZM342.275 1003.71C341.839 1146.04 341.721 1262.73 342.012 1263.02C342.303 1263.31 342.897 1147.1 343.333 1004.77C343.769 862.444 343.888 745.755 343.597 745.464C343.306 745.173 342.711 861.386 342.275 1003.71ZM1265.9 1174.06C1265.9 1201.41 1266.04 1212.75 1266.2 1199.26C1266.37 1185.77 1266.37 1163.39 1266.2 1149.53C1266.04 1135.67 1265.9 1146.71 1265.9 1174.06ZM1303.99 1174.06C1303.99 1201.41 1304.13 1212.75 1304.29 1199.26C1304.46 1185.77 1304.46 1163.39 1304.29 1149.53C1304.13 1135.67 1303.99 1146.71 1303.99 1174.06ZM616.264 1174.59C616.264 1201.65 616.402 1212.72 616.569 1199.19C616.736 1185.66 616.736 1163.52 616.569 1149.99C616.402 1136.46 616.264 1147.53 616.264 1174.59ZM885.006 1174.59C885.006 1201.65 885.143 1212.72 885.311 1199.19C885.478 1185.66 885.478 1163.52 885.311 1149.99C885.143 1136.46 885.006 1147.53 885.006 1174.59ZM868.826 1367.94C952.43 1368.09 1089.55 1368.09 1173.54 1367.94C1257.53 1367.79 1189.13 1367.67 1021.53 1367.67C853.941 1367.67 785.222 1367.79 868.826 1367.94ZM868.826 1397.57C952.43 1397.72 1089.55 1397.72 1173.54 1397.57C1257.53 1397.42 1189.13 1397.3 1021.53 1397.3C853.941 1397.3 785.222 1397.42 868.826 1397.57ZM1737.76 1451.53L1730.58 1459.73L1494.03 1460.26L1257.48 1460.79L1257.2 1496.49L1256.92 1532.2L847.738 1532.47L438.556 1532.74L848.28 1533L1258.01 1533.26V1497.29V1461.31H1494.32H1730.64L1736.89 1454.17C1744.42 1445.56 1746.19 1443.33 1745.48 1443.33C1745.19 1443.33 1741.71 1447.02 1737.76 1451.53ZM2355.18 1444.92C2356.05 1446.08 2359.57 1450.24 2363 1454.17L2369.25 1461.31H2604.51H2839.77V1496.76V1532.2L3261.13 1531.94L3682.5 1531.68L3261.66 1531.41L2840.83 1531.14V1495.7V1460.26H2605.1H2369.37L2363.24 1452.9C2357.23 1445.68 2351.58 1440.09 2355.18 1444.92ZM1772.06 1472.93L1753.7 1493.01L1516.43 1493.03L1279.17 1493.06V1526.38V1559.71L847.222 1559.98L415.279 1560.24L847.21 1560.51L1279.14 1560.77L1279.43 1602.3C1279.6 1626.79 1279.82 1613.11 1279.97 1568.97L1280.22 1494.11H2049.95H2819.67L2819.92 1568.97C2820.07 1613.11 2820.29 1626.79 2820.46 1602.3L2820.75 1560.77L3263.79 1560.51L3706.83 1560.24L3263.78 1559.98L2820.73 1559.71V1526.38V1493.06L2582.93 1493.03L2345.14 1493.01L2329.28 1473.37C2314.7 1455.3 2311.81 1451.96 2311.81 1453.16C2311.81 1453.4 2318.95 1462.35 2327.68 1473.06L2343.55 1492.53L2196.48 1492.79C2115.6 1492.94 1983.27 1492.94 1902.43 1492.79L1755.44 1492.53L1769.14 1477.71C1784.2 1461.43 1791.73 1452.85 1790.94 1452.85C1790.66 1452.85 1782.16 1461.89 1772.06 1472.93Z" fill="black" stroke="black" stroke-width="0.5"/>
</svg>
