<svg width="4096" height="1749" viewBox="0 0 4096 1749" fill="none" xmlns="http://www.w3.org/2000/svg">
<path d="M2982.9 949.307L2987.01 942.161C2988.79 939.855 2994.33 930.688 3002.75 916.129C3005.98 915.805 3009.24 915.597 3012.53 915.508C3012.28 915.916 3012.03 916.34 3011.78 916.777C3009.81 920.181 3007.08 924.828 3005.73 927.104C3004.37 929.379 3000.25 936.414 2996.57 942.735C2992.9 949.056 2988.76 956.091 2987.39 958.366C2986.02 960.642 2982.02 967.469 2978.5 973.538C2974.98 979.606 2971.24 986.02 2970.19 987.79C2969.14 989.56 2966.95 993.284 2965.33 996.065C2963.7 998.847 2958.25 1008.16 2953.22 1016.75C2951.8 1019.17 2950.13 1022.01 2948.36 1025.04L2947.93 1025.78C2943.47 1033.38 2938.41 1042.03 2934.9 1048.02C2929.86 1056.61 2921.88 1070.17 2917.17 1078.15C2912.45 1086.13 2908.59 1092.81 2908.59 1093C2908.59 1093.18 2904.47 1100.23 2899.43 1108.66C2898.91 1109.53 2898.39 1110.4 2897.89 1111.24C2896.58 1108.71 2895.34 1106.14 2894.18 1103.53L2961.35 986.774L2961.68 986.206L2961.68 986.2L2965.74 979.15C2966.26 978.37 2966.82 977.471 2967.38 976.509C2969.22 973.358 2973.5 966.112 2976.88 960.407L2983.04 950.034L2982.9 949.307Z" fill="black"/>
<path d="M3103.17 1150.76H2929.16C2926.83 1148.75 2924.58 1146.66 2922.39 1144.5C2973.46 1144.55 3058.76 1144.21 3110.69 1143.74C3108.27 1146.18 3105.76 1148.52 3103.17 1150.76Z" fill="black"/>
<path d="M3029.66 916.136C3030.76 917.965 3031.97 919.936 3033.27 922.047C3035.13 925.081 3041.49 935.735 3047.41 945.723C3054.07 956.973 3057.39 962.211 3058.84 963.468L3062.3 969.483C3063.09 972.072 3066 976.996 3073.77 990.028L3083.85 1006.95L3138.69 1102.27C3137.68 1104.62 3136.6 1106.94 3135.47 1109.22C3135.46 1109.2 3135.45 1109.18 3135.44 1109.16C3132.01 1103.35 3127.67 1096.11 3125.8 1093.07C3123.93 1090.04 3118.14 1080.31 3112.93 1071.46C3107.72 1062.61 3099.31 1048.45 3094.23 1039.99C3075.45 1008.66 3066.91 994.355 3059.24 981.353C3054.92 974.021 3050.45 966.573 3049.31 964.803C3048.17 963.033 3043.84 955.792 3039.68 948.712C3035.52 941.632 3031.33 934.598 3030.36 933.08C3029.4 931.563 3026.03 926.01 3022.89 920.739C3021.75 918.831 3020.63 917.031 3019.64 915.504C3023.01 915.591 3026.35 915.803 3029.66 916.136Z" fill="black"/>
<path fill-rule="evenodd" clip-rule="evenodd" d="M3008.89 1040.1C3000.16 1044.07 2994.48 1052.63 2994.48 1061.81C2994.48 1078.02 3011.56 1089.78 3026.06 1083.54C3041.41 1076.94 3045.58 1058.9 3034.73 1046.02C3028.89 1039.09 3017.05 1036.38 3008.89 1040.1ZM3022.49 1058.74C3024.72 1061.74 3024.08 1065.29 3020.94 1067.36C3017.96 1069.31 3014.27 1068.24 3012.55 1064.92C3011.34 1062.57 3011.34 1061.97 3012.57 1059.59C3014.89 1055.09 3019.5 1054.7 3022.49 1058.74Z" fill="black"/>
<path fill-rule="evenodd" clip-rule="evenodd" d="M3003.45 1017.77C2982.18 1021.03 2959.22 1033.37 2939.52 1052.13C2934.11 1057.29 2929.67 1061.86 2929.67 1062.28C2929.67 1064 2948.34 1081.13 2955.33 1085.83C2963.26 1091.15 2974.6 1097.26 2982.57 1100.5C3004.36 1109.34 3030.12 1109.69 3051.74 1101.44C3058.76 1098.76 3072.18 1091.46 3079.27 1086.47C3092.69 1077.01 3105.23 1064.44 3104.28 1061.42C3103.44 1058.78 3087.52 1043.94 3080.24 1039.03C3060.6 1025.76 3047.89 1020.36 3030.13 1017.71C3018.98 1016.05 3014.6 1016.06 3003.45 1017.77ZM3033.28 1029.82C3039.87 1033.11 3046.56 1040.17 3050.08 1047.56C3052.66 1052.96 3052.93 1054.38 3052.93 1062.27C3052.92 1069.8 3052.58 1071.73 3050.46 1076.28C3047.15 1083.39 3044.01 1087.34 3038.5 1091.31C3026.98 1099.61 3012.39 1100.33 2999.02 1093.27C2984.14 1085.39 2977.12 1065.4 2983.51 1049.07C2986.95 1040.27 2996.19 1031.17 3004.23 1028.64C3006.32 1027.99 3012.59 1027.42 3018.16 1027.39C3027.4 1027.33 3028.73 1027.55 3033.28 1029.82ZM3061.68 1038.49C3070.18 1043.04 3079.28 1049.73 3086.83 1057L3092.34 1062.3L3085.47 1068.77C3081.69 1072.33 3075.25 1077.5 3071.15 1080.25C3063.53 1085.39 3053.28 1090.97 3052.65 1090.33C3052.45 1090.13 3053.76 1087.57 3055.56 1084.63C3063.6 1071.48 3063.77 1053.26 3055.99 1039.51C3054.49 1036.86 3053.55 1034.68 3053.9 1034.68C3054.26 1034.68 3057.76 1036.4 3061.68 1038.49ZM2978.85 1038.59C2974.08 1049.45 2973.32 1052.18 2972.94 1059.6C2972.48 1068.57 2973.98 1075.25 2978.23 1083.19C2979.81 1086.13 2980.39 1088.01 2979.71 1088.01C2976.6 1088.01 2947.21 1068.3 2943.44 1063.69C2942.2 1062.18 2942.37 1061.77 2945.39 1059.15C2953.71 1051.94 2975.48 1037.5 2978.11 1037.46C2978.8 1037.45 2979.13 1037.96 2978.85 1038.59Z" fill="black"/>
<path fill-rule="evenodd" clip-rule="evenodd" d="M2926.65 671.685C2926.54 671.978 2927.09 675.754 2927.88 680.078C2929.64 689.742 2942.83 760.567 2952.72 813.421L2960.06 852.643L2956.8 855.913C2953.13 859.602 2951.14 863.054 2948.99 869.516C2948.26 871.693 2947.49 873.427 2947.27 873.371C2947.05 873.314 2944.58 872.166 2941.78 870.819C2933.22 866.691 2927.96 865.971 2923.12 868.267C2920.14 869.683 2918.54 871.453 2916.23 875.889L2914.61 879.008L2910.9 871.008C2907.14 862.906 2898.56 843.881 2883.35 809.892C2872.96 786.686 2864.58 768.419 2864 767.719C2863.76 767.427 2863.18 767.187 2862.71 767.187C2861 767.187 2859.65 763.947 2883.88 818.179C2910.85 878.539 2912.91 883.526 2912.85 888.448C2912.84 890.053 2912.74 891.446 2912.65 891.544C2912.55 891.642 2911.06 891.253 2909.34 890.679C2905.34 889.341 2898.86 888.54 2894.34 888.823C2889.99 889.095 2887.78 890.24 2885.46 893.405C2882.65 897.242 2882.13 899.678 2882.18 908.614L2882.23 916.402L2876.65 916.106C2864.98 915.488 2858.51 918.099 2855.54 924.623C2854.25 927.468 2854.25 933.743 2855.54 938.421C2856.03 940.167 2856.37 941.644 2856.32 941.702C2856.18 941.84 2834.88 918.761 2795.06 875.331C2763.75 841.17 2745.03 820.855 2739.73 815.259C2737.29 812.691 2736.15 812.182 2735.89 813.54C2735.73 814.36 2744.36 823.958 2792.75 876.818C2833.05 920.843 2856.08 946.617 2855.57 947.127C2855.47 947.223 2853.49 947.601 2851.17 947.967C2843.32 949.202 2838.21 951.775 2835.69 955.754C2834.12 958.244 2833.61 960.072 2833.61 963.23C2833.6 966.949 2834.62 970.364 2837.47 976.172C2838.89 979.049 2839.94 981.505 2839.82 981.628C2839.7 981.751 2837.56 982.686 2835.07 983.704C2829.32 986.054 2826.4 987.801 2823.65 990.537C2820.69 993.473 2819.47 996.083 2819.5 999.411C2819.55 1004.65 2821.66 1009.14 2827.07 1015.46C2828.72 1017.38 2830.2 1019.19 2830.37 1019.47C2830.57 1019.81 2829.9 1020.38 2828.43 1021.12C2824.97 1022.86 2821.39 1025.59 2818.25 1028.86C2812.69 1034.66 2811.92 1039 2815.29 1045.51C2816.26 1047.38 2816.88 1048.91 2816.66 1048.91C2816.44 1048.91 2815.54 1048.63 2814.67 1048.29C2813.79 1047.95 2797.45 1042.04 2778.35 1035.16C2759.25 1028.27 2713.81 1011.84 2677.37 998.643C2592.08 967.755 2586.89 965.911 2586.13 966.205C2585.22 966.556 2585.34 967.209 2586.44 967.931C2587.68 968.744 2599.36 973.076 2658.1 994.512C2719.61 1016.96 2778.26 1038.23 2801.21 1046.42C2810.99 1049.91 2819.79 1053.05 2820.76 1053.41C2821.73 1053.76 2823.88 1055.01 2825.53 1056.18L2828.54 1058.3L2824.2 1063.15C2813.84 1074.72 2812.91 1080.86 2820.36 1088.38L2823.04 1091.08L2821.23 1090.82C2818.81 1090.47 2786.57 1087.26 2733.47 1082.06C2709.48 1079.71 2677.44 1076.55 2662.26 1075.04C2633.15 1072.13 2631.44 1072.01 2630.98 1072.75C2630.24 1073.95 2632.12 1074.38 2643.49 1075.64C2674.19 1079.05 2765.34 1088.13 2803.75 1091.61C2812.84 1092.43 2821.98 1093.26 2824.08 1093.46C2827.1 1093.75 2828.61 1094.16 2831.4 1095.45C2833.86 1096.58 2834.84 1097.24 2834.69 1097.66C2834.56 1097.99 2833.6 1099.46 2832.55 1100.93C2827.41 1108.16 2824.82 1116.4 2826.4 1120.51C2828.71 1126.54 2836.7 1131.42 2847.26 1133.24C2848.13 1133.39 2848.85 1133.7 2848.85 1133.93C2848.85 1134.16 2848.17 1136.08 2847.34 1138.21C2845.62 1142.64 2844.76 1146.32 2844.39 1150.97C2844.24 1152.76 2843.9 1154.52 2843.63 1154.89C2843.07 1155.65 2844 1155.45 2734.32 1177.64C2693.8 1185.84 2658.68 1192.99 2656.29 1193.53C2651.55 1194.61 2650.55 1195.15 2651.56 1196.1C2652.08 1196.6 2652.97 1196.53 2657.47 1195.66C2677.44 1191.79 2723.7 1182.53 2779.54 1171.24L2844.67 1158.07L2846.57 1159.69C2852.26 1164.56 2857.27 1166.19 2866.57 1166.19C2870.58 1166.19 2870.93 1166.26 2870.66 1166.94C2870.49 1167.35 2870.07 1169.31 2869.71 1171.29C2868.93 1175.67 2869.2 1183.94 2870.24 1187.39C2871.21 1190.61 2874.15 1193.5 2877.49 1194.52C2881.54 1195.75 2893.03 1195.46 2898.01 1193.99C2898.6 1193.82 2898.72 1194.58 2898.93 1200.07C2899.29 1209.27 2900.79 1213.8 2904.61 1217.17C2908.92 1220.98 2914.45 1221.11 2924.53 1217.66C2928.02 1216.46 2931.07 1215.48 2931.3 1215.48C2931.53 1215.48 2931.82 1216.49 2931.95 1217.72C2932.42 1222.35 2935.77 1230.21 2938.67 1233.51C2940.57 1235.68 2943.86 1237.45 2946.68 1237.84C2950.95 1238.42 2956.71 1236.27 2963.75 1231.47C2966.05 1229.9 2967.97 1228.68 2968.01 1228.75C2968.06 1228.81 2968.52 1230.01 2969.04 1231.4C2970.44 1235.16 2974.11 1240.4 2977.89 1244.03C2980.66 1246.68 2981.61 1247.33 2983.38 1247.75C2989.44 1249.21 2996.3 1245.75 3003.74 1237.49L3006.31 1234.64L3009.06 1238.18C3014.43 1245.07 3020.27 1249.35 3024.93 1249.8C3027.32 1250.03 3031.13 1249.04 3033.4 1247.6C3036.36 1245.71 3040.05 1241.13 3045.17 1232.96C3045.22 1232.88 3047.48 1234.45 3050.17 1236.45C3056.83 1241.4 3060.47 1243.17 3064.52 1243.43C3067.21 1243.61 3067.97 1243.49 3069.92 1242.59C3073.49 1240.95 3075.85 1238.24 3078.72 1232.48C3080.1 1229.71 3081.57 1226.38 3081.98 1225.08C3082.39 1223.77 3082.91 1222.71 3083.14 1222.71C3083.37 1222.71 3085.63 1223.68 3088.17 1224.86C3094.36 1227.75 3098.64 1228.81 3103.11 1228.57C3105.85 1228.43 3106.96 1228.16 3108.44 1227.29C3112.64 1224.82 3116.25 1217.03 3117.35 1208.07L3117.84 1204.1L3120.21 1204.94C3125.3 1206.74 3135.95 1207.62 3139.75 1206.56C3143.02 1205.65 3146.32 1201.48 3147.6 1196.64C3147.99 1195.18 3148.19 1191.95 3148.19 1186.98L3148.2 1179.5L3154.75 1179.7C3162.02 1179.93 3165.37 1179.48 3168.56 1177.86C3171.14 1176.54 3173.77 1173.49 3174.9 1170.5C3176.27 1166.85 3175.9 1160.81 3173.9 1154.31C3173.07 1151.62 3172.49 1149.28 3172.6 1149.1C3172.71 1148.92 3173.26 1148.77 3173.82 1148.77C3175.59 1148.77 3184.73 1146.76 3187.21 1145.82C3188.52 1145.33 3190.41 1144.3 3191.4 1143.55C3195.95 1140.09 3195.09 1140.35 3199.94 1140.98C3223.99 1144.11 3380.94 1161.56 3391.13 1162.24C3394.56 1162.46 3395.04 1162.41 3395.04 1161.81C3395.04 1160.15 3400.14 1160.8 3292.58 1148.78C3244.49 1143.4 3203.24 1138.77 3200.91 1138.47L3196.68 1137.94L3196.41 1132.41C3196.12 1126.3 3195.91 1125.53 3192.71 1119.13C3191.51 1116.75 3190.54 1114.63 3190.54 1114.43C3190.54 1114.22 3192.65 1113.23 3195.23 1112.21C3202.73 1109.26 3207.77 1105.49 3209.88 1101.24C3210.45 1100.08 3210.65 1098.71 3210.64 1095.83C3210.64 1092.14 3210.56 1091.8 3208.86 1088.39C3207.72 1086.1 3205.78 1083.3 3203.45 1080.58C3200.25 1076.83 3199.92 1076.31 3200.66 1076.04C3201.9 1075.58 3250.86 1065.1 3325.39 1049.33C3412.47 1030.92 3415.47 1030.26 3416.19 1029.55C3416.68 1029.08 3416.7 1028.84 3416.3 1028.43C3415.9 1028.03 3415.14 1028.03 3412.84 1028.43C3404.57 1029.85 3230.43 1066.26 3211.54 1070.52L3207.78 1071.37L3210.51 1068.75C3217.19 1062.33 3218.67 1057.48 3215.74 1051.61C3213.52 1047.16 3210.28 1043.84 3202.02 1037.6C3201.93 1037.53 3203.52 1035.7 3205.54 1033.53C3216 1022.29 3217.44 1014.62 3210.38 1007.86C3207.46 1005.07 3205.3 1003.64 3199.96 1000.95C3197.57 999.747 3195.62 998.636 3195.62 998.479C3195.62 998.322 3196.55 996.842 3197.68 995.19C3201.73 989.29 3204.51 982.43 3204.51 978.314C3204.51 975.308 3203.42 973.526 3199.01 969.314L3195.14 965.62L3195.99 964.426C3198.3 961.162 3216.57 944.668 3288.55 880.858C3336.1 838.708 3354.09 822.646 3356.03 820.601C3357.41 819.144 3357.51 818.179 3356.28 818.179C3355.31 818.179 3341.24 830.546 3239.22 921.032C3213.01 944.275 3191.29 963.503 3190.95 963.763C3190.48 964.117 3189.29 964.001 3186.19 963.296C3183.92 962.779 3181.94 962.241 3181.8 962.099C3181.66 961.957 3182.31 959.777 3183.25 957.254C3185.29 951.779 3185.88 948.823 3185.88 944.077C3185.88 939.824 3185.24 938.071 3182.79 935.528C3179.14 931.747 3174.17 930.084 3165.24 929.65C3162.15 929.501 3159.63 929.264 3159.63 929.125C3159.64 927.841 3161 924.789 3163.13 921.242C3168.48 912.338 3175.89 901.482 3211.01 851.11C3237.38 813.301 3239.65 809.937 3239.65 808.784C3239.65 807.366 3238.45 807.921 3236.69 810.147C3233.82 813.792 3220.56 832.549 3196.61 866.833C3184.04 884.828 3171 903.434 3167.64 908.18L3161.53 916.808L3161.21 913.917C3160.63 908.755 3159.81 906.691 3157.34 904.208C3156.01 902.881 3154.43 901.752 3153.45 901.442C3149.88 900.312 3138.05 900.482 3132.7 901.739C3131.85 901.94 3131.81 901.75 3131.55 896.281C3131.1 886.904 3129.45 882.054 3125.52 878.583C3121.12 874.702 3116.72 874.598 3106.25 878.129C3098.79 880.642 3099.09 880.66 3098.23 877.668C3098 876.85 3097.48 874.605 3097.08 872.679C3096.38 869.327 3096.38 869.044 3097.13 866.092C3098.22 861.831 3107.98 828.163 3117.86 794.595C3126.63 764.791 3134.75 736.795 3136.49 730.347C3137.29 727.351 3137.42 726.341 3137.03 726.016C3136.34 725.44 3135.64 725.952 3135.06 727.465C3134.09 729.963 3131.81 737.655 3114.11 797.995C3094.37 865.306 3094.49 864.92 3094.16 864.92C3094.04 864.92 3092.97 863.858 3091.79 862.559C3089.4 859.944 3087.44 858.766 3084.34 858.1C3080.11 857.188 3073.61 859.542 3066.09 864.712C3064.17 866.032 3062.51 867.031 3062.41 866.931C3062.31 866.831 3061.78 865.588 3061.22 864.168C3059.81 860.547 3057.51 857.211 3053.57 853.087C3049.17 848.472 3047.85 847.794 3043.63 847.988C3040.89 848.113 3039.87 848.393 3037.03 849.798C3034.24 851.176 3032.84 852.285 3028.83 856.295C3026.18 858.955 3023.87 860.98 3023.71 860.795C3023.55 860.61 3022.36 859.12 3021.07 857.484C3014.13 848.708 3007.71 844.902 3002.07 846.22C2996.82 847.447 2992.96 850.844 2987.97 858.651L2985.11 863.141L2979.96 859.243C2974.17 854.861 2969.79 852.638 2966.08 852.199C2964.7 852.035 2963.36 851.69 2963.1 851.431C2962.53 850.854 2963.28 854.734 2948.15 773.774C2932.15 688.176 2929.36 673.786 2928.38 671.898C2927.93 671.035 2926.93 670.913 2926.65 671.685ZM3008.86 849.643C3011.3 850.756 3017.79 857.31 3020.94 861.852L3023.38 865.369L3027.78 861.11C3033.41 855.675 3038.05 851.975 3040.1 851.294C3042.64 850.45 3046.09 850.623 3048.18 851.698C3051.92 853.623 3054.45 856.942 3058.8 865.664C3060.23 868.527 3061.5 870.869 3061.63 870.869C3061.75 870.869 3063.8 869.559 3066.17 867.958C3074.33 862.466 3078.34 860.671 3082.44 860.671C3086.18 860.671 3089.16 862.75 3091.58 867.045C3093.01 869.579 3095.1 875.654 3095.7 879.01C3096.26 882.096 3097.03 883.192 3098.66 883.192C3099.29 883.192 3102.64 882.195 3106.11 880.976C3112.07 878.882 3112.65 878.759 3116.66 878.745C3120.8 878.731 3120.95 878.765 3122.79 880.121C3126.98 883.21 3128.19 886.525 3128.7 896.316C3129.19 905.574 3128.87 905.234 3135.95 903.971C3138.84 903.455 3143.02 903.021 3145.23 903.007C3148.69 902.984 3149.58 903.133 3151.6 904.071C3154.37 905.358 3156.86 907.447 3157.8 909.271C3158.37 910.376 3158.43 911.571 3158.19 917.017C3158.03 920.559 3157.74 924.945 3157.53 926.763C3157.33 928.582 3157.25 930.299 3157.36 930.579C3157.66 931.377 3160.26 931.964 3165.77 932.484C3174.47 933.305 3178.04 934.442 3180.64 937.227C3184.5 941.338 3184.54 943.894 3180.93 955.217C3179.89 958.489 3179 961.91 3178.96 962.82L3178.89 964.473L3185.54 966.305C3195 968.915 3198.93 971.092 3200.66 974.695C3202.47 978.442 3201.38 983.78 3197.51 990.146C3193.06 997.464 3192.14 999.198 3192.39 999.842C3192.53 1000.21 3194.61 1001.43 3197.01 1002.55C3202.94 1005.33 3206.61 1007.74 3209.08 1010.45C3214.1 1015.96 3212.96 1021.32 3204.89 1030.04C3199.7 1035.66 3198.41 1037.49 3198.78 1038.69C3198.94 1039.17 3199.36 1039.57 3199.73 1039.57C3201.57 1039.57 3211.97 1049.67 3213.41 1052.85C3214.48 1055.21 3214.48 1058.77 3213.41 1061.14C3212.19 1063.83 3208.79 1066.97 3202.5 1071.21C3198.84 1073.67 3196.89 1075.25 3196.89 1075.74C3196.89 1076.15 3197.8 1077.69 3198.92 1079.17C3200.04 1080.64 3201.92 1083.11 3203.1 1084.66C3207.18 1090.02 3208.92 1095.17 3207.9 1098.82C3206.71 1103.1 3202.52 1106.28 3193.25 1109.91C3188.21 1111.89 3187.15 1112.46 3187.15 1113.16C3187.15 1113.63 3188.37 1116.63 3189.87 1119.82C3193.11 1126.75 3194.02 1129.72 3194 1133.32C3193.98 1136.63 3192.83 1138.98 3190.23 1140.96C3187.23 1143.26 3182.7 1144.63 3172.83 1146.23C3170.8 1146.56 3169.64 1146.96 3169.48 1147.38C3169.35 1147.73 3170.06 1150.91 3171.07 1154.45C3172.64 1159.93 3172.91 1161.48 3172.94 1164.92C3172.97 1170.03 3171.93 1172.48 3168.83 1174.56C3165.72 1176.64 3163.14 1177.04 3153.62 1176.92L3145.29 1176.81L3145.35 1185.63C3145.4 1193.57 3145.32 1194.72 3144.51 1197.12C3141.82 1205.16 3136.45 1206.55 3122.82 1202.71C3117.38 1201.17 3116.12 1201.12 3115.63 1202.43C3115.43 1202.96 3114.93 1205.59 3114.53 1208.27C3113.06 1217.99 3110.81 1222.79 3106.72 1224.94C3102.86 1226.96 3098.56 1226.4 3090.82 1222.87C3088.5 1221.8 3085.57 1220.56 3084.32 1220.1C3082.19 1219.32 3081.99 1219.31 3081.27 1219.97C3080.84 1220.36 3079.98 1222.24 3079.37 1224.14C3077.71 1229.25 3075.25 1234.11 3073.07 1236.59C3070.88 1239.08 3067.46 1240.98 3065.23 1240.97C3061.91 1240.95 3054.85 1237.02 3049.63 1232.3C3047.65 1230.51 3046.19 1229.51 3045.54 1229.51C3044.37 1229.51 3043.19 1230.9 3039.61 1236.49C3035.1 1243.54 3030.47 1247.04 3025.56 1247.11C3023.22 1247.14 3022.74 1246.98 3020.63 1245.53C3017.45 1243.33 3010.66 1236.22 3008.88 1233.23C3008.08 1231.88 3007.28 1230.78 3007.11 1230.78C3006.94 1230.78 3004.62 1232.86 3001.95 1235.4C2993.24 1243.69 2989.82 1245.69 2985.35 1245.08C2980.23 1244.37 2976.76 1240.65 2971.64 1230.36C2970.19 1227.44 2968.93 1224.98 2968.86 1224.89C2968.78 1224.81 2966.94 1225.97 2964.78 1227.47C2952.94 1235.68 2946.85 1237.19 2942.1 1233.11C2939.24 1230.65 2935.46 1222.15 2934.57 1216.17C2934.4 1215.02 2933.89 1213.72 2933.43 1213.26C2932.42 1212.25 2931.12 1212.43 2925.91 1214.31C2921.15 1216.03 2915.45 1217.56 2913.71 1217.59C2910.68 1217.63 2908.42 1216.69 2906.18 1214.44C2902.96 1211.21 2902.21 1208.82 2901.75 1200.36C2901.55 1196.6 2901.19 1193.01 2900.95 1192.39C2900.41 1190.97 2899.35 1190.94 2892.31 1192.16C2885.18 1193.4 2881.54 1193.17 2877.75 1191.23C2875.83 1190.24 2874.46 1189.16 2873.47 1187.86L2872.02 1185.95L2872.28 1178.73C2872.43 1174.76 2872.67 1169.96 2872.82 1168.07L2873.09 1164.63L2870.6 1164.15C2869.23 1163.88 2866.02 1163.45 2863.45 1163.2C2854.55 1162.32 2850.68 1160.67 2848.25 1156.71C2846.48 1153.82 2846.34 1150.92 2847.76 1146.22C2851.87 1132.54 2851.98 1132.1 2851.24 1131.56C2850.86 1131.28 2847.93 1130.35 2844.72 1129.49C2837.86 1127.64 2834.01 1125.95 2831.76 1123.78C2829.63 1121.75 2828.95 1120.07 2828.95 1116.9C2828.95 1113.27 2830.09 1110.39 2834.28 1103.45C2836.69 1099.44 2837.86 1097.1 2837.77 1096.44C2837.65 1095.63 2836.58 1094.92 2832.11 1092.68C2824.08 1088.66 2821.24 1086.46 2819.38 1082.82C2816.87 1077.88 2818.59 1073.28 2825.93 1065.33C2828.49 1062.56 2830.86 1059.71 2831.21 1058.98C2831.94 1057.47 2831.5 1056.14 2830.27 1056.14C2829.29 1056.14 2824.06 1051.67 2820.53 1047.82C2817.19 1044.19 2816.07 1041.87 2816.09 1038.66C2816.12 1034.11 2819.32 1030.36 2828.14 1024.5C2831.71 1022.13 2833.6 1020.62 2833.6 1020.13C2833.6 1019.72 2831.88 1017.18 2829.78 1014.49C2823.01 1005.85 2820.9 999.978 2823 995.627C2824.84 991.809 2828.71 989.235 2838.05 985.616C2842.97 983.712 2843.13 983.608 2843.04 982.438C2842.99 981.773 2841.9 979.009 2840.62 976.297C2836.62 967.856 2835.59 963.76 2836.56 960.104C2837.95 954.866 2842.16 952.486 2853.9 950.294C2857.49 949.624 2860.6 948.9 2860.82 948.687C2861.05 948.452 2860.48 945.715 2859.37 941.772C2857.74 935.97 2857.54 934.75 2857.53 930.784C2857.53 926.667 2857.62 926.167 2858.7 924.315C2860.07 921.986 2862.49 920.389 2866.09 919.446C2867.94 918.959 2870.44 918.845 2876.85 918.955L2885.19 919.099L2884.97 911.45C2884.79 905.427 2884.89 903.137 2885.41 900.674C2887.45 891.131 2893.34 889.035 2907.01 892.992C2911.26 894.224 2914.22 894.57 2914.64 893.886C2914.76 893.69 2915.34 890.679 2915.92 887.193C2917.41 878.218 2918.68 875.084 2922.03 872.043C2925.82 868.602 2930.69 868.965 2940.6 873.427C2946.65 876.15 2948.23 876.64 2949.09 876.063C2949.38 875.869 2950.3 873.712 2951.14 871.271C2953.13 865.494 2955.2 861.558 2957.62 858.981C2959.64 856.822 2963.43 854.726 2965.28 854.737C2968.14 854.752 2975.6 859.002 2980.46 863.374C2982.12 864.87 2983.9 866.205 2984.42 866.339C2985.63 866.657 2987.52 864.689 2990.91 859.583C2993.97 854.961 2998.03 850.751 3000.5 849.626C3002.92 848.526 3006.42 848.533 3008.86 849.643ZM2996.74 905.116C2974.38 908.165 2951.11 917.272 2932.47 930.266C2919.14 939.557 2905.63 953.059 2896.54 966.173C2885.78 981.694 2876.76 1002.18 2873.42 1018.66C2871.44 1028.44 2871.1 1033 2871.12 1049.76C2871.13 1070.72 2871.99 1076.71 2877.27 1092.98C2880.13 1101.81 2882.18 1106.92 2885.53 1113.63C2892.49 1127.55 2901.01 1139.14 2913.39 1151.55C2927.55 1165.74 2941.14 1175.03 2958.33 1182.28C2968.93 1186.75 2984.14 1191.06 2993.65 1192.3C3005.41 1193.82 3028.09 1193.53 3039.19 1191.7C3051.53 1189.68 3067.04 1184.63 3078.24 1178.99C3106.07 1164.97 3129.7 1141.67 3142.93 1115.2C3149.49 1102.07 3154.89 1085.82 3157.38 1071.65C3158.02 1068.02 3158.13 1064.7 3158.14 1048.91C3158.14 1028.29 3158.13 1028.16 3154.9 1015.18C3143.16 968.107 3109.98 930.567 3064.78 913.229C3051.57 908.158 3039.21 905.718 3022.44 904.868C3011.39 904.309 3001.99 904.399 2996.74 905.116ZM3027.31 907.849C3053.69 909.607 3080.98 920.553 3103.1 938.249C3112.81 946.01 3125.13 959.456 3132.1 969.877C3143.91 987.56 3152.44 1009.86 3154.79 1029.24C3155.15 1032.23 3155.55 1039.08 3155.69 1044.45C3156.15 1063.14 3154.35 1076.93 3149.47 1091.98C3135.51 1135.05 3102.51 1168.95 3060.45 1183.42C3045.14 1188.69 3033.85 1190.41 3014.61 1190.41C2999.74 1190.41 2989.53 1189.31 2979.04 1186.56C2923.2 1171.94 2879.86 1121.96 2874.23 1065.7C2873.62 1059.68 2873.62 1038.67 2874.23 1032.34C2875.45 1019.46 2878.71 1006.67 2883.87 994.555C2900.95 954.381 2934.8 924.235 2975.98 912.502C2981.24 911.003 2994.56 908.15 2998.31 907.719C3001.46 907.358 3021.27 907.447 3027.31 907.849ZM3002.12 913.404C2986.62 914.505 2968.76 919.825 2953.22 927.972C2939.58 935.12 2929.64 942.694 2917.64 955.085C2907.55 965.499 2901.58 973.775 2895.15 986.237C2884.96 1006.02 2880.08 1026.1 2880.08 1048.28C2880.08 1070.52 2884.88 1090.5 2895.08 1110.62C2903.56 1127.34 2913.4 1139.5 2929.29 1152.84C2951.16 1171.22 2974.05 1180.81 3001.7 1183.19C3008.04 1183.74 3024.24 1183.72 3030.7 1183.17C3051.95 1181.34 3075.25 1172.34 3093.74 1158.8C3123.48 1137.02 3143.7 1104.2 3149.12 1068.89C3149.88 1063.95 3149.89 1032.69 3149.13 1027.89C3147.33 1016.42 3143.29 1003.01 3138.51 992.611C3131.62 977.612 3123.03 965.399 3110.53 952.857C3102.79 945.084 3097.41 940.639 3088.71 934.818C3073.39 924.57 3054.06 916.939 3037.1 914.45C3028.01 913.116 3012.64 912.657 3002.12 913.404ZM3029.69 916.327C3055.09 919.161 3078.26 928.806 3098.32 944.893C3104.1 949.534 3114.12 959.609 3118.72 965.415C3156.15 1012.66 3157.5 1079 3122 1127.31C3118.64 1131.89 3108.6 1143.68 3107.54 1144.3C3107.13 1144.54 3105.1 1146.24 3103.04 1148.08C3085.97 1163.31 3064.53 1174.1 3042.25 1178.69C3032.23 1180.76 3027.25 1181.23 3015.46 1181.23C3003.62 1181.23 2998.06 1180.71 2988.25 1178.69C2970.18 1174.97 2951.67 1166.74 2936.92 1155.85C2932.76 1152.79 2925.91 1147.04 2924.42 1145.37C2923.96 1144.85 2923.25 1144.3 2922.84 1144.15C2921.89 1143.79 2913.72 1134.23 2909.09 1128.05C2903.62 1120.75 2894.91 1106.13 2894.37 1103.35C2894.3 1102.97 2893.65 1101.38 2892.94 1099.81C2891.19 1095.98 2888.07 1086.4 2886.54 1080.15C2879.36 1050.85 2882.48 1019.27 2895.25 992.055C2901.86 977.956 2910.34 965.923 2921.66 954.56C2938.97 937.172 2958.88 925.777 2982.86 919.529C2990.28 917.593 2992.31 917.214 2999.99 916.334C3009.11 915.287 3020.36 915.285 3029.69 916.327Z" fill="black"/>
</svg>
